<svg id="Layer_1" data-name="Layer 1" xmlns="http://www.w3.org/2000/svg" viewBox="0 0 1080 1080"><defs><style>.cls-1,.cls-2,.cls-3{fill:none;stroke-linecap:round;stroke-miterlimit:10;}.cls-1{stroke:#666;stroke-width:2.13px;}.cls-2{stroke:#3689d1;}.cls-2,.cls-3{stroke-width:2.14px;}.cls-3{stroke:#ee8b8b;}</style></defs><path class="cls-1" d="M228,254.42c0-27.52,23.7-49.83,52.94-49.83s52.95,22.31,52.95,49.83"/><path class="cls-1" d="M217.8,265.08S230,253.49,281.89,253s60.66,12.09,60.66,12.09"/><path class="cls-1" d="M212.44,275.75S218,263.26,281.89,263s67,12.71,67,12.71"/><line class="cls-1" x1="216.45" y1="280.6" x2="216.45" y2="296.61"/><line class="cls-1" x1="226.22" y1="275.75" x2="226.22" y2="293.89"/><line class="cls-1" x1="241.4" y1="271.25" x2="241.4" y2="291.41"/><line class="cls-1" x1="262.4" y1="269.39" x2="262.4" y2="289.54"/><line class="cls-1" x1="286.3" y1="269.39" x2="286.3" y2="289.54"/><line class="cls-1" x1="308.96" y1="269.39" x2="308.96" y2="290.37"/><line class="cls-1" x1="327.67" y1="272.49" x2="327.67" y2="292.66"/><line class="cls-1" x1="339.1" y1="277.07" x2="339.1" y2="294.95"/><line class="cls-1" x1="344.92" y1="280.6" x2="344.92" y2="297.86"/><line class="cls-1" x1="220.84" y1="277.07" x2="220.84" y2="295.7"/><line class="cls-1" x1="232.78" y1="272.69" x2="233.31" y2="291.99"/><line class="cls-1" x1="251.77" y1="269.39" x2="251.77" y2="289.99"/><line class="cls-1" x1="274.25" y1="268.68" x2="274.25" y2="289.54"/><line class="cls-1" x1="297.88" y1="269.39" x2="297.88" y2="289.54"/><line class="cls-1" x1="319.09" y1="271.25" x2="319.09" y2="291.41"/><line class="cls-1" x1="333.54" y1="274.37" x2="333.54" y2="293.79"/><path class="cls-1" d="M203,304.54s7.23-10.65,77.18-10.75c76.85-.12,77.61,11,77.61,11"/><path class="cls-1" d="M200.12,313.15S203.78,300,286.3,300c71.49,0,72.87,13.12,72.87,13.12"/><line class="cls-1" x1="206.11" y1="318.31" x2="206.11" y2="350.49"/><line class="cls-1" x1="210.22" y1="316.64" x2="210.22" y2="349.21"/><line class="cls-1" x1="216.45" y1="314.32" x2="216.45" y2="347.53"/><line class="cls-1" x1="224.77" y1="312.52" x2="224.77" y2="346.12"/><line class="cls-1" x1="234.81" y1="310.85" x2="234.81" y2="344.83"/><line class="cls-1" x1="246.78" y1="309.82" x2="246.78" y2="343.41"/><line class="cls-1" x1="259.65" y1="308.66" x2="259.65" y2="342.64"/><line class="cls-1" x1="273.56" y1="308.66" x2="273.56" y2="342.64"/><line class="cls-1" x1="287.59" y1="308.66" x2="287.59" y2="342.64"/><line class="cls-1" x1="301.1" y1="308.66" x2="301.1" y2="343.41"/><line class="cls-1" x1="314.1" y1="309.82" x2="314.1" y2="343.41"/><line class="cls-1" x1="325.82" y1="310.85" x2="325.82" y2="344.83"/><line class="cls-1" x1="336.12" y1="313.15" x2="336.12" y2="345.47"/><line class="cls-1" x1="344.23" y1="314.45" x2="344.23" y2="347.28"/><line class="cls-1" x1="350.53" y1="316.51" x2="350.53" y2="348.82"/><line class="cls-1" x1="354.78" y1="318.44" x2="354.78" y2="350.11"/><path class="cls-1" d="M201.07,355.81s17.29-10,80.82-10.34,77.33,10.34,77.33,10.34"/><line class="cls-1" x1="161.15" y1="363.97" x2="399.5" y2="363.97"/><line class="cls-1" x1="157.48" y1="373.12" x2="202.98" y2="373.12"/><line class="cls-1" x1="207.06" y1="370.73" x2="354.78" y2="370.73"/><line class="cls-1" x1="356.75" y1="373.62" x2="403.53" y2="373.62"/><line class="cls-1" x1="227.53" y1="355.81" x2="333.54" y2="355.81"/><line class="cls-1" x1="211.11" y1="378.58" x2="350.53" y2="378.58"/><line class="cls-1" x1="213.08" y1="382.5" x2="213.08" y2="424.29"/><line class="cls-1" x1="220.85" y1="382.5" x2="220.85" y2="424.29"/><line class="cls-1" x1="241.82" y1="382.5" x2="241.82" y2="424.29"/><line class="cls-1" x1="249.58" y1="382.5" x2="249.58" y2="424.29"/><line class="cls-1" x1="311.87" y1="382.5" x2="311.87" y2="424.29"/><line class="cls-1" x1="319.64" y1="382.5" x2="319.64" y2="424.29"/><line class="cls-1" x1="340.45" y1="382.5" x2="340.45" y2="424.29"/><line class="cls-1" x1="348.22" y1="382.5" x2="348.22" y2="424.29"/><line class="cls-1" x1="270.55" y1="382.5" x2="270.55" y2="424.29"/><line class="cls-1" x1="291.21" y1="382.5" x2="291.21" y2="424.29"/><line class="cls-1" x1="207.06" y1="430.81" x2="353.6" y2="430.81"/><line class="cls-1" x1="399.5" y1="457.84" x2="399.5" y2="378.58"/><line class="cls-1" x1="167" y1="457.84" x2="392.49" y2="457.84"/><line class="cls-1" x1="161.15" y1="382.5" x2="161.15" y2="457.84"/><line class="cls-1" x1="208.97" y1="435.11" x2="208.97" y2="453.51"/><line class="cls-1" x1="352.45" y1="435.6" x2="352.45" y2="453.51"/><line class="cls-1" x1="166.06" y1="432.23" x2="202.22" y2="432.23"/><line class="cls-1" x1="358.35" y1="431.92" x2="394.55" y2="431.92"/><line class="cls-1" x1="49.52" y1="377.31" x2="156.05" y2="377.31"/><line class="cls-1" x1="45.42" y1="386.29" x2="157.48" y2="386.29"/><line class="cls-1" x1="52.82" y1="457.84" x2="155.01" y2="457.84"/><line class="cls-1" x1="49.52" y1="392.53" x2="49.52" y2="455.31"/><line class="cls-1" x1="53.81" y1="392.53" x2="156.05" y2="392.53"/><line class="cls-1" x1="59.66" y1="396.63" x2="59.66" y2="433.8"/><line class="cls-1" x1="78.98" y1="396.63" x2="78.98" y2="433.8"/><line class="cls-1" x1="98.15" y1="396.63" x2="98.15" y2="433.8"/><line class="cls-1" x1="125.22" y1="396.63" x2="125.22" y2="433.8"/><line class="cls-1" x1="144.54" y1="396.63" x2="144.54" y2="433.8"/><line class="cls-1" x1="156.05" y1="441.03" x2="53.85" y2="441.03"/><path class="cls-1" d="M107.84,373.82s2-1.33,13.39-1.33c7.65,0,11.51,1.12,11.51,1.12"/><path class="cls-1" d="M108.42,361.89s2-1.33,13.39-1.33c8.36,0,10.78.94,10.78.94"/><line class="cls-1" x1="111.14" y1="364.17" x2="111.14" y2="369.6"/><line class="cls-1" x1="116.28" y1="363.87" x2="116.28" y2="369.3"/><line class="cls-1" x1="122.87" y1="363.87" x2="122.87" y2="369.3"/><line class="cls-1" x1="128.88" y1="364.17" x2="128.88" y2="369.6"/><line class="cls-1" x1="511.71" y1="377.31" x2="405.17" y2="377.31"/><line class="cls-1" x1="515.81" y1="386.29" x2="403.74" y2="386.29"/><line class="cls-1" x1="508.41" y1="457.84" x2="406.22" y2="457.84"/><line class="cls-1" x1="511.71" y1="392.53" x2="511.71" y2="455.31"/><line class="cls-1" x1="507.42" y1="392.53" x2="405.17" y2="392.53"/><line class="cls-1" x1="501.56" y1="396.63" x2="501.56" y2="433.8"/><line class="cls-1" x1="482.25" y1="396.63" x2="482.25" y2="433.8"/><line class="cls-1" x1="463.08" y1="396.63" x2="463.08" y2="433.8"/><line class="cls-1" x1="436" y1="396.63" x2="436" y2="433.8"/><line class="cls-1" x1="416.69" y1="396.63" x2="416.69" y2="433.8"/><line class="cls-1" x1="405.17" y1="441.03" x2="507.37" y2="441.03"/><path class="cls-1" d="M232.78,253s11.85-7.28,49.11-7.69S330.05,253,330.05,253"/><path class="cls-1" d="M259.92,202.5s7.69-3.33,21.5-3.53,19.11,3.53,19.11,3.53"/><path class="cls-1" d="M266.78,195.44s1.72-2.95,13.91-2.95,12.78,2.95,12.78,2.95"/><path class="cls-1" d="M266.78,169.44s1.09-5,14.14-4.76,13.17,4.13,13.17,4.13"/><line class="cls-1" x1="273" y1="172.02" x2="273" y2="189.49"/><line class="cls-1" x1="277.03" y1="171.4" x2="277.03" y2="188.77"/><line class="cls-1" x1="282.71" y1="171.4" x2="282.71" y2="188.77"/><line class="cls-1" x1="287.47" y1="172.64" x2="287.47" y2="189.49"/><path class="cls-1" d="M272,162.41a9.59,9.59,0,0,1,8.47-4.55c6.21-.11,8.18,4.55,8.18,4.55"/><line class="cls-1" x1="280.43" y1="153.79" x2="280.43" y2="131.64"/><path class="cls-1" d="M428.06,373.75s2-1.33,13.39-1.33c7.65,0,11.51,1.12,11.51,1.12"/><path class="cls-1" d="M428.64,361.82s2.05-1.33,13.39-1.33c8.36,0,10.78.94,10.78.94"/><line class="cls-1" x1="431.36" y1="364.1" x2="431.36" y2="369.53"/><line class="cls-1" x1="436.5" y1="363.79" x2="436.5" y2="369.23"/><line class="cls-1" x1="443.09" y1="363.79" x2="443.09" y2="369.23"/><line class="cls-1" x1="449.1" y1="364.1" x2="449.1" y2="369.53"/><path class="cls-2" d="M751.66,253.38c0-27.66,23.82-50.09,53.21-50.09s53.21,22.43,53.21,50.09"/><path class="cls-2" d="M741.43,264.09s12.2-11.65,64.4-12.16,61,12.16,61,12.16"/><path class="cls-2" d="M736,274.81s5.61-12.55,69.79-12.78,67.38,12.78,67.38,12.78"/><line class="cls-2" x1="740.08" y1="279.68" x2="740.08" y2="295.77"/><line class="cls-2" x1="749.89" y1="274.81" x2="749.89" y2="293.04"/><line class="cls-2" x1="765.15" y1="270.28" x2="765.15" y2="290.55"/><line class="cls-2" x1="786.25" y1="268.42" x2="786.25" y2="288.67"/><line class="cls-2" x1="810.27" y1="268.42" x2="810.27" y2="288.67"/><line class="cls-2" x1="833.04" y1="268.42" x2="833.04" y2="289.5"/><line class="cls-2" x1="851.85" y1="271.54" x2="851.85" y2="291.8"/><line class="cls-2" x1="863.34" y1="276.13" x2="863.34" y2="294.1"/><line class="cls-2" x1="869.19" y1="279.68" x2="869.19" y2="297.02"/><line class="cls-2" x1="744.49" y1="276.13" x2="744.49" y2="294.85"/><line class="cls-2" x1="756.49" y1="271.73" x2="757.02" y2="291.13"/><line class="cls-2" x1="775.57" y1="268.42" x2="775.57" y2="289.12"/><line class="cls-2" x1="798.16" y1="267.7" x2="798.16" y2="288.67"/><line class="cls-2" x1="821.91" y1="268.42" x2="821.91" y2="288.67"/><line class="cls-2" x1="843.22" y1="270.28" x2="843.22" y2="290.55"/><line class="cls-2" x1="857.74" y1="273.42" x2="857.74" y2="292.93"/><path class="cls-2" d="M726.55,303.75s7.26-10.71,77.56-10.82c77.23-.11,78,11.09,78,11.09"/><path class="cls-2" d="M723.66,312.39s3.68-13.18,86.61-13.18c71.85,0,73.23,13.18,73.23,13.18"/><line class="cls-2" x1="729.67" y1="317.58" x2="729.67" y2="349.92"/><line class="cls-2" x1="733.81" y1="315.9" x2="733.81" y2="348.63"/><line class="cls-2" x1="740.08" y1="313.57" x2="740.08" y2="346.95"/><line class="cls-2" x1="748.43" y1="311.76" x2="748.43" y2="345.53"/><line class="cls-2" x1="758.52" y1="310.08" x2="758.52" y2="344.23"/><line class="cls-2" x1="770.55" y1="309.04" x2="770.55" y2="342.81"/><line class="cls-2" x1="783.49" y1="307.88" x2="783.49" y2="342.03"/><line class="cls-2" x1="797.46" y1="307.88" x2="797.46" y2="342.03"/><line class="cls-2" x1="811.56" y1="307.88" x2="811.56" y2="342.03"/><line class="cls-2" x1="825.15" y1="307.88" x2="825.15" y2="342.81"/><line class="cls-2" x1="838.21" y1="309.04" x2="838.21" y2="342.81"/><line class="cls-2" x1="849.98" y1="310.08" x2="849.98" y2="344.23"/><line class="cls-2" x1="860.33" y1="312.39" x2="860.33" y2="344.88"/><line class="cls-2" x1="868.48" y1="313.7" x2="868.48" y2="346.69"/><line class="cls-2" x1="874.82" y1="315.77" x2="874.82" y2="348.24"/><line class="cls-2" x1="879.09" y1="317.71" x2="879.09" y2="349.54"/><path class="cls-2" d="M724.61,355.27s17.38-10,81.22-10.39,77.73,10.39,77.73,10.39"/><line class="cls-2" x1="684.49" y1="363.47" x2="924.03" y2="363.47"/><line class="cls-2" x1="680.81" y1="372.67" x2="726.53" y2="372.67"/><line class="cls-2" x1="730.63" y1="370.26" x2="879.09" y2="370.26"/><line class="cls-2" x1="881.07" y1="373.16" x2="928.08" y2="373.16"/><line class="cls-2" x1="751.2" y1="355.27" x2="857.74" y2="355.27"/><line class="cls-2" x1="734.7" y1="378.15" x2="874.82" y2="378.15"/><line class="cls-2" x1="736.69" y1="382.09" x2="736.69" y2="424.09"/><line class="cls-2" x1="744.49" y1="382.09" x2="744.49" y2="424.09"/><line class="cls-2" x1="765.57" y1="382.09" x2="765.57" y2="424.09"/><line class="cls-2" x1="773.37" y1="382.09" x2="773.37" y2="424.09"/><line class="cls-2" x1="835.97" y1="382.09" x2="835.97" y2="424.09"/><line class="cls-2" x1="843.77" y1="382.09" x2="843.77" y2="424.09"/><line class="cls-2" x1="864.69" y1="382.09" x2="864.69" y2="424.09"/><line class="cls-2" x1="872.5" y1="382.09" x2="872.5" y2="424.09"/><line class="cls-2" x1="794.44" y1="382.09" x2="794.44" y2="424.09"/><line class="cls-2" x1="815.21" y1="382.09" x2="815.21" y2="424.09"/><line class="cls-2" x1="730.63" y1="430.64" x2="877.91" y2="430.64"/><line class="cls-2" x1="924.03" y1="457.8" x2="924.03" y2="378.15"/><line class="cls-2" x1="690.38" y1="457.8" x2="916.99" y2="457.8"/><line class="cls-2" x1="684.49" y1="382.09" x2="684.49" y2="457.8"/><line class="cls-2" x1="732.55" y1="434.96" x2="732.55" y2="453.45"/><line class="cls-2" x1="876.74" y1="435.45" x2="876.74" y2="453.45"/><line class="cls-2" x1="689.43" y1="432.06" x2="725.77" y2="432.06"/><line class="cls-2" x1="882.68" y1="431.76" x2="919.06" y2="431.76"/><line class="cls-2" x1="572.31" y1="376.88" x2="679.37" y2="376.88"/><line class="cls-2" x1="568.19" y1="385.9" x2="680.81" y2="385.9"/><line class="cls-2" x1="575.62" y1="457.8" x2="678.32" y2="457.8"/><line class="cls-2" x1="572.31" y1="392.17" x2="572.31" y2="455.27"/><line class="cls-2" x1="576.62" y1="392.17" x2="679.37" y2="392.17"/><line class="cls-2" x1="582.5" y1="396.29" x2="582.5" y2="433.64"/><line class="cls-2" x1="601.92" y1="396.29" x2="601.92" y2="433.64"/><line class="cls-2" x1="621.18" y1="396.29" x2="621.18" y2="433.64"/><line class="cls-2" x1="648.39" y1="396.29" x2="648.39" y2="433.64"/><line class="cls-2" x1="667.8" y1="396.29" x2="667.8" y2="433.64"/><line class="cls-2" x1="679.37" y1="440.92" x2="576.66" y2="440.92"/><path class="cls-2" d="M630.92,373.37S633,372,644.38,372c7.68,0,11.56,1.13,11.56,1.13"/><path class="cls-2" d="M631.51,361.38s2-1.33,13.45-1.33c8.4,0,10.84.93,10.84.93"/><line class="cls-2" x1="634.24" y1="363.67" x2="634.24" y2="369.13"/><line class="cls-2" x1="639.41" y1="363.36" x2="639.41" y2="368.82"/><line class="cls-2" x1="646.02" y1="363.36" x2="646.02" y2="368.82"/><line class="cls-2" x1="652.06" y1="363.67" x2="652.06" y2="369.13"/><line class="cls-2" x1="1036.8" y1="376.88" x2="929.74" y2="376.88"/><line class="cls-2" x1="1040.92" y1="385.9" x2="928.3" y2="385.9"/><line class="cls-2" x1="1033.48" y1="457.8" x2="930.79" y2="457.8"/><line class="cls-2" x1="1036.8" y1="392.17" x2="1036.8" y2="455.27"/><line class="cls-2" x1="1032.49" y1="392.17" x2="929.74" y2="392.17"/><line class="cls-2" x1="1026.61" y1="396.29" x2="1026.61" y2="433.64"/><line class="cls-2" x1="1007.19" y1="396.29" x2="1007.19" y2="433.64"/><line class="cls-2" x1="987.93" y1="396.29" x2="987.93" y2="433.64"/><line class="cls-2" x1="960.72" y1="396.29" x2="960.72" y2="433.64"/><line class="cls-2" x1="941.31" y1="396.29" x2="941.31" y2="433.64"/><line class="cls-2" x1="929.74" y1="440.92" x2="1032.45" y2="440.92"/><path class="cls-2" d="M756.49,251.92s11.91-7.32,49.34-7.73,48.41,7.73,48.41,7.73"/><path class="cls-2" d="M783.75,201.19s7.73-3.35,21.61-3.55,19.21,3.55,19.21,3.55"/><path class="cls-2" d="M790.66,194.1s1.72-3,14-3,12.84,3,12.84,3"/><path class="cls-2" d="M790.66,168s1.08-5,14.21-4.78,13.22,4.16,13.22,4.16"/><line class="cls-2" x1="796.9" y1="170.56" x2="796.9" y2="188.12"/><line class="cls-2" x1="800.95" y1="169.94" x2="800.95" y2="187.39"/><line class="cls-2" x1="806.66" y1="169.94" x2="806.66" y2="187.39"/><line class="cls-2" x1="811.44" y1="171.18" x2="811.44" y2="188.12"/><path class="cls-2" d="M795.86,160.9a9.63,9.63,0,0,1,8.51-4.57c6.24-.11,8.22,4.57,8.22,4.57"/><line class="cls-2" x1="804.37" y1="152.24" x2="804.37" y2="129.98"/><path class="cls-2" d="M952.74,373.29s2-1.33,13.45-1.33c7.69,0,11.56,1.13,11.56,1.13"/><path class="cls-2" d="M953.32,361.31s2-1.34,13.45-1.34c8.41,0,10.84.94,10.84.94"/><line class="cls-2" x1="956.05" y1="363.6" x2="956.05" y2="369.05"/><line class="cls-2" x1="961.22" y1="363.29" x2="961.22" y2="368.75"/><line class="cls-2" x1="967.84" y1="363.29" x2="967.84" y2="368.75"/><line class="cls-2" x1="973.88" y1="363.6" x2="973.88" y2="369.05"/><path class="cls-3" d="M493.28,683.75c0-27.66,23.82-50.08,53.21-50.08s53.21,22.42,53.21,50.08"/><path class="cls-3" d="M483.05,694.46s12.21-11.65,64.41-12.16,61,12.16,61,12.16"/><path class="cls-3" d="M477.67,705.19s5.61-12.56,69.79-12.79,67.38,12.79,67.38,12.79"/><line class="cls-3" x1="481.7" y1="710.06" x2="481.7" y2="726.14"/><line class="cls-3" x1="491.52" y1="705.19" x2="491.52" y2="723.41"/><line class="cls-3" x1="506.77" y1="700.66" x2="506.77" y2="720.92"/><line class="cls-3" x1="527.87" y1="698.79" x2="527.87" y2="719.04"/><line class="cls-3" x1="551.9" y1="698.79" x2="551.9" y2="719.04"/><line class="cls-3" x1="574.67" y1="698.79" x2="574.67" y2="719.88"/><line class="cls-3" x1="593.47" y1="701.91" x2="593.47" y2="722.17"/><line class="cls-3" x1="604.96" y1="706.51" x2="604.96" y2="724.47"/><line class="cls-3" x1="610.81" y1="710.06" x2="610.81" y2="727.4"/><line class="cls-3" x1="486.11" y1="706.51" x2="486.11" y2="725.23"/><line class="cls-3" x1="498.11" y1="702.1" x2="498.64" y2="721.5"/><line class="cls-3" x1="517.2" y1="698.79" x2="517.2" y2="719.49"/><line class="cls-3" x1="539.78" y1="698.07" x2="539.78" y2="719.04"/><line class="cls-3" x1="563.53" y1="698.79" x2="563.53" y2="719.04"/><line class="cls-3" x1="584.84" y1="700.66" x2="584.84" y2="720.92"/><line class="cls-3" x1="599.37" y1="703.8" x2="599.37" y2="723.31"/><path class="cls-3" d="M468.17,734.12s7.27-10.71,77.57-10.81c77.22-.12,78,11.08,78,11.08"/><path class="cls-3" d="M465.28,742.76s3.68-13.18,86.62-13.18c71.84,0,73.22,13.18,73.22,13.18"/><line class="cls-3" x1="471.3" y1="747.96" x2="471.3" y2="780.3"/><line class="cls-3" x1="475.44" y1="746.27" x2="475.44" y2="779"/><line class="cls-3" x1="481.7" y1="743.95" x2="481.7" y2="777.32"/><line class="cls-3" x1="490.06" y1="742.13" x2="490.06" y2="775.9"/><line class="cls-3" x1="500.15" y1="740.45" x2="500.15" y2="774.6"/><line class="cls-3" x1="512.18" y1="739.42" x2="512.18" y2="773.18"/><line class="cls-3" x1="525.12" y1="738.25" x2="525.12" y2="772.41"/><line class="cls-3" x1="539.09" y1="738.25" x2="539.09" y2="772.41"/><line class="cls-3" x1="553.19" y1="738.25" x2="553.19" y2="772.41"/><line class="cls-3" x1="566.77" y1="738.25" x2="566.77" y2="773.18"/><line class="cls-3" x1="579.84" y1="739.42" x2="579.84" y2="773.18"/><line class="cls-3" x1="591.61" y1="740.45" x2="591.61" y2="774.6"/><line class="cls-3" x1="601.96" y1="742.76" x2="601.96" y2="775.25"/><line class="cls-3" x1="610.11" y1="744.07" x2="610.11" y2="777.06"/><line class="cls-3" x1="616.45" y1="746.14" x2="616.45" y2="778.62"/><line class="cls-3" x1="620.72" y1="748.08" x2="620.72" y2="779.91"/><path class="cls-3" d="M466.24,785.64s17.37-10,81.22-10.39,77.72,10.39,77.72,10.39"/><line class="cls-3" x1="426.12" y1="793.84" x2="665.65" y2="793.84"/><line class="cls-3" x1="422.44" y1="803.04" x2="468.16" y2="803.04"/><line class="cls-3" x1="472.26" y1="800.63" x2="620.72" y2="800.63"/><line class="cls-3" x1="622.69" y1="803.54" x2="669.71" y2="803.54"/><line class="cls-3" x1="492.83" y1="785.64" x2="599.37" y2="785.64"/><line class="cls-3" x1="476.33" y1="808.53" x2="616.45" y2="808.53"/><line class="cls-3" x1="478.31" y1="812.47" x2="478.31" y2="854.46"/><line class="cls-3" x1="486.12" y1="812.47" x2="486.12" y2="854.46"/><line class="cls-3" x1="507.19" y1="812.47" x2="507.19" y2="854.46"/><line class="cls-3" x1="514.99" y1="812.47" x2="514.99" y2="854.46"/><line class="cls-3" x1="577.59" y1="812.47" x2="577.59" y2="854.46"/><line class="cls-3" x1="585.4" y1="812.47" x2="585.4" y2="854.46"/><line class="cls-3" x1="606.32" y1="812.47" x2="606.32" y2="854.46"/><line class="cls-3" x1="614.12" y1="812.47" x2="614.12" y2="854.46"/><line class="cls-3" x1="536.07" y1="812.47" x2="536.07" y2="854.46"/><line class="cls-3" x1="556.83" y1="812.47" x2="556.83" y2="854.46"/><line class="cls-3" x1="472.26" y1="861.01" x2="619.53" y2="861.01"/><line class="cls-3" x1="665.65" y1="888.17" x2="665.65" y2="808.53"/><line class="cls-3" x1="432" y1="888.17" x2="658.61" y2="888.17"/><line class="cls-3" x1="426.12" y1="812.47" x2="426.12" y2="888.17"/><line class="cls-3" x1="474.18" y1="865.34" x2="474.18" y2="883.83"/><line class="cls-3" x1="618.37" y1="865.82" x2="618.37" y2="883.83"/><line class="cls-3" x1="431.05" y1="862.44" x2="467.39" y2="862.44"/><line class="cls-3" x1="624.3" y1="862.13" x2="660.68" y2="862.13"/><line class="cls-3" x1="313.93" y1="807.25" x2="421" y2="807.25"/><line class="cls-3" x1="309.81" y1="816.27" x2="422.44" y2="816.27"/><line class="cls-3" x1="317.25" y1="888.17" x2="419.95" y2="888.17"/><line class="cls-3" x1="313.93" y1="822.55" x2="313.93" y2="885.64"/><line class="cls-3" x1="318.24" y1="822.55" x2="421" y2="822.55"/><line class="cls-3" x1="324.13" y1="826.66" x2="324.13" y2="864.02"/><line class="cls-3" x1="343.54" y1="826.66" x2="343.54" y2="864.02"/><line class="cls-3" x1="362.81" y1="826.66" x2="362.81" y2="864.02"/><line class="cls-3" x1="390.01" y1="826.66" x2="390.01" y2="864.02"/><line class="cls-3" x1="409.43" y1="826.66" x2="409.43" y2="864.02"/><line class="cls-3" x1="421" y1="871.29" x2="318.29" y2="871.29"/><path class="cls-3" d="M372.55,803.74s2.05-1.33,13.45-1.33c7.69,0,11.57,1.12,11.57,1.12"/><path class="cls-3" d="M373.13,791.75s2.06-1.33,13.45-1.33c8.41,0,10.84.94,10.84.94"/><line class="cls-3" x1="375.86" y1="794.04" x2="375.86" y2="799.5"/><line class="cls-3" x1="381.03" y1="793.74" x2="381.03" y2="799.2"/><line class="cls-3" x1="387.65" y1="793.74" x2="387.65" y2="799.2"/><line class="cls-3" x1="393.69" y1="794.04" x2="393.69" y2="799.5"/><line class="cls-3" x1="778.43" y1="807.25" x2="671.36" y2="807.25"/><line class="cls-3" x1="782.54" y1="816.27" x2="669.92" y2="816.27"/><line class="cls-3" x1="775.11" y1="888.17" x2="672.41" y2="888.17"/><line class="cls-3" x1="778.43" y1="822.55" x2="778.43" y2="885.64"/><line class="cls-3" x1="774.11" y1="822.55" x2="671.36" y2="822.55"/><line class="cls-3" x1="768.23" y1="826.66" x2="768.23" y2="864.02"/><line class="cls-3" x1="748.82" y1="826.66" x2="748.82" y2="864.02"/><line class="cls-3" x1="729.55" y1="826.66" x2="729.55" y2="864.02"/><line class="cls-3" x1="702.34" y1="826.66" x2="702.34" y2="864.02"/><line class="cls-3" x1="682.93" y1="826.66" x2="682.93" y2="864.02"/><line class="cls-3" x1="671.36" y1="871.29" x2="774.07" y2="871.29"/><path class="cls-3" d="M498.11,682.29S510,675,547.46,674.56s48.41,7.73,48.41,7.73"/><path class="cls-3" d="M525.38,631.57s7.73-3.36,21.61-3.55,19.2,3.55,19.2,3.55"/><path class="cls-3" d="M532.28,624.47s1.72-3,14-3,12.84,3,12.84,3"/><path class="cls-3" d="M532.28,598.34s1.09-5,14.21-4.78,13.23,4.15,13.23,4.15"/><line class="cls-3" x1="538.52" y1="600.93" x2="538.52" y2="618.49"/><line class="cls-3" x1="542.57" y1="600.31" x2="542.57" y2="617.76"/><line class="cls-3" x1="548.29" y1="600.31" x2="548.29" y2="617.76"/><line class="cls-3" x1="553.07" y1="601.56" x2="553.07" y2="618.49"/><path class="cls-3" d="M537.48,591.27A9.64,9.64,0,0,1,546,586.7c6.24-.1,8.21,4.57,8.21,4.57"/><line class="cls-3" x1="546" y1="582.61" x2="546" y2="560.36"/><path class="cls-3" d="M694.36,803.67s2-1.34,13.45-1.34c7.69,0,11.57,1.13,11.57,1.13"/><path class="cls-3" d="M695,791.68s2-1.34,13.45-1.34c8.4,0,10.83.94,10.83.94"/><line class="cls-3" x1="697.68" y1="793.97" x2="697.68" y2="799.43"/><line class="cls-3" x1="702.84" y1="793.66" x2="702.84" y2="799.12"/><line class="cls-3" x1="709.46" y1="793.66" x2="709.46" y2="799.12"/><line class="cls-3" x1="715.5" y1="793.97" x2="715.5" y2="799.43"/></svg>