<?xml version="1.0" encoding="utf-8"?>
<!-- Generator: Adobe Illustrator 26.5.0, SVG Export Plug-In . SVG Version: 6.00 Build 0)  -->
<svg version="1.1" id="Layer_1" xmlns="http://www.w3.org/2000/svg" xmlns:xlink="http://www.w3.org/1999/xlink" x="0px" y="0px"
	 viewBox="0 0 177.77 161.57" style="enable-background:new 0 0 177.77 161.57;" xml:space="preserve">
<style type="text/css">
	.st0{fill:#FFFFFF;stroke:#010101;stroke-width:3.63;stroke-linecap:round;stroke-miterlimit:10;}
	.st1{fill:#EF8B8B;}
	.st2{fill:none;stroke:#F3F3F3;stroke-width:3.45;stroke-linecap:round;stroke-miterlimit:10;}
	.st3{fill:#3C88C8;}
	.st4{fill:none;stroke:#010101;stroke-width:2.44;stroke-linecap:round;stroke-miterlimit:10;}
</style>
<path class="st0" d="M32.74,16.14C32.95,8.02,39.7,1.61,47.82,1.82c7.82,0.2,14.12,6.5,14.32,14.32"/>
<path class="st0" d="M116.03,16.14c0.21-8.12,6.97-14.53,15.09-14.32c7.82,0.2,14.12,6.5,14.32,14.32"/>
<path class="st0" d="M4.49,109.54l19.54-87.88c0,0,21-15.4,47,0l3.77,101.62"/>
<circle class="st0" cx="38.28" cy="123.28" r="36.47"/>
<path class="st0" d="M173.47,109.73l-19.33-88.1c0,0-21-15.33-47,0l-3.84,97"/>
<ellipse transform="matrix(0.1602 -0.9871 0.9871 0.1602 -4.5478 241.218)" class="st0" cx="139.49" cy="123.28" rx="36.47" ry="36.47"/>
<path class="st0" d="M104.59,86.81c-16.35-11.49-31,0-31,0l-0.74-22.3c0,0,17.23-11.15,32.52,0L104.59,86.81z"/>
<circle class="st1" cx="139.86" cy="123.28" r="28.18"/>
<path class="st2" d="M146.36,101.91c0,0,9.23,0.65,13,11"/>
<ellipse transform="matrix(0.0709 -0.9975 0.9975 0.0709 -87.4005 152.731)" class="st3" cx="38.29" cy="123.28" rx="28.18" ry="28.18"/>
<path class="st2" d="M34.53,145.55c0,0-9.23,0.79-14.58-8.88"/>
<ellipse transform="matrix(0.0709 -0.9975 0.9975 0.0709 -87.4005 152.731)" class="st4" cx="38.29" cy="123.28" rx="28.18" ry="28.18"/>
<circle class="st4" cx="139.86" cy="123.28" r="28.18"/>
</svg>
