<svg id="Layer_1" data-name="Layer 1" xmlns="http://www.w3.org/2000/svg" viewBox="0 0 1080 1080"><defs><style>.cls-1,.cls-2,.cls-3{fill:none;stroke-linecap:round;stroke-miterlimit:10;stroke-width:2.14px;}.cls-1{stroke:#3689d1;}.cls-2{stroke:#ee8b8b;}.cls-3{stroke:#666;}</style></defs><line class="cls-1" x1="110.78" y1="481.1" x2="350.31" y2="481.1"/><line class="cls-1" x1="107.1" y1="490.3" x2="152.82" y2="490.3"/><line class="cls-1" x1="156.92" y1="487.89" x2="305.38" y2="487.89"/><line class="cls-1" x1="307.36" y1="490.8" x2="354.37" y2="490.8"/><line class="cls-1" x1="177.49" y1="472.9" x2="284.03" y2="472.9"/><line class="cls-1" x1="160.99" y1="495.79" x2="301.11" y2="495.79"/><line class="cls-1" x1="162.97" y1="499.73" x2="162.97" y2="541.72"/><line class="cls-1" x1="170.78" y1="499.73" x2="170.78" y2="541.72"/><line class="cls-1" x1="191.85" y1="499.73" x2="191.85" y2="541.72"/><line class="cls-1" x1="199.66" y1="499.73" x2="199.66" y2="541.72"/><line class="cls-1" x1="262.25" y1="499.73" x2="262.25" y2="541.72"/><line class="cls-1" x1="270.06" y1="499.73" x2="270.06" y2="541.72"/><line class="cls-1" x1="290.98" y1="499.73" x2="290.98" y2="541.72"/><line class="cls-1" x1="298.78" y1="499.73" x2="298.78" y2="541.72"/><line class="cls-1" x1="220.73" y1="499.73" x2="220.73" y2="541.72"/><line class="cls-1" x1="241.49" y1="499.73" x2="241.49" y2="541.72"/><line class="cls-1" x1="156.92" y1="548.27" x2="304.19" y2="548.27"/><line class="cls-1" x1="350.31" y1="575.43" x2="350.31" y2="495.79"/><line class="cls-1" x1="116.66" y1="575.43" x2="343.27" y2="575.43"/><line class="cls-1" x1="110.78" y1="499.73" x2="110.78" y2="575.43"/><line class="cls-1" x1="158.84" y1="552.6" x2="158.84" y2="571.09"/><line class="cls-1" x1="303.03" y1="553.08" x2="303.03" y2="571.09"/><line class="cls-1" x1="115.71" y1="549.7" x2="152.06" y2="549.7"/><line class="cls-1" x1="308.96" y1="549.39" x2="345.34" y2="549.39"/><line class="cls-1" x1="172.34" y1="692.65" x2="279.4" y2="692.65"/><line class="cls-1" x1="168.22" y1="701.67" x2="280.84" y2="701.67"/><line class="cls-1" x1="175.66" y1="773.58" x2="278.35" y2="773.58"/><line class="cls-1" x1="172.34" y1="707.95" x2="172.34" y2="771.04"/><line class="cls-1" x1="176.65" y1="707.95" x2="279.4" y2="707.95"/><line class="cls-1" x1="182.53" y1="712.07" x2="182.53" y2="749.42"/><line class="cls-1" x1="201.95" y1="712.07" x2="201.95" y2="749.42"/><line class="cls-1" x1="221.21" y1="712.07" x2="221.21" y2="749.42"/><line class="cls-1" x1="248.42" y1="712.07" x2="248.42" y2="749.42"/><line class="cls-1" x1="267.84" y1="712.07" x2="267.84" y2="749.42"/><line class="cls-1" x1="279.4" y1="756.69" x2="176.7" y2="756.69"/><path class="cls-1" d="M231,689.14s2-1.33,13.45-1.33c7.69,0,11.56,1.13,11.56,1.13"/><path class="cls-1" d="M231.54,677.16s2.05-1.34,13.45-1.34c8.41,0,10.84.94,10.84.94"/><line class="cls-1" x1="234.27" y1="679.45" x2="234.27" y2="684.91"/><line class="cls-1" x1="239.44" y1="679.14" x2="239.44" y2="684.6"/><line class="cls-1" x1="246.06" y1="679.14" x2="246.06" y2="684.6"/><line class="cls-1" x1="252.1" y1="679.45" x2="252.1" y2="684.91"/><path class="cls-1" d="M170.82,243.93c0-27.66,23.83-50.09,53.21-50.09s53.22,22.43,53.22,50.09"/><path class="cls-1" d="M160.59,254.64S172.8,243,225,242.48s61,12.16,61,12.16"/><path class="cls-1" d="M155.21,265.36s5.61-12.55,69.79-12.78,67.38,12.78,67.38,12.78"/><line class="cls-1" x1="159.24" y1="270.23" x2="159.24" y2="286.32"/><line class="cls-1" x1="169.06" y1="265.36" x2="169.06" y2="283.59"/><line class="cls-1" x1="184.31" y1="260.83" x2="184.31" y2="281.1"/><line class="cls-1" x1="205.41" y1="258.97" x2="205.41" y2="279.22"/><line class="cls-1" x1="229.44" y1="258.97" x2="229.44" y2="279.22"/><line class="cls-1" x1="252.21" y1="258.97" x2="252.21" y2="280.05"/><line class="cls-1" x1="271.01" y1="262.09" x2="271.01" y2="282.35"/><line class="cls-1" x1="282.51" y1="266.68" x2="282.51" y2="284.65"/><line class="cls-1" x1="288.35" y1="270.23" x2="288.35" y2="287.57"/><line class="cls-1" x1="163.66" y1="266.68" x2="163.66" y2="285.4"/><line class="cls-1" x1="175.65" y1="262.28" x2="176.18" y2="281.68"/><line class="cls-1" x1="194.74" y1="258.97" x2="194.74" y2="279.67"/><line class="cls-1" x1="217.32" y1="258.25" x2="217.32" y2="279.22"/><line class="cls-1" x1="241.08" y1="258.97" x2="241.08" y2="279.22"/><line class="cls-1" x1="262.39" y1="260.83" x2="262.39" y2="281.1"/><line class="cls-1" x1="276.91" y1="263.97" x2="276.91" y2="283.48"/><path class="cls-1" d="M145.72,294.3s7.26-10.71,77.56-10.82c77.23-.11,78,11.09,78,11.09"/><path class="cls-1" d="M142.82,302.94s3.69-13.18,86.62-13.18c71.85,0,73.23,13.18,73.23,13.18"/><line class="cls-1" x1="148.84" y1="308.13" x2="148.84" y2="340.47"/><line class="cls-1" x1="152.98" y1="306.45" x2="152.98" y2="339.18"/><line class="cls-1" x1="159.24" y1="304.12" x2="159.24" y2="337.5"/><line class="cls-1" x1="167.6" y1="302.31" x2="167.6" y2="336.08"/><line class="cls-1" x1="177.69" y1="300.63" x2="177.69" y2="334.78"/><line class="cls-1" x1="189.72" y1="299.6" x2="189.72" y2="333.36"/><line class="cls-1" x1="202.66" y1="298.43" x2="202.66" y2="332.58"/><line class="cls-1" x1="216.63" y1="298.43" x2="216.63" y2="332.58"/><line class="cls-1" x1="230.73" y1="298.43" x2="230.73" y2="332.58"/><line class="cls-1" x1="244.32" y1="298.43" x2="244.32" y2="333.36"/><line class="cls-1" x1="257.38" y1="299.6" x2="257.38" y2="333.36"/><line class="cls-1" x1="269.15" y1="300.63" x2="269.15" y2="334.78"/><line class="cls-1" x1="279.5" y1="302.94" x2="279.5" y2="335.43"/><line class="cls-1" x1="287.65" y1="304.25" x2="287.65" y2="337.24"/><line class="cls-1" x1="293.99" y1="306.32" x2="293.99" y2="338.79"/><line class="cls-1" x1="298.26" y1="308.26" x2="298.26" y2="340.09"/><path class="cls-1" d="M143.78,345.82s17.38-10,81.22-10.39,77.72,10.39,77.72,10.39"/><path class="cls-1" d="M175.65,242.47s11.91-7.32,49.35-7.73,48.41,7.73,48.41,7.73"/><path class="cls-1" d="M202.92,191.74s7.73-3.35,21.61-3.55,19.21,3.55,19.21,3.55"/><path class="cls-1" d="M209.82,184.65s1.73-3,14-3,12.84,3,12.84,3"/><path class="cls-1" d="M209.82,158.51s1.09-5,14.21-4.78,13.23,4.16,13.23,4.16"/><line class="cls-1" x1="216.07" y1="161.11" x2="216.07" y2="178.67"/><line class="cls-1" x1="220.12" y1="160.49" x2="220.12" y2="177.94"/><line class="cls-1" x1="225.83" y1="160.49" x2="225.83" y2="177.94"/><line class="cls-1" x1="230.61" y1="161.73" x2="230.61" y2="178.67"/><path class="cls-1" d="M215,151.45s2.27-4.47,8.51-4.57,8.22,4.57,8.22,4.57"/><line class="cls-1" x1="223.54" y1="142.79" x2="223.54" y2="120.53"/><line class="cls-1" x1="280.24" y1="904.02" x2="173.18" y2="904.02"/><line class="cls-1" x1="284.36" y1="913.04" x2="171.74" y2="913.04"/><line class="cls-1" x1="276.92" y1="984.94" x2="174.23" y2="984.94"/><line class="cls-1" x1="280.24" y1="919.32" x2="280.24" y2="982.41"/><line class="cls-1" x1="275.93" y1="919.32" x2="173.18" y2="919.32"/><line class="cls-1" x1="270.05" y1="923.43" x2="270.05" y2="960.79"/><line class="cls-1" x1="250.63" y1="923.43" x2="250.63" y2="960.79"/><line class="cls-1" x1="231.37" y1="923.43" x2="231.37" y2="960.79"/><line class="cls-1" x1="204.16" y1="923.43" x2="204.16" y2="960.79"/><line class="cls-1" x1="184.75" y1="923.43" x2="184.75" y2="960.79"/><line class="cls-1" x1="173.18" y1="968.06" x2="275.89" y2="968.06"/><path class="cls-1" d="M196.18,900.44s2-1.34,13.45-1.34c7.69,0,11.57,1.13,11.57,1.13"/><path class="cls-1" d="M196.76,888.45s2.06-1.34,13.46-1.34c8.4,0,10.83.94,10.83.94"/><line class="cls-1" x1="199.49" y1="890.74" x2="199.49" y2="896.2"/><line class="cls-1" x1="204.66" y1="890.43" x2="204.66" y2="895.89"/><line class="cls-1" x1="211.28" y1="890.43" x2="211.28" y2="895.89"/><line class="cls-1" x1="217.32" y1="890.74" x2="217.32" y2="896.2"/><path class="cls-2" d="M462.79,245.47c0-27.66,23.82-50.08,53.21-50.08s53.21,22.42,53.21,50.08"/><path class="cls-2" d="M452.56,256.19S464.76,244.54,517,244s61,12.16,61,12.16"/><path class="cls-2" d="M447.17,266.91s5.61-12.55,69.79-12.78,67.38,12.78,67.38,12.78"/><line class="cls-2" x1="451.21" y1="271.78" x2="451.21" y2="287.87"/><line class="cls-2" x1="461.02" y1="266.91" x2="461.02" y2="285.14"/><line class="cls-2" x1="476.28" y1="262.38" x2="476.28" y2="282.65"/><line class="cls-2" x1="497.38" y1="260.52" x2="497.38" y2="280.77"/><line class="cls-2" x1="521.4" y1="260.52" x2="521.4" y2="280.77"/><line class="cls-2" x1="544.17" y1="260.52" x2="544.17" y2="281.6"/><line class="cls-2" x1="562.98" y1="263.63" x2="562.98" y2="283.9"/><line class="cls-2" x1="574.47" y1="268.23" x2="574.47" y2="286.2"/><line class="cls-2" x1="580.32" y1="271.78" x2="580.32" y2="289.12"/><line class="cls-2" x1="455.62" y1="268.23" x2="455.62" y2="286.95"/><line class="cls-2" x1="467.62" y1="263.83" x2="468.15" y2="283.23"/><line class="cls-2" x1="486.7" y1="260.52" x2="486.7" y2="281.21"/><line class="cls-2" x1="509.29" y1="259.8" x2="509.29" y2="280.77"/><line class="cls-2" x1="533.04" y1="260.52" x2="533.04" y2="280.77"/><line class="cls-2" x1="554.35" y1="262.38" x2="554.35" y2="282.65"/><line class="cls-2" x1="568.87" y1="265.52" x2="568.87" y2="285.03"/><path class="cls-2" d="M437.68,295.84s7.26-10.7,77.56-10.81c77.23-.11,78,11.09,78,11.09"/><path class="cls-2" d="M434.79,304.49s3.68-13.18,86.61-13.18c71.85,0,73.23,13.18,73.23,13.18"/><line class="cls-2" x1="440.81" y1="309.68" x2="440.81" y2="342.02"/><line class="cls-2" x1="444.94" y1="308" x2="444.94" y2="340.73"/><line class="cls-2" x1="451.21" y1="305.67" x2="451.21" y2="339.05"/><line class="cls-2" x1="459.56" y1="303.86" x2="459.56" y2="337.62"/><line class="cls-2" x1="469.65" y1="302.18" x2="469.65" y2="336.33"/><line class="cls-2" x1="481.68" y1="301.14" x2="481.68" y2="334.91"/><line class="cls-2" x1="494.62" y1="299.98" x2="494.62" y2="334.13"/><line class="cls-2" x1="508.59" y1="299.98" x2="508.59" y2="334.13"/><line class="cls-2" x1="522.69" y1="299.98" x2="522.69" y2="334.13"/><line class="cls-2" x1="536.28" y1="299.98" x2="536.28" y2="334.91"/><line class="cls-2" x1="549.34" y1="301.14" x2="549.34" y2="334.91"/><line class="cls-2" x1="561.12" y1="302.18" x2="561.12" y2="336.33"/><line class="cls-2" x1="571.46" y1="304.49" x2="571.46" y2="336.98"/><line class="cls-2" x1="579.61" y1="305.8" x2="579.61" y2="338.79"/><line class="cls-2" x1="585.95" y1="307.87" x2="585.95" y2="340.34"/><line class="cls-2" x1="590.22" y1="309.81" x2="590.22" y2="341.63"/><path class="cls-2" d="M435.74,347.37s17.38-10,81.22-10.39,77.73,10.39,77.73,10.39"/><path class="cls-2" d="M467.62,244s11.91-7.32,49.34-7.73S565.37,244,565.37,244"/><path class="cls-2" d="M494.88,193.29s7.73-3.35,21.61-3.55,19.21,3.55,19.21,3.55"/><path class="cls-2" d="M501.79,186.19s1.72-2.95,14-2.95,12.84,2.95,12.84,2.95"/><path class="cls-2" d="M501.79,160.06s1.08-5,14.21-4.78,13.22,4.16,13.22,4.16"/><line class="cls-2" x1="508.03" y1="162.66" x2="508.03" y2="180.22"/><line class="cls-2" x1="512.08" y1="162.04" x2="512.08" y2="179.49"/><line class="cls-2" x1="517.8" y1="162.04" x2="517.8" y2="179.49"/><line class="cls-2" x1="522.57" y1="163.28" x2="522.57" y2="180.22"/><path class="cls-2" d="M507,153a9.65,9.65,0,0,1,8.51-4.58c6.24-.1,8.22,4.58,8.22,4.58"/><line class="cls-2" x1="515.5" y1="144.34" x2="515.5" y2="122.08"/><path class="cls-3" d="M767,245.47c0-27.66,23.82-50.08,53.21-50.08s53.21,22.42,53.21,50.08"/><path class="cls-3" d="M756.73,256.19s12.21-11.65,64.41-12.16,61,12.16,61,12.16"/><path class="cls-3" d="M751.35,266.91s5.6-12.55,69.79-12.78,67.37,12.78,67.37,12.78"/><line class="cls-3" x1="755.38" y1="271.78" x2="755.38" y2="287.87"/><line class="cls-3" x1="765.2" y1="266.91" x2="765.2" y2="285.14"/><line class="cls-3" x1="780.45" y1="262.38" x2="780.45" y2="282.65"/><line class="cls-3" x1="801.55" y1="260.52" x2="801.55" y2="280.77"/><line class="cls-3" x1="825.57" y1="260.52" x2="825.57" y2="280.77"/><line class="cls-3" x1="848.35" y1="260.52" x2="848.35" y2="281.6"/><line class="cls-3" x1="867.15" y1="263.63" x2="867.15" y2="283.9"/><line class="cls-3" x1="878.64" y1="268.23" x2="878.64" y2="286.2"/><line class="cls-3" x1="884.49" y1="271.78" x2="884.49" y2="289.12"/><line class="cls-3" x1="759.79" y1="268.23" x2="759.79" y2="286.95"/><line class="cls-3" x1="771.79" y1="263.83" x2="772.32" y2="283.23"/><line class="cls-3" x1="790.87" y1="260.52" x2="790.87" y2="281.21"/><line class="cls-3" x1="813.46" y1="259.8" x2="813.46" y2="280.77"/><line class="cls-3" x1="837.21" y1="260.52" x2="837.21" y2="280.77"/><line class="cls-3" x1="858.52" y1="262.38" x2="858.52" y2="282.65"/><line class="cls-3" x1="873.05" y1="265.52" x2="873.05" y2="285.03"/><path class="cls-3" d="M741.85,295.84s7.27-10.7,77.57-10.81c77.22-.11,78,11.09,78,11.09"/><path class="cls-3" d="M739,304.49s3.68-13.18,86.61-13.18c71.85,0,73.23,13.18,73.23,13.18"/><line class="cls-3" x1="744.98" y1="309.68" x2="744.98" y2="342.02"/><line class="cls-3" x1="749.12" y1="308" x2="749.12" y2="340.73"/><line class="cls-3" x1="755.38" y1="305.67" x2="755.38" y2="339.05"/><line class="cls-3" x1="763.74" y1="303.86" x2="763.74" y2="337.62"/><line class="cls-3" x1="773.83" y1="302.18" x2="773.83" y2="336.33"/><line class="cls-3" x1="785.86" y1="301.14" x2="785.86" y2="334.91"/><line class="cls-3" x1="798.79" y1="299.98" x2="798.79" y2="334.13"/><line class="cls-3" x1="812.76" y1="299.98" x2="812.76" y2="334.13"/><line class="cls-3" x1="826.87" y1="299.98" x2="826.87" y2="334.13"/><line class="cls-3" x1="840.45" y1="299.98" x2="840.45" y2="334.91"/><line class="cls-3" x1="853.52" y1="301.14" x2="853.52" y2="334.91"/><line class="cls-3" x1="865.29" y1="302.18" x2="865.29" y2="336.33"/><line class="cls-3" x1="875.64" y1="304.49" x2="875.64" y2="336.98"/><line class="cls-3" x1="883.79" y1="305.8" x2="883.79" y2="338.79"/><line class="cls-3" x1="890.13" y1="307.87" x2="890.13" y2="340.34"/><line class="cls-3" x1="894.39" y1="309.81" x2="894.39" y2="341.63"/><path class="cls-3" d="M739.91,347.37s17.38-10,81.23-10.39,77.72,10.39,77.72,10.39"/><path class="cls-3" d="M771.79,244s11.91-7.32,49.35-7.73,48.4,7.73,48.4,7.73"/><path class="cls-3" d="M799.06,193.29s7.73-3.35,21.61-3.55,19.2,3.55,19.2,3.55"/><path class="cls-3" d="M806,186.19s1.72-2.95,14-2.95,12.84,2.95,12.84,2.95"/><path class="cls-3" d="M806,160.06s1.09-5,14.21-4.78,13.23,4.16,13.23,4.16"/><line class="cls-3" x1="812.2" y1="162.66" x2="812.2" y2="180.22"/><line class="cls-3" x1="816.25" y1="162.04" x2="816.25" y2="179.49"/><line class="cls-3" x1="821.97" y1="162.04" x2="821.97" y2="179.49"/><line class="cls-3" x1="826.75" y1="163.28" x2="826.75" y2="180.22"/><path class="cls-3" d="M811.16,153a9.66,9.66,0,0,1,8.52-4.58c6.24-.1,8.21,4.58,8.21,4.58"/><line class="cls-3" x1="819.68" y1="144.34" x2="819.68" y2="122.08"/><line class="cls-2" x1="397.84" y1="478.38" x2="637.38" y2="478.38"/><line class="cls-2" x1="394.16" y1="487.57" x2="439.88" y2="487.57"/><line class="cls-2" x1="443.98" y1="485.17" x2="592.44" y2="485.17"/><line class="cls-2" x1="594.42" y1="488.07" x2="641.43" y2="488.07"/><line class="cls-2" x1="464.55" y1="470.18" x2="571.09" y2="470.18"/><line class="cls-2" x1="448.05" y1="493.06" x2="588.17" y2="493.06"/><line class="cls-2" x1="450.03" y1="497" x2="450.03" y2="538.99"/><line class="cls-2" x1="457.84" y1="497" x2="457.84" y2="538.99"/><line class="cls-2" x1="478.91" y1="497" x2="478.91" y2="538.99"/><line class="cls-2" x1="486.72" y1="497" x2="486.72" y2="538.99"/><line class="cls-2" x1="549.32" y1="497" x2="549.32" y2="538.99"/><line class="cls-2" x1="557.12" y1="497" x2="557.12" y2="538.99"/><line class="cls-2" x1="578.04" y1="497" x2="578.04" y2="538.99"/><line class="cls-2" x1="585.84" y1="497" x2="585.84" y2="538.99"/><line class="cls-2" x1="507.79" y1="497" x2="507.79" y2="538.99"/><line class="cls-2" x1="528.55" y1="497" x2="528.55" y2="538.99"/><line class="cls-2" x1="443.98" y1="545.55" x2="591.25" y2="545.55"/><line class="cls-2" x1="637.38" y1="572.71" x2="637.38" y2="493.06"/><line class="cls-2" x1="403.72" y1="572.71" x2="630.33" y2="572.71"/><line class="cls-2" x1="397.84" y1="497" x2="397.84" y2="572.71"/><line class="cls-2" x1="445.9" y1="549.87" x2="445.9" y2="568.36"/><line class="cls-2" x1="590.09" y1="550.36" x2="590.09" y2="568.36"/><line class="cls-2" x1="402.78" y1="546.97" x2="439.12" y2="546.97"/><line class="cls-2" x1="596.02" y1="546.67" x2="632.4" y2="546.67"/><line class="cls-3" x1="702.01" y1="478.38" x2="941.55" y2="478.38"/><line class="cls-3" x1="698.33" y1="487.57" x2="744.05" y2="487.57"/><line class="cls-3" x1="748.15" y1="485.17" x2="896.61" y2="485.17"/><line class="cls-3" x1="898.59" y1="488.07" x2="945.6" y2="488.07"/><line class="cls-3" x1="768.72" y1="470.18" x2="875.27" y2="470.18"/><line class="cls-3" x1="752.23" y1="493.06" x2="892.34" y2="493.06"/><line class="cls-3" x1="754.21" y1="497" x2="754.21" y2="538.99"/><line class="cls-3" x1="762.01" y1="497" x2="762.01" y2="538.99"/><line class="cls-3" x1="783.09" y1="497" x2="783.09" y2="538.99"/><line class="cls-3" x1="790.89" y1="497" x2="790.89" y2="538.99"/><line class="cls-3" x1="853.49" y1="497" x2="853.49" y2="538.99"/><line class="cls-3" x1="861.29" y1="497" x2="861.29" y2="538.99"/><line class="cls-3" x1="882.21" y1="497" x2="882.21" y2="538.99"/><line class="cls-3" x1="890.02" y1="497" x2="890.02" y2="538.99"/><line class="cls-3" x1="811.97" y1="497" x2="811.97" y2="538.99"/><line class="cls-3" x1="832.73" y1="497" x2="832.73" y2="538.99"/><line class="cls-3" x1="748.15" y1="545.55" x2="895.43" y2="545.55"/><line class="cls-3" x1="941.55" y1="572.71" x2="941.55" y2="493.06"/><line class="cls-3" x1="707.9" y1="572.71" x2="934.51" y2="572.71"/><line class="cls-3" x1="702.01" y1="497" x2="702.01" y2="572.71"/><line class="cls-3" x1="750.07" y1="549.87" x2="750.07" y2="568.36"/><line class="cls-3" x1="894.26" y1="550.36" x2="894.26" y2="568.36"/><line class="cls-3" x1="706.95" y1="546.97" x2="743.29" y2="546.97"/><line class="cls-3" x1="900.2" y1="546.67" x2="936.58" y2="546.67"/><line class="cls-2" x1="462.51" y1="692.65" x2="569.58" y2="692.65"/><line class="cls-2" x1="458.4" y1="701.67" x2="571.02" y2="701.67"/><line class="cls-2" x1="465.83" y1="773.58" x2="568.53" y2="773.58"/><line class="cls-2" x1="462.51" y1="707.95" x2="462.51" y2="771.04"/><line class="cls-2" x1="466.83" y1="707.95" x2="569.58" y2="707.95"/><line class="cls-2" x1="472.71" y1="712.07" x2="472.71" y2="749.42"/><line class="cls-2" x1="492.12" y1="712.07" x2="492.12" y2="749.42"/><line class="cls-2" x1="511.39" y1="712.07" x2="511.39" y2="749.42"/><line class="cls-2" x1="538.6" y1="712.07" x2="538.6" y2="749.42"/><line class="cls-2" x1="558.01" y1="712.07" x2="558.01" y2="749.42"/><line class="cls-2" x1="569.58" y1="756.69" x2="466.87" y2="756.69"/><path class="cls-2" d="M521.13,689.14s2.06-1.33,13.45-1.33c7.69,0,11.57,1.13,11.57,1.13"/><path class="cls-2" d="M521.72,677.16s2-1.34,13.45-1.34c8.4,0,10.83.94,10.83.94"/><line class="cls-2" x1="524.45" y1="679.45" x2="524.45" y2="684.91"/><line class="cls-2" x1="529.61" y1="679.14" x2="529.61" y2="684.6"/><line class="cls-2" x1="536.23" y1="679.14" x2="536.23" y2="684.6"/><line class="cls-2" x1="542.27" y1="679.45" x2="542.27" y2="684.91"/><line class="cls-3" x1="764.06" y1="692.65" x2="871.13" y2="692.65"/><line class="cls-3" x1="759.94" y1="701.67" x2="872.57" y2="701.67"/><line class="cls-3" x1="767.38" y1="773.58" x2="870.07" y2="773.58"/><line class="cls-3" x1="764.06" y1="707.95" x2="764.06" y2="771.04"/><line class="cls-3" x1="768.37" y1="707.95" x2="871.13" y2="707.95"/><line class="cls-3" x1="774.26" y1="712.07" x2="774.26" y2="749.42"/><line class="cls-3" x1="793.67" y1="712.07" x2="793.67" y2="749.42"/><line class="cls-3" x1="812.93" y1="712.07" x2="812.93" y2="749.42"/><line class="cls-3" x1="840.14" y1="712.07" x2="840.14" y2="749.42"/><line class="cls-3" x1="859.56" y1="712.07" x2="859.56" y2="749.42"/><line class="cls-3" x1="871.13" y1="756.69" x2="768.42" y2="756.69"/><path class="cls-3" d="M822.68,689.14s2.05-1.33,13.45-1.33c7.69,0,11.56,1.13,11.56,1.13"/><path class="cls-3" d="M823.26,677.16s2-1.34,13.45-1.34c8.41,0,10.84.94,10.84.94"/><line class="cls-3" x1="825.99" y1="679.45" x2="825.99" y2="684.91"/><line class="cls-3" x1="831.16" y1="679.14" x2="831.16" y2="684.6"/><line class="cls-3" x1="837.78" y1="679.14" x2="837.78" y2="684.6"/><line class="cls-3" x1="843.82" y1="679.45" x2="843.82" y2="684.91"/><line class="cls-2" x1="575.91" y1="910.1" x2="468.84" y2="910.1"/><line class="cls-2" x1="580.03" y1="919.12" x2="467.4" y2="919.12"/><line class="cls-2" x1="572.59" y1="991.03" x2="469.9" y2="991.03"/><line class="cls-2" x1="575.91" y1="925.4" x2="575.91" y2="988.49"/><line class="cls-2" x1="571.6" y1="925.4" x2="468.84" y2="925.4"/><line class="cls-2" x1="565.71" y1="929.52" x2="565.71" y2="966.87"/><line class="cls-2" x1="546.3" y1="929.52" x2="546.3" y2="966.87"/><line class="cls-2" x1="527.04" y1="929.52" x2="527.04" y2="966.87"/><line class="cls-2" x1="499.83" y1="929.52" x2="499.83" y2="966.87"/><line class="cls-2" x1="480.41" y1="929.52" x2="480.41" y2="966.87"/><line class="cls-2" x1="468.84" y1="974.14" x2="571.55" y2="974.14"/><path class="cls-2" d="M491.85,906.52s2-1.34,13.45-1.34c7.69,0,11.56,1.13,11.56,1.13"/><path class="cls-2" d="M492.43,894.53s2.05-1.33,13.45-1.33c8.41,0,10.84.93,10.84.93"/><line class="cls-2" x1="495.16" y1="896.82" x2="495.16" y2="902.28"/><line class="cls-2" x1="500.33" y1="896.52" x2="500.33" y2="901.97"/><line class="cls-2" x1="506.95" y1="896.52" x2="506.95" y2="901.97"/><line class="cls-2" x1="512.99" y1="896.82" x2="512.99" y2="902.28"/><line class="cls-3" x1="877.77" y1="904.02" x2="770.7" y2="904.02"/><line class="cls-3" x1="881.89" y1="913.04" x2="769.26" y2="913.04"/><line class="cls-3" x1="874.45" y1="984.94" x2="771.75" y2="984.94"/><line class="cls-3" x1="877.77" y1="919.32" x2="877.77" y2="982.41"/><line class="cls-3" x1="873.45" y1="919.32" x2="770.7" y2="919.32"/><line class="cls-3" x1="867.57" y1="923.43" x2="867.57" y2="960.79"/><line class="cls-3" x1="848.16" y1="923.43" x2="848.16" y2="960.79"/><line class="cls-3" x1="828.89" y1="923.43" x2="828.89" y2="960.79"/><line class="cls-3" x1="801.68" y1="923.43" x2="801.68" y2="960.79"/><line class="cls-3" x1="782.27" y1="923.43" x2="782.27" y2="960.79"/><line class="cls-3" x1="770.7" y1="968.06" x2="873.41" y2="968.06"/><path class="cls-3" d="M793.7,900.44s2.06-1.34,13.45-1.34c7.69,0,11.57,1.13,11.57,1.13"/><path class="cls-3" d="M794.29,888.45s2.05-1.34,13.45-1.34c8.4,0,10.84.94,10.84.94"/><line class="cls-3" x1="797.02" y1="890.74" x2="797.02" y2="896.2"/><line class="cls-3" x1="802.18" y1="890.43" x2="802.18" y2="895.89"/><line class="cls-3" x1="808.8" y1="890.43" x2="808.8" y2="895.89"/><line class="cls-3" x1="814.84" y1="890.74" x2="814.84" y2="896.2"/></svg>