<svg id="Layer_1" data-name="Layer 1" xmlns="http://www.w3.org/2000/svg" viewBox="0 0 1080 1080"><defs><style>.cls-1{fill:#3689d1;}.cls-2{fill:#ee8b8b;}.cls-3{fill:#666;}.cls-4{fill:#111;}.cls-10,.cls-12,.cls-13,.cls-15,.cls-16,.cls-5,.cls-7,.cls-8{fill:none;}.cls-11,.cls-13,.cls-14,.cls-16,.cls-5,.cls-6,.cls-8{stroke:#000;}.cls-10,.cls-11,.cls-12,.cls-13,.cls-14,.cls-15,.cls-16,.cls-5,.cls-6,.cls-7,.cls-8{stroke-miterlimit:10;}.cls-10,.cls-5{stroke-width:4.7px;}.cls-11,.cls-14,.cls-6,.cls-9{fill:#fff;}.cls-11,.cls-12,.cls-13,.cls-14,.cls-15,.cls-16,.cls-6,.cls-7,.cls-8{stroke-linecap:round;}.cls-6{stroke-width:1.64px;}.cls-12,.cls-15,.cls-7{stroke:#f2f2f2;}.cls-7{stroke-width:1.56px;}.cls-8{stroke-width:1.1px;}.cls-10{stroke:#fff;}.cls-11{stroke-width:2.66px;}.cls-12{stroke-width:2.53px;}.cls-13{stroke-width:1.79px;}.cls-14{stroke-width:2.73px;}.cls-15{stroke-width:2.6px;}.cls-16{stroke-width:1.84px;}.cls-17{fill:#eaeaea;}</style></defs><rect class="cls-1" x="72.42" y="127.66" width="116.13" height="116.13"/><rect class="cls-2" x="245.8" y="127.66" width="116.13" height="116.13"/><rect class="cls-3" x="419.18" y="127.66" width="116.13" height="116.13"/><rect class="cls-4" x="592.56" y="127.66" width="116.13" height="116.13"/><path d="M81.24,432.59v-1.08h2l-1.8-5.11H74.9l-1.75,5.11h0v1.08H69.77v-1.08h2.06l4.9-14.14.36-1.08H81.7v1.08h-2l5,14.14h2v1.08Zm-3-15.8-2.93,8.52h5.83Z"/><path d="M94.92,432.59V431a7.2,7.2,0,0,1-2,1.29,5.49,5.49,0,0,1-2.09.48,3.41,3.41,0,0,1-2.52-1,3.24,3.24,0,0,1-1-2.37,3.14,3.14,0,0,1,1.15-2.5,4.59,4.59,0,0,1,3.1-1,6.75,6.75,0,0,1,1.58.22,7.05,7.05,0,0,1,1.8.72v-2.69a2,2,0,0,0-.82-1.78,4,4,0,0,0-2.2-.55,3.51,3.51,0,0,0-.81.1c-.3.06-.57.13-.83.2l-.91.28-.31-.75,1-.36c.29-.09.61-.18,1-.25a4.89,4.89,0,0,1,1-.11,5.34,5.34,0,0,1,3.15.79,2.82,2.82,0,0,1,1.08,2.43v7.37h1.89v1.08Zm0-4.76a7.56,7.56,0,0,0-1.49-.72,5.19,5.19,0,0,0-1.68-.28,3.36,3.36,0,0,0-2.35.76,2.49,2.49,0,0,0-.84,1.9,2.2,2.2,0,0,0,.67,1.61,2.54,2.54,0,0,0,1.87.69,4.45,4.45,0,0,0,2-.52,6,6,0,0,0,1.78-1.35Z"/><path d="M115.37,431.39a6.68,6.68,0,0,1-4.2,1.2l-4.37,0V417.37h-2.09v-1.08h6.46a5.41,5.41,0,0,1,3.6,1.08,3.81,3.81,0,0,1,1.29,3.1,3.38,3.38,0,0,1-.67,2.2,3.76,3.76,0,0,1-1.8,1.28,4.5,4.5,0,0,1,2.42,1.44,3.86,3.86,0,0,1,.87,2.54A4.15,4.15,0,0,1,115.37,431.39Zm-1.64-13.2a3.92,3.92,0,0,0-2.64-.82h-3v6.17h2.74a4.33,4.33,0,0,0,2.78-.84,2.75,2.75,0,0,0,1.06-2.28A2.77,2.77,0,0,0,113.73,418.19Zm.65,7.29a5.44,5.44,0,0,0-3.29-.86h-3v6.89h2.91a5.35,5.35,0,0,0,3.28-.89,3.06,3.06,0,0,0,1.2-2.59A2.94,2.94,0,0,0,114.38,425.48Z"/><path d="M129,431.07a5.54,5.54,0,0,1-4.2,1.68,4.94,4.94,0,0,1-2.23-.52,5.52,5.52,0,0,1-2.07-1.92v2.28h-1.24V417.37h-2.07v-1.08h3.31v7.3a5,5,0,0,1,4.42-2.67,5.48,5.48,0,0,1,4.08,1.63,5.65,5.65,0,0,1,1.61,4.16A6,6,0,0,1,129,431.07Zm-.89-7.75a4.34,4.34,0,0,0-6.31,0,4.77,4.77,0,0,0-1.32,3.48,5,5,0,0,0,1.27,3.58,4.15,4.15,0,0,0,3.15,1.34,4,4,0,0,0,3.19-1.39,5.17,5.17,0,0,0,1.25-3.58A4.89,4.89,0,0,0,128.06,423.32Z"/><path d="M151.73,431.53a8.1,8.1,0,0,1-4.54,1.3,7.81,7.81,0,0,1-5.88-2.31,9.28,9.28,0,0,1,0-12.14,7.79,7.79,0,0,1,5.86-2.35,8.21,8.21,0,0,1,3.16.69,7,7,0,0,1,2.79,2.24v-1.23h1.1v3.77h-1.13a4.68,4.68,0,0,0-2.13-3.15,7,7,0,0,0-3.84-1.15,6.32,6.32,0,0,0-4.83,2,8,8,0,0,0,0,10.39,6.36,6.36,0,0,0,4.89,2,6.55,6.55,0,0,0,3.89-1.15,8,8,0,0,0,2.62-3.87l1.1.65A8.48,8.48,0,0,1,151.73,431.53Z"/><path d="M164.3,432a5.08,5.08,0,0,1-3,.88,5.24,5.24,0,0,1-4.06-1.68,6.13,6.13,0,0,1-1.56-4.32,6.19,6.19,0,0,1,1.56-4.27,5,5,0,0,1,3.91-1.73,4.44,4.44,0,0,1,2.11.48,3.93,3.93,0,0,1,1.52,1.37V422h1v3.59h-1a3.26,3.26,0,0,0-1.16-2.63,3.94,3.94,0,0,0-2.47-.87,3.77,3.77,0,0,0-3,1.35,5.82,5.82,0,0,0,0,7.05,4,4,0,0,0,3.17,1.34,3.77,3.77,0,0,0,2.4-.74,4.81,4.81,0,0,0,1.49-2l1,.44A5.45,5.45,0,0,1,164.3,432Z"/><path d="M186.91,430.14q-1.95,2.44-6.79,2.45h-4.71V417.37h-2.25v-1.08h7c3,0,5.15.75,6.55,2.26a8.26,8.26,0,0,1,2.14,5.9A9,9,0,0,1,186.91,430.14Zm-1.3-10.92a7.4,7.4,0,0,0-5.35-1.85h-3.5v14.14h3.55a7.39,7.39,0,0,0,5.35-1.78,7.09,7.09,0,0,0,1.83-5.28A7,7,0,0,0,185.61,419.22Z"/><path d="M200.16,432.59v-2.26a5.2,5.2,0,0,1-2,1.87,5.58,5.58,0,0,1-6.38-1.1,5.81,5.81,0,0,1-1.61-4.18,6.09,6.09,0,0,1,1.56-4.29,5.2,5.2,0,0,1,4-1.71,5.43,5.43,0,0,1,2.4.58,5.52,5.52,0,0,1,2.07,2.09v-7.3h1.25v15.22h2.06v1.08Zm-1.27-9.22a4.15,4.15,0,0,0-3.17-1.41,3.93,3.93,0,0,0-3.12,1.41,5.22,5.22,0,0,0-1.27,3.55,4.91,4.91,0,0,0,1.27,3.41,4.15,4.15,0,0,0,3.17,1.39,4,4,0,0,0,3.16-1.37,5.43,5.43,0,0,0,0-7Z"/><path d="M212,432.59V417.37H209.9v-1.08h13v4h-1.08v-2.88h-8.52v6.34h6.77v1.08h-6.77v6.72H223v1.08Z"/><path d="M223.27,427.19a5.06,5.06,0,0,0,1.37,3.31,4.56,4.56,0,0,0,3.45,1.42,3.33,3.33,0,0,0,.86-.13c.32-.08.63-.16.92-.25s.64-.21,1.06-.37l.28.91q-.69.27-1.2.42c-.33.11-.69.2-1.08.29a4.46,4.46,0,0,1-1,.13,5.64,5.64,0,0,1-4.2-1.7,6.44,6.44,0,0,1,0-8.59,5.49,5.49,0,0,1,4.15-1.71,5.29,5.29,0,0,1,4,1.66,7,7,0,0,1,1.68,4.61Zm7.51-4.06a4.2,4.2,0,0,0-3.05-1.15,4.12,4.12,0,0,0-3.21,1.42,4.89,4.89,0,0,0-1.2,2.71h8.88A5,5,0,0,0,230.78,423.13Z"/><path d="M252,420.27v-2.9h-7.87v6.29h6v1.1l-6,0v7.85h-3.46v-1.08h2.12V417.37h-2.12v-1.08H253.1v4Z"/><path d="M258.67,418.48a1.92,1.92,0,0,0-.55-1,1.47,1.47,0,0,0-1-.36,1.4,1.4,0,0,0-1.13.45,2.13,2.13,0,0,0-.41,1.4v2.27h2.24v1.08h-2.24v9.2h2.24v1.08h-3.46v-1.08h0v-9.2h-1.76v-1.08h1.76v-2a3.4,3.4,0,0,1,.76-2.3,2.63,2.63,0,0,1,2-.86,2.34,2.34,0,0,1,1.8.69,2.82,2.82,0,0,1,.84,1.59Z"/><path d="M279.48,430.76a8.28,8.28,0,0,1-5.79,2.07,8.37,8.37,0,0,1-6.09-2.35,8.09,8.09,0,0,1-2.38-6.05,8.19,8.19,0,0,1,2.33-6,7.79,7.79,0,0,1,5.83-2.4,8.25,8.25,0,0,1,3.58.81,7.57,7.57,0,0,1,2.73,2.26v-1.61h1.08v4.13h-1.08a5.62,5.62,0,0,0-2.42-3.27,7.11,7.11,0,0,0-3.86-1.15,6.45,6.45,0,0,0-4.92,2,7.35,7.35,0,0,0-1.92,5.21,7.1,7.1,0,0,0,2,5.18,6.93,6.93,0,0,0,5.16,2,7.22,7.22,0,0,0,4.41-1.39,5.57,5.57,0,0,0,2.21-3.94h-6.72v-1.08h8.11A7.29,7.29,0,0,1,279.48,430.76Z"/><path d="M294.21,422.31v10.54a4.68,4.68,0,0,1-1.6,3.72,6.13,6.13,0,0,1-4.16,1.39,5.45,5.45,0,0,1-1.06-.11c-.41-.07-.75-.14-1-.2a3,3,0,0,1-.45-.12l.29-1.08.89.19.77.13a5.2,5.2,0,0,0,3.86-.94A3.51,3.51,0,0,0,293,433v-2.88a4.84,4.84,0,0,1-2,2,5.52,5.52,0,0,1-2.52.62,5.45,5.45,0,0,1-4-1.63,5.59,5.59,0,0,1-1.61-4.1,6.14,6.14,0,0,1,1.64-4.32,5.26,5.26,0,0,1,6.31-1.22,6.16,6.16,0,0,1,2.21,2.23v-2.48h3.33v1.08Zm-2.54,1.13A4.2,4.2,0,0,0,288.5,422a4.07,4.07,0,0,0-3.14,1.42,5.15,5.15,0,0,0-1.27,3.5,4.8,4.8,0,0,0,1.22,3.43,4.2,4.2,0,0,0,3.19,1.35,4.16,4.16,0,0,0,3.17-1.37,4.78,4.78,0,0,0,1.3-3.41A5,5,0,0,0,291.67,423.44Z"/><path d="M316.17,417.37v15.22h-3.43v-1.08h2.09v-6.92h-8.9v8h-3.32v-1.08h2V417.37h-2v-1.08h3.34v7.25h8.9v-6.17h-2.11v-1.08h5.42v1.08Z"/><path d="M329.28,432.59V424a2,2,0,0,0-.51-1.46,1.92,1.92,0,0,0-1.46-.53,4.8,4.8,0,0,0-2.16.58,7.64,7.64,0,0,0-2,1.39v7.49H325v1.08h-3.07v-1.08h-.05V417.37H319.8v-1.08h3.31v6.48a8.37,8.37,0,0,1,2.06-1.34,5.47,5.47,0,0,1,2.31-.51,3.15,3.15,0,0,1,2.21.79,3,3,0,0,1,.83,2.19v7.61h1.83v1.08Z"/><path d="M339.14,432.59v-1.08h2V416.29h1.34v15.22h2.07v1.08Zm2-17.52v-1.54h1.34v1.54Z"/><path d="M346.58,432.59v-1.08h0v-9.2h-2v-1.08h3.24v10.28h1.95v1.08Zm.94-14.91a.92.92,0,0,1-.68.29.9.9,0,0,1-.67-.29.92.92,0,0,1-.29-.67,1,1,0,0,1,.29-.7.92.92,0,0,1,.67-.28,1,1,0,0,1,1,1A.94.94,0,0,1,347.52,417.68Z"/><path d="M360,417.37v16.37a3.93,3.93,0,0,1-1,2.95,4.09,4.09,0,0,1-3,1l.05-1.15a2.75,2.75,0,0,0,2-.58,2.83,2.83,0,0,0,.6-2V417.37h-2.45v-1.08h6.12v1.08Z"/><path d="M365.4,436.59a3.28,3.28,0,0,1-1.19.71,4.14,4.14,0,0,1-1.62.21v-1.08a2.52,2.52,0,0,0,1.14-.14,2.12,2.12,0,0,0,.78-.51,3.09,3.09,0,0,0,.6-2.09V422.31H363v-1.08h3.34V434A3.34,3.34,0,0,1,365.4,436.59Zm.67-18.91a.9.9,0,0,1-.67.29.92.92,0,0,1-.68-.29.91.91,0,0,1-.28-.67,1,1,0,0,1,.28-.7.94.94,0,0,1,.68-.28.92.92,0,0,1,.67.28,1,1,0,0,1,.29.68A.94.94,0,0,1,366.07,417.68Z"/><path d="M376.72,432.59V417.37h-2.16v-1.08h5.74v1.08h-2.23v14.14h2.25v1.08Zm9.22,0-.94-1.08L378.24,424l6.76-6.65,1.08-1.08h2.24v1.08h-1.76L380,423.9l6.94,7.61h1.75v1.08Z"/><path d="M399.57,432.59l-6.72-5.86v4.78h2.09v1.08h-3.31v-1.08h0V417.37h-2.08v-1.08h3.33v10c.51-.33,1.1-.73,1.77-1.19l2-1.34,1.84-1.26,1.34-.94.53-.36h1.54v1.08H400.6l-6.21,4.25,5.9,4.95H402v1.08Z"/><path d="M408.09,432.59v-1.08h2.21V417.37h-2.21v-1.08h3.58v1.08h0v14.14h6.72v-4.2h1.3v5.28Z"/><path d="M421.05,432.59V417.37H419v-1.08h3.31v15.22h2v1.08Z"/><path d="M447.24,432.59V417l-6.39,15.6h-.26l-6.34-15.65v14.57h1.95v1.08h-3.08V417.37H431v-1.08h4.18L440.83,430l5.59-13.66h4.2v1.08h-2v14.14h2v1.08Z"/><path d="M467.25,432.59V424a2.09,2.09,0,0,0-.48-1.46,1.87,1.87,0,0,0-1.42-.53,4.71,4.71,0,0,0-2.11.55,8.68,8.68,0,0,0-2,1.51v8.48H460V424a2.09,2.09,0,0,0-.48-1.46,1.83,1.83,0,0,0-1.44-.53,4.47,4.47,0,0,0-2.09.58,8.41,8.41,0,0,0-2,1.39v7.49h1.87v1.08h-3.12V422.31h-2.07v-1.08H454v1.54a7.44,7.44,0,0,1,2-1.34,5.29,5.29,0,0,1,2.23-.51,3.24,3.24,0,0,1,1.85.51,2.65,2.65,0,0,1,1.08,1.53,6.94,6.94,0,0,1,2-1.39,5.16,5.16,0,0,1,2.35-.65,3.19,3.19,0,0,1,2.26.79,3,3,0,0,1,.84,2.19v7.61h1.77v1.08Z"/><path d="M85,446.17V461.6H83.69l-9.82-15v13.75h2.31v1.08H72.74V446.17H70.56v-1.08H74.4c.78,1.25,1.57,2.48,2.35,3.69s1.57,2.39,2.35,3.56,1.6,2.38,2.38,3.59,1.57,2.43,2.35,3.68V445.09h3.24v1.08Z"/><path d="M96.41,461.39v-8.55a2,2,0,0,0-.51-1.46,1.89,1.89,0,0,0-1.44-.53,4.8,4.8,0,0,0-2.16.58,8.61,8.61,0,0,0-2,1.39v7.49h1.85v1.08H89V451.12H87V450h3.31v1.53a8.37,8.37,0,0,1,2.06-1.34,5.41,5.41,0,0,1,2.28-.51,3.08,3.08,0,0,1,2.19.8,2.94,2.94,0,0,1,.84,2.18v7.61h1.8v1.08Z"/><path d="M120.81,459.23a8.43,8.43,0,0,1-11.76,0,8.31,8.31,0,0,1-2.32-6,8.18,8.18,0,0,1,2.32-6,8.44,8.44,0,0,1,11.76,0,8.28,8.28,0,0,1,2.33,6A8.15,8.15,0,0,1,120.81,459.23Zm-.93-11.16a7,7,0,0,0-9.87,0,7.31,7.31,0,0,0-1.94,5.19,7.2,7.2,0,0,0,1.94,5.16,6.5,6.5,0,0,0,4.93,2.06,6.39,6.39,0,0,0,4.91-2,7.87,7.87,0,0,0,0-10.34Z"/><path d="M135,460a5.38,5.38,0,0,1-4.05,1.72,5.26,5.26,0,0,1-4-1.72,6.06,6.06,0,0,1-1.64-4.28,6,6,0,0,1,1.61-4.27,5.59,5.59,0,0,1,8.09,0,6.45,6.45,0,0,1,0,8.55Zm-.88-7.76a4.11,4.11,0,0,0-3.17-1.39,4.05,4.05,0,0,0-3.15,1.37,5.06,5.06,0,0,0-1.24,3.5,5,5,0,0,0,1.22,3.48,4.07,4.07,0,0,0,3.17,1.4,4,4,0,0,0,3.14-1.37,5.56,5.56,0,0,0,0-7Z"/><path d="M154.89,453.37a5.32,5.32,0,0,1-3.76,1.3h-3.72v6.72H143.9v-1.08h2.16V446.17H143.9v-1.08h7a5.89,5.89,0,0,1,4,1.25,5,5,0,0,1,0,7Zm-1-6.29a5,5,0,0,0-3.28-.91h-3.24v7.42h3.24a5,5,0,0,0,3.19-.89A3.24,3.24,0,0,0,155,450,3.73,3.73,0,0,0,153.93,447.08Z"/><path d="M168.43,460a5.19,5.19,0,0,1-4,1.7,5.42,5.42,0,0,1-2.38-.55,4.5,4.5,0,0,1-2-2.09v6.32h2.06v1.08h-3.31V451.12h-1.92V450H160v2.3a5.09,5.09,0,0,1,4.44-2.62,5.11,5.11,0,0,1,3.94,1.68,6,6,0,0,1,1.58,4.25A6.22,6.22,0,0,1,168.43,460Zm-.84-7.82a4.36,4.36,0,0,0-6.36-.05,4.93,4.93,0,0,0-1.25,3.53,5.1,5.1,0,0,0,1.27,3.55,4.13,4.13,0,0,0,3.17,1.37,4.08,4.08,0,0,0,3.19-1.37,5,5,0,0,0,1.23-3.51A5,5,0,0,0,167.59,452.2Z"/><path d="M192.31,459.25a8,8,0,0,1-5.45,2.38,6.39,6.39,0,0,1,.84.33l1.38.65,1.39.69.88.44-.65,1q-.37-.24-1.2-.66c-.54-.28-1.11-.54-1.7-.8s-1.15-.48-1.68-.67a4.05,4.05,0,0,0-1.13-.29,2.38,2.38,0,0,0-.53.05l-.53.12a3.74,3.74,0,0,0-1,.53l-.5-.72a2.28,2.28,0,0,1,.57-.36c.21-.1.43-.19.65-.27a6.52,6.52,0,0,1,1.08-.19,7.93,7.93,0,0,1-4.15-2.21,8.31,8.31,0,0,1-2.33-6,8.19,8.19,0,0,1,2.33-6,7.84,7.84,0,0,1,5.88-2.4,8,8,0,0,1,5.88,2.37,9,9,0,0,1,0,12.05Zm-.94-11.18a6.94,6.94,0,0,0-9.86,0,7.27,7.27,0,0,0-1.94,5.19,7.16,7.16,0,0,0,1.94,5.16,6.5,6.5,0,0,0,4.92,2.06,6.4,6.4,0,0,0,4.92-2,7.89,7.89,0,0,0,0-10.34Z"/><path d="M207.21,451v15.51H204V465.4h2v-6.29a4.57,4.57,0,0,1-1.9,2,5.63,5.63,0,0,1-6.48-1.11,6.2,6.2,0,0,1-1.56-4.36,6,6,0,0,1,1.58-4.23,5.17,5.17,0,0,1,4-1.73,5.54,5.54,0,0,1,2.36.58,5.1,5.1,0,0,1,2,2v-2.38h3.36V451Zm-2.4,1.18a4,4,0,0,0-3.12-1.35,4.11,4.11,0,0,0-3.21,1.37,5.08,5.08,0,0,0-1.27,3.53,5.23,5.23,0,0,0,1.2,3.53,4,4,0,0,0,3.16,1.37,4.22,4.22,0,0,0,3.2-1.35,5.13,5.13,0,0,0,1.27-3.57A5,5,0,0,0,204.81,452.15Z"/><path d="M226.37,461.39l-3.68-8.14h-3.6v8.16h-1.34V446.17h-2.4v-1.08h8a4.57,4.57,0,0,1,3.16,1.11,3.54,3.54,0,0,1,1.25,2.8,4.08,4.08,0,0,1-.89,2.67,4.89,4.89,0,0,1-2.85,1.46l3.26,7.18h2.09v1.08Zm-.84-14.4a3.47,3.47,0,0,0-2.45-.82h-4v6h3.56a4.38,4.38,0,0,0,2.78-.77,3,3,0,0,0,.1-4.41Z"/><path d="M237.77,450.92a5.37,5.37,0,0,0-3.63,1,4.11,4.11,0,0,0-1.17,3.26v5.09h2.32v1.08h-3.57V451.12h-2.16V450H233v2a3.82,3.82,0,0,1,.2-.33,4.94,4.94,0,0,1,.54-.7,2.73,2.73,0,0,1,.77-.62,4.43,4.43,0,0,1,.72-.32,7,7,0,0,1,.85-.23l.89-.13a4.67,4.67,0,0,1,.83,0l.45,0v1.2Z"/><path d="M255,460.33a5.46,5.46,0,0,1-3.72,1.3,5.82,5.82,0,0,1-2.59-.6,4.88,4.88,0,0,1-1.11-.77,5.07,5.07,0,0,1-.88-1.06v2.19h-1.1V455.8h1.1v.57A3.74,3.74,0,0,0,248,459.2a4.61,4.61,0,0,0,3.27,1.25,4.07,4.07,0,0,0,2.76-1,3.17,3.17,0,0,0,1.1-2.5,2.57,2.57,0,0,0-1-2.16,10,10,0,0,0-3.6-1.41,8.28,8.28,0,0,1-3.72-1.68,3.66,3.66,0,0,1-1.18-2.91A3.57,3.57,0,0,1,247,446a5.14,5.14,0,0,1,3.39-1.15,9.87,9.87,0,0,1,1.22.07,4.17,4.17,0,0,1,1.15.31q.56.27,1,.51a3.61,3.61,0,0,1,.86.72,5.05,5.05,0,0,1,.42.51,4.65,4.65,0,0,1,.32.57,2.5,2.5,0,0,1,.24.81c.05.32.08.59.1.79s0,.33,0,.36h-1.27v-.31a2.61,2.61,0,0,0,0-.5,3,3,0,0,0-.18-.66,5.41,5.41,0,0,0-.33-.69,2.17,2.17,0,0,0-.52-.57,3,3,0,0,0-1.39-.61,9.6,9.6,0,0,0-1.66-.14,3.63,3.63,0,0,0-2.44.82,2.58,2.58,0,0,0-1,2,2.38,2.38,0,0,0,1.06,2.11,8.81,8.81,0,0,0,2.88,1.15,10.47,10.47,0,0,1,4.49,1.92,4.33,4.33,0,0,1-.32,6.29Z"/><path d="M266.21,460.81a5,5,0,0,1-3.15.94,4.64,4.64,0,0,1-1.94-.39,3.6,3.6,0,0,1-1.56-1.41v1.44h-1.11v-3.94h1.11a3.2,3.2,0,0,0,1,2.45,3.78,3.78,0,0,0,2.62.89,3.66,3.66,0,0,0,2.16-.65,2,2,0,0,0,.91-1.68,1.71,1.71,0,0,0-.69-1.51,6.38,6.38,0,0,0-2.6-.84,7.2,7.2,0,0,1-2.95-1,2.49,2.49,0,0,1-.93-2.16,2.86,2.86,0,0,1,1-2.33,3.82,3.82,0,0,1,2.54-.87,4.05,4.05,0,0,1,1.75.36,3.9,3.9,0,0,1,1.4,1.18v-.89h1.05v3.24H265.8a2.71,2.71,0,0,0-.91-2,3.17,3.17,0,0,0-2.21-.81,2.49,2.49,0,0,0-1.8.62,1.91,1.91,0,0,0-.67,1.49,1.55,1.55,0,0,0,.62,1.37,7.43,7.43,0,0,0,2.42.74,7,7,0,0,1,3.31,1.22,2.86,2.86,0,0,1,.8,2.14A3,3,0,0,1,266.21,460.81Z"/><path d="M286.56,448.31v-2.14h-4.71v15.22h-3.57v-1.08h2.23V446.17h-4.7v4.06H274.7v-5.14h13v3.22Z"/><path d="M291.12,461.65a2,2,0,0,1-1.54-.53,2.26,2.26,0,0,1-.5-1.6v-8.4h-2V450h2v-2.55l1.25,0V450h2.37v1.08h-2.37v8.16a1.46,1.46,0,0,0,.24,1,1,1,0,0,0,.79.28l1.34-.21v1.08Z"/><path d="M312.55,446.17v10.35a4.89,4.89,0,0,1-1.44,3.79,5.85,5.85,0,0,1-4.13,1.32,6,6,0,0,1-4.13-1.3,4.88,4.88,0,0,1-1.46-3.81V446.17H299.3v-1.08h5.5v1.08h-2.07v10.49a3.48,3.48,0,0,0,1.11,2.81,4.61,4.61,0,0,0,3.12,1,4.71,4.71,0,0,0,3.16-.93,3.5,3.5,0,0,0,1.09-2.81V445.09h3.43v1.08Z"/><path d="M323.81,461.39v-1.61a5.21,5.21,0,0,1-.92.68q-.5.3-1.05.57a5.71,5.71,0,0,1-2.43.53,2.85,2.85,0,0,1-2.11-.75,2.71,2.71,0,0,1-.79-2.09v-7.6h-2V450h3.24v8.47a2,2,0,0,0,.48,1.41,1.86,1.86,0,0,0,1.39.51,4.72,4.72,0,0,0,2.21-.6,8.47,8.47,0,0,0,2-1.44V450h1.24v10.27h2v1.08Z"/><path d="M347.4,446.17l-5.64,15.39h-1.13l-5.83-15.39h-2.11v-1.08h3.11l.37,1.08,5.13,13.44,4.95-13.44h-2v-1.08h5.26v1.08Z"/><path d="M358.27,451.12l-3.84,10.44h-1.15l-4-10.44H347.4V450h4.7v1.08h-1.56l3.29,8.85,3.26-8.85.41-1.08H360v1.08Z"/><path d="M387.09,446.17l-4.44,15.39h-1l-4.32-15.75-4.06,15.75h-1.1l-4.61-15.39h-2v-1.08h3.12l.29,1.08,3.88,13.56,3.48-13.56.24-1.08h1.71l.31,1.08,3.7,13.56L386,446.17h-2.08v-1.08h5.25v1.08Z"/><path d="M403.89,451.12l-3.38,10.44h-1.15l-3-10-2.85,10h-1.23l-3.24-10.44H387.6V450H390l.31,1.08,2.62,8.54,2.71-8.54h-1.32V450h4.29v1.08h-1.27l2.62,8.3,2.78-8.3L403,450h2.5v1.08Z"/><path d="M423.79,461.39l-.65-1.08h0l-3.84-6.1-3.82,6.1h2.14v1.08h-5.74v-1.08h2.26l4.48-7.13-4.48-7h-2.26v-1.08h3.07l.72,1.08,3.63,5.76,3.67-5.76h-2v-1.08h5.47v1.08h-2.15L420,453l4.68,7.35h2.28v1.08Z"/><path d="M437.64,461.39l-.82-1.08h-.05l-3.19-3.91-2.95,3.91h1.49v1.08H428.4l.84-1.08,3.64-4.78-3.52-4.41h-1.47V450h4.23v1.08h-1.35l2.81,3.52,2.76-3.52h-1.22V450h4.17v1.08h-1.53l-3.46,4.41,3.86,4.78h1.42v1.08Z"/><path d="M459,446.17,454,454v7.35h-3.6v-1.08h2.26V454l-5-7.87h-2.11v-1.08h3l.67,1.08h0l4.22,6.7,4.25-6.7h-2.11v-1.08h5.35v1.08Z"/><path d="M469,451.12l-5.81,15.36H462l1.92-5.4-4.08-10H458V450h2.69l.41,1.08,3.45,8.44,3.2-8.44H466V450h4.72v1.08Z"/><path d="M477.36,461.39v-1.08l10-14.14h-9.46v-1.08H489v1.06l-10,14.16h9.15v-3.12h1.1v4.2Z"/><path d="M491.76,460.31h7v-3.07h1v4.15h-9.36v-1.08l8-9.19H491V450h8.81v1Z"/><path d="M97.3,382v-23.4L87.72,382h-.39l-9.51-23.47v21.85h2.92V382H76.13V359.14H73v-1.62h6.27L87.69,378l8.38-20.48h6.3v1.62H99.31v21.2h3.06V382Z"/><path d="M115.15,382v-2.41a10.83,10.83,0,0,1-3,1.95,8.41,8.41,0,0,1-3.13.71,5.12,5.12,0,0,1-3.78-1.47,4.88,4.88,0,0,1-1.51-3.57,4.71,4.71,0,0,1,1.72-3.74,6.9,6.9,0,0,1,4.65-1.51,10.79,10.79,0,0,1,2.37.32,11.2,11.2,0,0,1,2.7,1.08v-4a2.91,2.91,0,0,0-1.22-2.66,6,6,0,0,0-3.31-.83,6.25,6.25,0,0,0-1.21.14c-.44.1-.86.2-1.24.31l-1.37.41-.47-1.11c.56-.22,1-.4,1.48-.54a12.14,12.14,0,0,1,1.42-.38,7,7,0,0,1,1.46-.16,7.94,7.94,0,0,1,4.72,1.18,4.23,4.23,0,0,1,1.62,3.64v11h2.84V382Zm0-7.13a11.17,11.17,0,0,0-2.23-1.08,7.94,7.94,0,0,0-2.52-.43,5,5,0,0,0-3.53,1.16,3.68,3.68,0,0,0-1.26,2.84,3.3,3.3,0,0,0,1,2.41,3.78,3.78,0,0,0,2.81,1,6.64,6.64,0,0,0,3.06-.79,8.75,8.75,0,0,0,2.66-2Z"/><path d="M123,382v-1.62h0V366.55h-3v-1.61h4.86v15.4h2.92V382Zm1.4-22.35a1.44,1.44,0,0,1-2.45-1,1.43,1.43,0,0,1,2.45-1.05,1.39,1.39,0,0,1,.43,1A1.43,1.43,0,0,1,124.37,359.61Z"/><path d="M142.51,382V369.15a3,3,0,0,0-.75-2.2,2.85,2.85,0,0,0-2.16-.79,7.34,7.34,0,0,0-3.24.86,13,13,0,0,0-3,2.09v11.23h2.77V382h-4.64V366.55h-3.09v-1.61h5v2.3a13,13,0,0,1,3.1-2,8.18,8.18,0,0,1,3.42-.75,4.58,4.58,0,0,1,3.27,1.18,4.47,4.47,0,0,1,1.27,3.28v11.41h2.69V382Z"/><path d="M177.25,359.14V382H172.1v-1.62h3.14V370H161.88v12h-5v-1.62h3v-21.2h-3v-1.62h5v10.87h13.36v-9.25h-3.17v-1.62h8.14v1.62Z"/><path d="M182.4,373.86a7.54,7.54,0,0,0,2,5,6.83,6.83,0,0,0,5.19,2.13,5.14,5.14,0,0,0,1.28-.19c.49-.11,1-.24,1.38-.37s1-.32,1.58-.56l.44,1.37q-1,.39-1.8.63c-.51.15-1.05.3-1.62.43a7.24,7.24,0,0,1-1.55.2,8.39,8.39,0,0,1-6.3-2.56,8.78,8.78,0,0,1-2.49-6.44A9,9,0,0,1,183,367a8.28,8.28,0,0,1,6.23-2.55,7.87,7.87,0,0,1,6,2.48,10.44,10.44,0,0,1,2.52,6.91Zm11.27-6.08a6.35,6.35,0,0,0-4.57-1.73,6.22,6.22,0,0,0-4.83,2.12,7.62,7.62,0,0,0-1.8,4.07h13.32A7.55,7.55,0,0,0,193.67,367.78Z"/><path d="M209.94,382v-2.41a11,11,0,0,1-3,1.95,8.46,8.46,0,0,1-3.14.71,5.15,5.15,0,0,1-3.78-1.47,4.92,4.92,0,0,1-1.51-3.57,4.72,4.72,0,0,1,1.73-3.74,6.87,6.87,0,0,1,4.64-1.51,10.8,10.8,0,0,1,2.38.32,11.2,11.2,0,0,1,2.7,1.08v-4a2.93,2.93,0,0,0-1.22-2.66,6,6,0,0,0-3.32-.83,6.07,6.07,0,0,0-1.2.14c-.45.1-.86.2-1.24.31l-1.37.41-.47-1.11c.55-.22,1-.4,1.48-.54a11.63,11.63,0,0,1,1.42-.38,6.93,6.93,0,0,1,1.46-.16,7.91,7.91,0,0,1,4.71,1.18,4.23,4.23,0,0,1,1.62,3.64v11h2.85V382Zm0-7.13a11.17,11.17,0,0,0-2.23-1.08,7.94,7.94,0,0,0-2.52-.43,5,5,0,0,0-3.53,1.16,3.68,3.68,0,0,0-1.26,2.84,3.3,3.3,0,0,0,1,2.41,3.77,3.77,0,0,0,2.81,1,6.7,6.7,0,0,0,3.06-.79,8.88,8.88,0,0,0,2.66-2Z"/><path d="M230,382v-3.38a7.9,7.9,0,0,1-3,2.81,8.17,8.17,0,0,1-3.56.82,8,8,0,0,1-6-2.48,8.7,8.7,0,0,1-2.41-6.26,9.21,9.21,0,0,1,2.34-6.45,7.8,7.8,0,0,1,6-2.55,8.19,8.19,0,0,1,3.6.86,8.29,8.29,0,0,1,3.1,3.13V357.52h1.87v22.82H235V382Zm-1.91-13.82a6.19,6.19,0,0,0-4.75-2.13,5.89,5.89,0,0,0-4.68,2.13,7.85,7.85,0,0,0-1.91,5.33,7.4,7.4,0,0,0,1.91,5.11,6.24,6.24,0,0,0,4.75,2.09,6.08,6.08,0,0,0,4.75-2.06,7.55,7.55,0,0,0,1.87-5.25A7.42,7.42,0,0,0,228.12,368.14Z"/><path d="M238,382v-1.62h0V366.55h-3v-1.61h4.86v15.4h2.92V382Zm1.41-22.35a1.44,1.44,0,0,1-2.45-1,1.43,1.43,0,0,1,2.45-1.05,1.39,1.39,0,0,1,.43,1A1.43,1.43,0,0,1,239.39,359.61Z"/><path d="M257.53,382V369.15a3,3,0,0,0-.75-2.2,2.85,2.85,0,0,0-2.16-.79,7.34,7.34,0,0,0-3.24.86,13,13,0,0,0-3,2.09v11.23h2.77V382h-4.64V366.55h-3.1v-1.61h5v2.3a12.8,12.8,0,0,1,3.1-2,8.18,8.18,0,0,1,3.42-.75,4.58,4.58,0,0,1,3.27,1.18,4.46,4.46,0,0,1,1.26,3.28v11.41h2.7V382Z"/><path d="M279.78,366.55v15.81a7,7,0,0,1-2.41,5.58,9.68,9.68,0,0,1-7.83,1.92c-.61-.1-1.12-.21-1.51-.3l-.67-.18.43-1.62,1.33.29,1.16.2a8.71,8.71,0,0,0,1,.08,7.21,7.21,0,0,0,4.75-1.51,5.21,5.21,0,0,0,1.84-4.28v-4.32a7.21,7.21,0,0,1-3,3.06,8.37,8.37,0,0,1-3.78.93,8.18,8.18,0,0,1-6-2.44,8.41,8.41,0,0,1-2.41-6.16,9.25,9.25,0,0,1,2.45-6.48,7.89,7.89,0,0,1,6-2.66,8,8,0,0,1,3.46.82,9.49,9.49,0,0,1,3.31,3.35v-3.7h5v1.61Zm-3.82,1.7a6.28,6.28,0,0,0-4.75-2.16,6.06,6.06,0,0,0-4.71,2.12,7.73,7.73,0,0,0-1.91,5.26,7.25,7.25,0,0,0,1.83,5.14,6.31,6.31,0,0,0,4.79,2,6.2,6.2,0,0,0,4.75-2.05,7.13,7.13,0,0,0,2-5.11A7.52,7.52,0,0,0,276,368.25Z"/><path d="M283.88,372.93v-1.62h9.87v1.62Z"/><path d="M326,359.14v23.15h-1.9l-14.73-22.58v20.63h3.46V382h-5.15V359.14H304.4v-1.62h5.76q1.77,2.81,3.53,5.52c1.18,1.82,2.35,3.6,3.53,5.35s2.39,3.57,3.56,5.38,2.36,3.66,3.53,5.53V357.52h4.86v1.62Z"/><path d="M333.42,382v-1.62h0V366.55h-3v-1.61h4.86v15.4h2.91V382Zm1.4-22.35a1.35,1.35,0,0,1-1,.43,1.37,1.37,0,0,1-1-.43,1.39,1.39,0,0,1-.43-1,1.43,1.43,0,0,1,.43-1.05,1.41,1.41,0,0,1,1-.43,1.49,1.49,0,0,1,1.44,1.44A1.44,1.44,0,0,1,334.82,359.61Z"/><path d="M341.92,382V359.14h-3.1v-1.62h5v22.82h3.06V382Z"/><path d="M350.56,382V359.14h-3.1v-1.62h5v22.82h3.06V382Z"/><path d="M368.27,382v-2.41a11,11,0,0,1-3,1.95,8.37,8.37,0,0,1-3.13.71,5.15,5.15,0,0,1-3.78-1.47,4.88,4.88,0,0,1-1.51-3.57,4.72,4.72,0,0,1,1.73-3.74,6.86,6.86,0,0,1,4.64-1.51,11,11,0,0,1,2.38.32,11.36,11.36,0,0,1,2.7,1.08v-4a2.92,2.92,0,0,0-1.23-2.66,6,6,0,0,0-3.31-.83,6.07,6.07,0,0,0-1.2.14c-.45.1-.86.2-1.25.31l-1.36.41-.47-1.11q.82-.33,1.47-.54a12.32,12.32,0,0,1,1.43-.38,6.91,6.91,0,0,1,1.45-.16,7.92,7.92,0,0,1,4.72,1.18,4.23,4.23,0,0,1,1.62,3.64v11H373V382Zm0-7.13a11.44,11.44,0,0,0-2.23-1.08,8,8,0,0,0-2.52-.43,5,5,0,0,0-3.53,1.16,3.68,3.68,0,0,0-1.26,2.84,3.26,3.26,0,0,0,1,2.41,3.76,3.76,0,0,0,2.8,1,6.64,6.64,0,0,0,3.06-.79,8.93,8.93,0,0,0,2.67-2Z"/><path d="M387.78,382V369.15A3,3,0,0,0,387,367a2.82,2.82,0,0,0-2.16-.79,7.41,7.41,0,0,0-3.24.86,13.12,13.12,0,0,0-3,2.09v11.23h2.77V382h-4.64V366.55h-3.1v-1.61h5v2.3a12.8,12.8,0,0,1,3.1-2,8.18,8.18,0,0,1,3.42-.75,4.58,4.58,0,0,1,3.27,1.18,4.46,4.46,0,0,1,1.26,3.28v11.41h2.7V382Z"/><path d="M408,382v-3.38a8,8,0,0,1-3,2.81,8.17,8.17,0,0,1-3.56.82,8,8,0,0,1-6-2.48,8.7,8.7,0,0,1-2.42-6.26A9.21,9.21,0,0,1,395.3,367a7.84,7.84,0,0,1,6-2.55,8.19,8.19,0,0,1,3.6.86,8.36,8.36,0,0,1,3.1,3.13V357.52h1.87v22.82h3.09V382Zm-1.91-13.82a6.19,6.19,0,0,0-4.75-2.13,5.89,5.89,0,0,0-4.68,2.13,7.8,7.8,0,0,0-1.91,5.33,7.35,7.35,0,0,0,1.91,5.11,6.24,6.24,0,0,0,4.75,2.09,6.08,6.08,0,0,0,4.75-2.06,7.55,7.55,0,0,0,1.87-5.25A7.47,7.47,0,0,0,406.07,368.14Z"/><path d="M438.68,382l-5.5-12.2h-5.4V382h-2V359.14h-3.6v-1.62h12a7,7,0,0,1,4.76,1.65,5.42,5.42,0,0,1,1.87,4.22,6.12,6.12,0,0,1-1.33,4,7.36,7.36,0,0,1-4.29,2.2l4.9,10.76h3.13V382Zm-1.26-21.6a5.23,5.23,0,0,0-3.67-1.22h-6v9h5.32a6.66,6.66,0,0,0,4.18-1.15,4.09,4.09,0,0,0,1.51-3.42A4,4,0,0,0,437.42,360.36Z"/><path d="M445.09,373.86a7.59,7.59,0,0,0,2.05,5,6.85,6.85,0,0,0,5.19,2.13,5.14,5.14,0,0,0,1.28-.19c.49-.11.95-.24,1.38-.37s1-.32,1.59-.56l.43,1.37q-1,.39-1.8.63c-.51.15-1,.3-1.62.43a7.16,7.16,0,0,1-1.55.2,8.4,8.4,0,0,1-6.3-2.56,8.78,8.78,0,0,1-2.48-6.44A9,9,0,0,1,445.7,367a8.28,8.28,0,0,1,6.23-2.55,7.87,7.87,0,0,1,6,2.48,10.44,10.44,0,0,1,2.52,6.91Zm11.27-6.08a6.34,6.34,0,0,0-4.57-1.73,6.24,6.24,0,0,0-4.83,2.12,7.62,7.62,0,0,0-1.8,4.07h13.32A7.49,7.49,0,0,0,456.36,367.78Z"/><path d="M480.19,366.55v15.81a7,7,0,0,1-2.41,5.58,9.68,9.68,0,0,1-7.83,1.92c-.61-.1-1.12-.21-1.51-.3l-.67-.18.43-1.62c.53.12,1,.22,1.34.29l1.15.2a8.71,8.71,0,0,0,1,.08,7.21,7.21,0,0,0,4.75-1.51,5.21,5.21,0,0,0,1.84-4.28v-4.32a7.21,7.21,0,0,1-3,3.06,8.36,8.36,0,0,1-3.77.93,8.18,8.18,0,0,1-6-2.44,8.45,8.45,0,0,1-2.41-6.16,9.25,9.25,0,0,1,2.45-6.48,7.89,7.89,0,0,1,6-2.66,8,8,0,0,1,3.46.82,9.49,9.49,0,0,1,3.31,3.35v-3.7h5v1.61Zm-3.81,1.7a6.31,6.31,0,0,0-4.76-2.16,6.06,6.06,0,0,0-4.71,2.12,7.73,7.73,0,0,0-1.91,5.26,7.25,7.25,0,0,0,1.83,5.14,6.31,6.31,0,0,0,4.79,2,6.24,6.24,0,0,0,4.76-2.05,7.16,7.16,0,0,0,1.94-5.11A7.55,7.55,0,0,0,476.38,368.25Z"/><path d="M499.74,382v-2.41a7.79,7.79,0,0,1-1.37,1c-.5.3-1,.58-1.58.84a8.45,8.45,0,0,1-3.64.79A4.31,4.31,0,0,1,490,381.1a4.09,4.09,0,0,1-1.19-3.13V366.55h-3v-1.61h4.86v12.7a3.05,3.05,0,0,0,.72,2.13,2.82,2.82,0,0,0,2.08.75,7.06,7.06,0,0,0,3.32-.9,12.47,12.47,0,0,0,2.95-2.16V364.94h1.87v15.4h2.95V382Z"/><path d="M508.23,382V359.14h-3.09v-1.62h5v22.82h3.06V382Z"/><path d="M526,382v-2.41a11,11,0,0,1-3,1.95,8.37,8.37,0,0,1-3.13.71,5.12,5.12,0,0,1-3.78-1.47,4.88,4.88,0,0,1-1.51-3.57,4.69,4.69,0,0,1,1.73-3.74,6.86,6.86,0,0,1,4.64-1.51,11,11,0,0,1,2.38.32,11.53,11.53,0,0,1,2.7,1.08v-4a2.92,2.92,0,0,0-1.23-2.66,6,6,0,0,0-3.31-.83,6.25,6.25,0,0,0-1.21.14c-.44.1-.85.2-1.24.31l-1.37.41-.46-1.11q.82-.33,1.47-.54a12.14,12.14,0,0,1,1.42-.38,7.08,7.08,0,0,1,1.46-.16,7.92,7.92,0,0,1,4.72,1.18,4.23,4.23,0,0,1,1.62,3.64v11h2.84V382Zm0-7.13a11.25,11.25,0,0,0-2.24-1.08,7.94,7.94,0,0,0-2.52-.43,5,5,0,0,0-3.52,1.16,3.68,3.68,0,0,0-1.26,2.84,3.29,3.29,0,0,0,1,2.41,3.8,3.8,0,0,0,2.81,1,6.64,6.64,0,0,0,3.06-.79,8.93,8.93,0,0,0,2.67-2Z"/><path d="M542.79,366.27c-2.44,0-4.26.51-5.43,1.54s-1.77,2.67-1.77,4.9v7.63h3.5V382h-5.37V366.55h-3.24v-1.61h5.11v3s.13-.22.31-.5a8.37,8.37,0,0,1,.81-1,3.93,3.93,0,0,1,1.15-.93,6.85,6.85,0,0,1,1.08-.47,7.77,7.77,0,0,1,1.28-.34c.44-.09.89-.15,1.33-.2a7.58,7.58,0,0,1,1.24,0l.69,0v1.8Z"/><path d="M101.94,277.49H99.7L99,281.1H97.67l.71-3.61H96.3v-1.23h2.32l.6-3.05H97V272h2.49l.73-3.66h1.32l-.72,3.66H103l.72-3.66h1.33l-.72,3.66h1.75v1.25h-2l-.59,3.05h1.92v1.23h-2.17l-.7,3.61h-1.34Zm-2-1.23h2.24l.6-3.05h-2.24Z"/><path d="M112,273.82a2,2,0,0,0,1.64-.57,2.48,2.48,0,0,0,.48-1.62,2.29,2.29,0,0,0-.53-1.56,2,2,0,0,0-1.55-.59,2.31,2.31,0,0,0-1.65.62,2,2,0,0,0-.66,1.55h-1.65l0,0a3.07,3.07,0,0,1,1.09-2.46,4.19,4.19,0,0,1,2.9-1,4.08,4.08,0,0,1,2.8.9,3.37,3.37,0,0,1,1,2.65,3,3,0,0,1-.47,1.63,3.1,3.1,0,0,1-1.32,1.15,3,3,0,0,1,1.48,1.18,3.49,3.49,0,0,1,.5,1.9,3.54,3.54,0,0,1-1.11,2.76,4.17,4.17,0,0,1-2.89,1,4.58,4.58,0,0,1-2.88-1,3,3,0,0,1-1.19-2.54v-.06h1.65a2.07,2.07,0,0,0,.68,1.57,2.39,2.39,0,0,0,1.73.64,2.13,2.13,0,0,0,1.66-.66,2.37,2.37,0,0,0,.61-1.71,2.57,2.57,0,0,0-.56-1.8,2.27,2.27,0,0,0-1.75-.59h-1.42v-1.35Z"/><path d="M122.67,268.12a7.46,7.46,0,0,1,1.49.15,5.55,5.55,0,0,1,1.22.37L125,270a5.88,5.88,0,0,0-1.05-.35,5,5,0,0,0-1.29-.14,2.32,2.32,0,0,0-2,1,4.28,4.28,0,0,0-.75,2.6v1a3.8,3.8,0,0,1,1.27-.84,4,4,0,0,1,1.58-.31,3.27,3.27,0,0,1,2.61,1.11,4.3,4.3,0,0,1,1,2.91,4.45,4.45,0,0,1-1.08,3.14,3.77,3.77,0,0,1-2.91,1.17,3.82,3.82,0,0,1-3-1.35,5.37,5.37,0,0,1-1.19-3.68V273.3a5.43,5.43,0,0,1,1.28-3.72A4,4,0,0,1,122.67,268.12Zm-.42,6.12a2.72,2.72,0,0,0-1.4.35,2.3,2.3,0,0,0-.89.94v.88a4.19,4.19,0,0,0,.71,2.57,2.11,2.11,0,0,0,1.73.95,1.92,1.92,0,0,0,1.67-.82,3.61,3.61,0,0,0,.58-2.14,3,3,0,0,0-.62-2A2.22,2.22,0,0,0,122.25,274.24Z"/><path d="M136,271.57a2.83,2.83,0,0,1-.56,1.76,3.34,3.34,0,0,1-1.49,1.14,3.72,3.72,0,0,1,1.75,1.21,3,3,0,0,1,.66,1.9,3.41,3.41,0,0,1-1.15,2.74,4.41,4.41,0,0,1-2.92,1,4.72,4.72,0,0,1-3.07-1,3.33,3.33,0,0,1-1.2-2.74,2.91,2.91,0,0,1,.68-1.9,3.84,3.84,0,0,1,1.81-1.22,3.32,3.32,0,0,1-1.55-1.13,2.84,2.84,0,0,1-.58-1.76A3.15,3.15,0,0,1,129.5,269a4.3,4.3,0,0,1,2.81-.88A4,4,0,0,1,135,269,3.17,3.17,0,0,1,136,271.57Zm-1.37,6a2.33,2.33,0,0,0-.68-1.73,2.28,2.28,0,0,0-1.68-.67,2.49,2.49,0,0,0-1.8.67,2.28,2.28,0,0,0-.71,1.73,2.23,2.23,0,0,0,.7,1.73,2.63,2.63,0,0,0,1.83.65,2.28,2.28,0,0,0,2.34-2.38Zm-.36-5.95a2.11,2.11,0,0,0-.57-1.52,1.91,1.91,0,0,0-1.43-.6,2.18,2.18,0,0,0-1.55.57,2.06,2.06,0,0,0-.6,1.55,2.12,2.12,0,0,0,.61,1.58,2.15,2.15,0,0,0,1.56.61,1.88,1.88,0,0,0,1.42-.61A2.26,2.26,0,0,0,134.31,271.6Z"/><path d="M141.71,279.93a2.57,2.57,0,0,0,2-.86,3.58,3.58,0,0,0,.77-2.45v-1.09a2.72,2.72,0,0,1-1.05,1,3,3,0,0,1-1.37.32,3.74,3.74,0,0,1-2.9-1.14,5.14,5.14,0,0,1,.07-6.32,3.59,3.59,0,0,1,2.76-1.22,4.07,4.07,0,0,1,3.07,1.2,4.72,4.72,0,0,1,1.16,3.4v3.89a4.61,4.61,0,0,1-1.26,3.44,4.49,4.49,0,0,1-3.26,1.23,6.62,6.62,0,0,1-1.39-.14,6.16,6.16,0,0,1-1.32-.41l.26-1.32a5,5,0,0,0,1.14.4A6.29,6.29,0,0,0,141.71,279.93Zm.36-4.48a2.64,2.64,0,0,0,1.52-.42,2.4,2.4,0,0,0,.9-1v-1.51a3.37,3.37,0,0,0-.64-2.21,2.21,2.21,0,0,0-1.8-.78,1.89,1.89,0,0,0-1.57.84,4.14,4.14,0,0,0,0,4.31A1.88,1.88,0,0,0,142.07,275.45Z"/><path d="M148.3,276.52a6.3,6.3,0,0,1,1-3.7,3.15,3.15,0,0,1,2.74-1.41,3.46,3.46,0,0,1,1.48.31,3,3,0,0,1,1.11.9v-5.23h1.73V281.1H155l-.26-1.21a3.08,3.08,0,0,1-1.15,1,3.39,3.39,0,0,1-1.59.35,3.28,3.28,0,0,1-2.73-1.26,5.22,5.22,0,0,1-1-3.32Zm1.73.18a4,4,0,0,0,.59,2.31,2,2,0,0,0,1.83.87,2.28,2.28,0,0,0,1.3-.36,2.67,2.67,0,0,0,.86-1V274.1a2.68,2.68,0,0,0-.87-.93,2.21,2.21,0,0,0-1.28-.35,2,2,0,0,0-1.84,1,5.33,5.33,0,0,0-.59,2.67Z"/><path d="M163.91,281.1h-1.74V269.9l-2.79,0v-1.34l4.53-.47Z"/><path d="M274.71,277.49h-2.24l-.7,3.61h-1.33l.7-3.61h-2.07v-1.23h2.32l.6-3.05h-2.25V272h2.49l.72-3.66h1.33l-.72,3.66h2.24l.72-3.66h1.33l-.72,3.66h1.75v1.25h-2l-.6,3.05h1.93v1.23h-2.17l-.71,3.61H274Zm-2-1.23H275l.6-3.05h-2.25Z"/><path d="M284.86,281.28a4,4,0,0,1-3.19-1.31,5,5,0,0,1-1.15-3.44v-.39a5,5,0,0,1,1.18-3.39,3.72,3.72,0,0,1,2.89-1.34,3.45,3.45,0,0,1,2.86,1.19,4.85,4.85,0,0,1,.95,3.15v.92h-6.08l0,0a4,4,0,0,0,.63,2.33,2.22,2.22,0,0,0,1.93.89,4.35,4.35,0,0,0,1.55-.25,3.46,3.46,0,0,0,1.13-.69l.68,1.12a4.08,4.08,0,0,1-1.34.83A5.3,5.3,0,0,1,284.86,281.28Zm-.27-8.51a1.92,1.92,0,0,0-1.5.7,3.32,3.32,0,0,0-.72,1.79v.05h4.29v-.14a2.77,2.77,0,0,0-.51-1.72A1.84,1.84,0,0,0,284.59,272.77Z"/><path d="M294.28,281.28a4,4,0,0,1-3.19-1.31,5.05,5.05,0,0,1-1.15-3.44v-.39a5,5,0,0,1,1.18-3.39,3.74,3.74,0,0,1,2.89-1.34,3.45,3.45,0,0,1,2.86,1.19,4.85,4.85,0,0,1,1,3.15v.92h-6.09l0,0a4,4,0,0,0,.63,2.33,2.22,2.22,0,0,0,1.93.89,4.35,4.35,0,0,0,1.55-.25A3.62,3.62,0,0,0,297,279l.67,1.12a4.08,4.08,0,0,1-1.34.83A5.3,5.3,0,0,1,294.28,281.28Zm-.27-8.51a1.92,1.92,0,0,0-1.5.7,3.4,3.4,0,0,0-.72,1.79l0,.05h4.29v-.14a2.77,2.77,0,0,0-.51-1.72A1.86,1.86,0,0,0,294,272.77Z"/><path d="M307.39,271.57a2.89,2.89,0,0,1-.56,1.76,3.42,3.42,0,0,1-1.5,1.14,3.67,3.67,0,0,1,1.75,1.21,3,3,0,0,1,.66,1.9,3.38,3.38,0,0,1-1.15,2.74,4.39,4.39,0,0,1-2.92,1,4.74,4.74,0,0,1-3.07-1,3.35,3.35,0,0,1-1.19-2.74,2.9,2.9,0,0,1,.67-1.9,3.82,3.82,0,0,1,1.82-1.22,3.3,3.3,0,0,1-1.56-1.13,2.83,2.83,0,0,1-.57-1.76,3.15,3.15,0,0,1,1.08-2.57,4.25,4.25,0,0,1,2.8-.88,4,4,0,0,1,2.69.89A3.17,3.17,0,0,1,307.39,271.57Zm-1.37,6a2.37,2.37,0,0,0-.68-1.73,2.32,2.32,0,0,0-1.69-.67,2.53,2.53,0,0,0-1.8.67,2.31,2.31,0,0,0-.71,1.73,2.24,2.24,0,0,0,.71,1.73,2.6,2.6,0,0,0,1.82.65,2.28,2.28,0,0,0,2.35-2.38Zm-.36-5.95a2.07,2.07,0,0,0-.58-1.52,1.89,1.89,0,0,0-1.43-.6,2.16,2.16,0,0,0-1.54.57,2,2,0,0,0-.61,1.55,2.1,2.1,0,0,0,2.17,2.19,1.88,1.88,0,0,0,1.42-.61A2.22,2.22,0,0,0,305.66,271.6Z"/><path d="M318,276.7a5.29,5.29,0,0,1-1,3.32,3.28,3.28,0,0,1-2.73,1.26,3.39,3.39,0,0,1-1.64-.37,3.13,3.13,0,0,1-1.16-1.1l-.28,1.29H309.9V267.39h1.73v5.32a3,3,0,0,1,1.12-1,3.31,3.31,0,0,1,1.55-.34,3.16,3.16,0,0,1,2.74,1.41,6.3,6.3,0,0,1,1,3.7Zm-1.73-.18a5.28,5.28,0,0,0-.6-2.67,2,2,0,0,0-1.83-1,2.27,2.27,0,0,0-1.35.39,2.76,2.76,0,0,0-.88,1.05v4.12a2.88,2.88,0,0,0,.88,1.1,2.27,2.27,0,0,0,1.37.4,2,2,0,0,0,1.81-.87,4,4,0,0,0,.6-2.31Z"/><path d="M327.75,271.57a2.83,2.83,0,0,1-.56,1.76,3.34,3.34,0,0,1-1.49,1.14,3.72,3.72,0,0,1,1.75,1.21,2.94,2.94,0,0,1,.65,1.9,3.41,3.41,0,0,1-1.14,2.74,4.41,4.41,0,0,1-2.92,1,4.76,4.76,0,0,1-3.08-1,3.35,3.35,0,0,1-1.19-2.74,2.91,2.91,0,0,1,.68-1.9,3.79,3.79,0,0,1,1.81-1.22,3.35,3.35,0,0,1-1.56-1.13,2.83,2.83,0,0,1-.57-1.76,3.15,3.15,0,0,1,1.08-2.57,4.28,4.28,0,0,1,2.81-.88,4,4,0,0,1,2.68.89A3.17,3.17,0,0,1,327.75,271.57Zm-1.37,6a2.33,2.33,0,0,0-.68-1.73,2.28,2.28,0,0,0-1.68-.67,2.49,2.49,0,0,0-1.8.67,2.29,2.29,0,0,0-.72,1.73,2.24,2.24,0,0,0,.71,1.73,2.61,2.61,0,0,0,1.83.65,2.3,2.3,0,0,0,1.67-.66A2.27,2.27,0,0,0,326.38,277.55ZM326,271.6a2.11,2.11,0,0,0-.57-1.52,1.91,1.91,0,0,0-1.43-.6,2.18,2.18,0,0,0-1.55.57,2.06,2.06,0,0,0-.61,1.55,2.11,2.11,0,0,0,2.18,2.19,1.9,1.9,0,0,0,1.42-.61A2.26,2.26,0,0,0,326,271.6Z"/><path d="M338.39,276.7a5.23,5.23,0,0,1-1,3.32,3.27,3.27,0,0,1-2.72,1.26,3.46,3.46,0,0,1-1.65-.37,3.1,3.1,0,0,1-1.15-1.1l-.29,1.29h-1.32V267.39H332v5.32a3,3,0,0,1,1.11-1,3.31,3.31,0,0,1,1.55-.34,3.15,3.15,0,0,1,2.74,1.41,6.3,6.3,0,0,1,1,3.7Zm-1.73-.18a5.17,5.17,0,0,0-.61-2.67,2,2,0,0,0-1.83-1,2.29,2.29,0,0,0-1.35.39,2.82,2.82,0,0,0-.87,1.05v4.12a2.77,2.77,0,0,0,.87,1.1,2.29,2.29,0,0,0,1.37.4,2.07,2.07,0,0,0,1.82-.87,4,4,0,0,0,.6-2.31Z"/><path d="M446.43,277.49h-2.25l-.7,3.61h-1.33l.71-3.61h-2.08v-1.23h2.32l.6-3.05h-2.25V272H444l.72-3.66H446l-.73,3.66h2.25l.72-3.66h1.32l-.72,3.66h1.75v1.25h-2l-.6,3.05h1.92v1.23h-2.17l-.7,3.61h-1.34Zm-2-1.23h2.24l.6-3.05H445Z"/><path d="M457,268.12a7.46,7.46,0,0,1,1.49.15,5.55,5.55,0,0,1,1.22.37l-.37,1.33a5.88,5.88,0,0,0-1.05-.35,5,5,0,0,0-1.29-.14,2.31,2.31,0,0,0-2,1,4.28,4.28,0,0,0-.75,2.6v1a3.8,3.8,0,0,1,1.27-.84,3.94,3.94,0,0,1,1.58-.31,3.27,3.27,0,0,1,2.61,1.11,4.29,4.29,0,0,1,1,2.91,4.45,4.45,0,0,1-1.07,3.14,3.77,3.77,0,0,1-2.91,1.17,3.82,3.82,0,0,1-3-1.35,5.37,5.37,0,0,1-1.19-3.68V273.3a5.43,5.43,0,0,1,1.28-3.72A4,4,0,0,1,457,268.12Zm-.42,6.12a2.72,2.72,0,0,0-1.4.35,2.24,2.24,0,0,0-.89.94v.88A4.19,4.19,0,0,0,455,279a2.11,2.11,0,0,0,1.73.95,1.92,1.92,0,0,0,1.67-.82A3.61,3.61,0,0,0,459,277a3,3,0,0,0-.62-2A2.22,2.22,0,0,0,456.6,274.24Z"/><path d="M467.15,268.12a7.46,7.46,0,0,1,1.49.15,5.65,5.65,0,0,1,1.23.37L469.5,270a6.27,6.27,0,0,0-1.06-.35,5,5,0,0,0-1.29-.14,2.3,2.3,0,0,0-1.95,1,4.22,4.22,0,0,0-.76,2.6v1a3.8,3.8,0,0,1,1.27-.84,4,4,0,0,1,1.58-.31,3.31,3.31,0,0,1,2.62,1.11,4.29,4.29,0,0,1,1,2.91,4.45,4.45,0,0,1-1.08,3.14,3.75,3.75,0,0,1-2.9,1.17,3.79,3.79,0,0,1-3-1.35,5.33,5.33,0,0,1-1.2-3.68V273.3a5.48,5.48,0,0,1,1.28-3.72A4,4,0,0,1,467.15,268.12Zm-.41,6.12a2.69,2.69,0,0,0-1.4.35,2.33,2.33,0,0,0-.9.94v.88a4.19,4.19,0,0,0,.71,2.57,2.11,2.11,0,0,0,1.74.95,1.91,1.91,0,0,0,1.66-.82,3.61,3.61,0,0,0,.59-2.14,3,3,0,0,0-.63-2A2.21,2.21,0,0,0,466.74,274.24Z"/><path d="M477.28,268.12a7.48,7.48,0,0,1,1.5.15,5.55,5.55,0,0,1,1.22.37l-.37,1.33a5.88,5.88,0,0,0-1.05-.35,5,5,0,0,0-1.3-.14,2.3,2.3,0,0,0-1.95,1,4.28,4.28,0,0,0-.75,2.6v1a3.71,3.71,0,0,1,1.27-.84,3.93,3.93,0,0,1,1.57-.31,3.28,3.28,0,0,1,2.62,1.11,4.29,4.29,0,0,1,1,2.91,4.49,4.49,0,0,1-1.07,3.14,3.77,3.77,0,0,1-2.91,1.17,3.82,3.82,0,0,1-3-1.35,5.33,5.33,0,0,1-1.2-3.68V273.3a5.48,5.48,0,0,1,1.28-3.72A4.06,4.06,0,0,1,477.28,268.12Zm-.41,6.12a2.72,2.72,0,0,0-1.4.35,2.24,2.24,0,0,0-.89.94v.88a4.13,4.13,0,0,0,.71,2.57,2.09,2.09,0,0,0,1.73.95,1.92,1.92,0,0,0,1.67-.82,3.61,3.61,0,0,0,.58-2.14,3,3,0,0,0-.63-2A2.21,2.21,0,0,0,476.87,274.24Z"/><path d="M487.42,268.12a7.46,7.46,0,0,1,1.49.15,5.55,5.55,0,0,1,1.22.37l-.37,1.33a5.88,5.88,0,0,0-1.05-.35,5,5,0,0,0-1.29-.14,2.32,2.32,0,0,0-2,1,4.28,4.28,0,0,0-.75,2.6v1a3.8,3.8,0,0,1,1.27-.84,4,4,0,0,1,1.58-.31,3.27,3.27,0,0,1,2.61,1.11,4.25,4.25,0,0,1,1,2.91,4.45,4.45,0,0,1-1.08,3.14,3.77,3.77,0,0,1-2.91,1.17,3.82,3.82,0,0,1-3-1.35,5.37,5.37,0,0,1-1.19-3.68V273.3a5.48,5.48,0,0,1,1.28-3.72A4,4,0,0,1,487.42,268.12Zm-.42,6.12a2.72,2.72,0,0,0-1.4.35,2.3,2.3,0,0,0-.89.94v.88a4.19,4.19,0,0,0,.71,2.57,2.11,2.11,0,0,0,1.73.95,1.91,1.91,0,0,0,1.67-.82,3.61,3.61,0,0,0,.58-2.14,3,3,0,0,0-.62-2A2.22,2.22,0,0,0,487,274.24Z"/><path d="M497.55,268.12a7.56,7.56,0,0,1,1.5.15,5.55,5.55,0,0,1,1.22.37L499.9,270a6.27,6.27,0,0,0-1.06-.35,5,5,0,0,0-1.29-.14,2.3,2.3,0,0,0-1.95,1,4.29,4.29,0,0,0-.76,2.6v1a3.85,3.85,0,0,1,1.28-.84,3.89,3.89,0,0,1,1.57-.31,3.29,3.29,0,0,1,2.62,1.11,4.29,4.29,0,0,1,1,2.91,4.45,4.45,0,0,1-1.08,3.14,3.73,3.73,0,0,1-2.9,1.17,3.79,3.79,0,0,1-3-1.35,5.33,5.33,0,0,1-1.2-3.68V273.3a5.48,5.48,0,0,1,1.28-3.72A4,4,0,0,1,497.55,268.12Zm-.41,6.12a2.69,2.69,0,0,0-1.4.35,2.33,2.33,0,0,0-.9.94v.88a4.19,4.19,0,0,0,.71,2.57,2.11,2.11,0,0,0,1.74.95,1.91,1.91,0,0,0,1.66-.82,3.61,3.61,0,0,0,.59-2.14,3,3,0,0,0-.63-2A2.21,2.21,0,0,0,497.14,274.24Z"/><path d="M507.69,268.12a7.46,7.46,0,0,1,1.49.15,5.55,5.55,0,0,1,1.22.37L510,270a5.88,5.88,0,0,0-1-.35,5,5,0,0,0-1.29-.14,2.31,2.31,0,0,0-2,1,4.28,4.28,0,0,0-.75,2.6v1a3.8,3.8,0,0,1,1.27-.84,3.94,3.94,0,0,1,1.58-.31,3.27,3.27,0,0,1,2.61,1.11,4.29,4.29,0,0,1,1,2.91,4.49,4.49,0,0,1-1.07,3.14,3.77,3.77,0,0,1-2.91,1.17,3.82,3.82,0,0,1-3-1.35,5.33,5.33,0,0,1-1.19-3.68V273.3a5.43,5.43,0,0,1,1.28-3.72A4,4,0,0,1,507.69,268.12Zm-.42,6.12a2.72,2.72,0,0,0-1.4.35,2.24,2.24,0,0,0-.89.94v.88a4.13,4.13,0,0,0,.71,2.57,2.11,2.11,0,0,0,1.73.95,1.92,1.92,0,0,0,1.67-.82,3.61,3.61,0,0,0,.58-2.14,3,3,0,0,0-.63-2A2.21,2.21,0,0,0,507.27,274.24Z"/><path d="M622.55,277.49h-2.24l-.71,3.61h-1.32l.7-3.61H616.9v-1.23h2.32l.6-3.05h-2.25V272h2.5l.72-3.66h1.33L621.4,272h2.24l.72-3.66h1.32L625,272h1.75v1.25h-2l-.6,3.05h1.92v1.23h-2.17l-.7,3.61h-1.34Zm-2-1.23h2.24l.6-3.05h-2.24Z"/><path d="M633.74,281.1H632V269.9l-2.78,0v-1.34l4.52-.47Z"/><path d="M643.88,281.1h-1.74V269.9l-2.79,0v-1.34l4.53-.47Z"/><path d="M654,281.1h-1.74V269.9l-2.78,0v-1.34l4.52-.47Z"/><path d="M664.15,281.1h-1.74V269.9l-2.79,0v-1.34l4.53-.47Z"/><path d="M674.28,281.1h-1.74V269.9l-2.79,0v-1.34l4.53-.47Z"/><path d="M684.41,281.1h-1.74V269.9l-2.78,0v-1.34l4.52-.47Z"/><path d="M93.07,59.68a10.72,10.72,0,0,1-7.53,2.6H78.1V75.72h-7V73.56h4.32V45.28H71.09V43.12h14c3.39,0,6,.84,8,2.5a9,9,0,0,1,2.88,7.1A8.94,8.94,0,0,1,93.07,59.68ZM91.15,47.11Q89,45.28,84.58,45.28H78.1V60.12h6.48A10,10,0,0,0,91,58.34,6.47,6.47,0,0,0,93.22,53Q93.22,48.89,91.15,47.11Z"/><path d="M115.58,72.93a10.77,10.77,0,0,1-8.11,3.46,10.52,10.52,0,0,1-8.06-3.46,12,12,0,0,1-3.27-8.54,12,12,0,0,1,3.22-8.55,11.2,11.2,0,0,1,16.17,0,12.87,12.87,0,0,1,0,17.09Zm-1.77-15.5a8.59,8.59,0,0,0-12.63,0,10.13,10.13,0,0,0-2.49,7,10.07,10.07,0,0,0,2.44,7,8.17,8.17,0,0,0,6.34,2.78,8.06,8.06,0,0,0,6.29-2.73,10.14,10.14,0,0,0,2.49-7A10,10,0,0,0,113.81,57.43Z"/><path d="M123.21,75.72V45.28h-4.12V43.12h6.62V73.56h4.08v2.16Z"/><path d="M133.77,75.72V73.56h0V55.17h-4V53h6.48V73.56h3.89v2.16Zm1.88-29.81a1.88,1.88,0,0,1-1.35.57,2,2,0,0,1-1.92-1.92,1.89,1.89,0,0,1,.58-1.39,1.84,1.84,0,0,1,1.34-.57,1.95,1.95,0,0,1,1.92,1.92A1.92,1.92,0,0,1,135.65,45.91Z"/><path d="M161.47,73.6A11,11,0,0,1,154,76.2a11.62,11.62,0,0,1-5.18-1.2,9.57,9.57,0,0,1-2.24-1.54,11,11,0,0,1-1.75-2.11v4.37h-2.21V64.53h2.21v1.15a7.47,7.47,0,0,0,2.69,5.67,9.26,9.26,0,0,0,6.53,2.49,8.13,8.13,0,0,0,5.52-2,6.33,6.33,0,0,0,2.21-5,5.16,5.16,0,0,0-2.07-4.32c-1.41-1.08-3.81-2-7.2-2.83s-5.87-1.92-7.44-3.36a7.3,7.3,0,0,1-2.35-5.81,7.12,7.12,0,0,1,2.74-5.66,10.22,10.22,0,0,1,6.76-2.3,19.67,19.67,0,0,1,2.45.14,8.4,8.4,0,0,1,2.31.62c.73.36,1.39.69,2,1a6.71,6.71,0,0,1,1.73,1.44,11.33,11.33,0,0,1,.84,1,9.23,9.23,0,0,1,.65,1.13,5.71,5.71,0,0,1,.48,1.63c.1.64.16,1.17.19,1.59s0,.65,0,.72h-2.54v-.63a7.58,7.58,0,0,0-.1-1,5.94,5.94,0,0,0-.36-1.32,8.66,8.66,0,0,0-.67-1.37,4.19,4.19,0,0,0-1-1.15,6.32,6.32,0,0,0-2.79-1.23,20.2,20.2,0,0,0-3.31-.26,7.3,7.3,0,0,0-4.9,1.63,5.18,5.18,0,0,0-2,4.08,4.77,4.77,0,0,0,2.11,4.22,18.07,18.07,0,0,0,5.76,2.31q6.57,1.58,9,3.84a8,8,0,0,1,2.4,6.14A8.11,8.11,0,0,1,161.47,73.6Z"/><path d="M171,64.92a10.1,10.1,0,0,0,2.74,6.62,9.1,9.1,0,0,0,6.91,2.83,7.42,7.42,0,0,0,1.71-.24c.65-.16,1.27-.33,1.84-.5s1.28-.43,2.12-.75l.57,1.83q-1.4.53-2.4.84t-2.16.57a9.12,9.12,0,0,1-2.06.27,11.23,11.23,0,0,1-8.4-3.41,11.71,11.71,0,0,1-3.31-8.59,11.89,11.89,0,0,1,3.26-8.59,11,11,0,0,1,8.3-3.41,10.51,10.51,0,0,1,8,3.31q3.07,3.27,3.36,9.22Zm15-8.12a8.47,8.47,0,0,0-6.1-2.3,8.27,8.27,0,0,0-6.43,2.83,10,10,0,0,0-2.4,5.43h17.76A10,10,0,0,0,186,56.8Z"/><path d="M197.47,64.92a10.05,10.05,0,0,0,2.74,6.62,9.08,9.08,0,0,0,6.91,2.83,7.27,7.27,0,0,0,1.7-.24c.66-.16,1.27-.33,1.85-.5s1.28-.43,2.11-.75l.58,1.83q-1.4.53-2.4.84c-.67.21-1.4.4-2.16.57a9.2,9.2,0,0,1-2.07.27,11.23,11.23,0,0,1-8.4-3.41A11.71,11.71,0,0,1,195,64.39a11.9,11.9,0,0,1,3.27-8.59,11,11,0,0,1,8.3-3.41,10.51,10.51,0,0,1,8,3.31Q217.68,59,218,64.92Zm15-8.12a8.46,8.46,0,0,0-6.09-2.3A8.29,8.29,0,0,0,200,57.33a10.13,10.13,0,0,0-2.4,5.43h17.77A10.11,10.11,0,0,0,212.49,56.8Z"/><path d="M253.72,73.32q-3.06,2.4-8.4,2.4l-8.73,0V45.28h-4.18V43.12h12.91q4.67,0,7.2,2.16a7.62,7.62,0,0,1,2.6,6.2,6.83,6.83,0,0,1-1.35,4.41,7.51,7.51,0,0,1-3.6,2.55A9.06,9.06,0,0,1,255,61.32a7.76,7.76,0,0,1,1.73,5.08A8.23,8.23,0,0,1,253.72,73.32Zm-3.26-26.4a7.89,7.89,0,0,0-5.28-1.64h-5.9V57.62h5.47a8.7,8.7,0,0,0,5.57-1.68,6,6,0,0,0,.14-9Zm1.3,14.59a10.83,10.83,0,0,0-6.58-1.73h-5.9V73.56h5.8a10.75,10.75,0,0,0,6.58-1.78,6.12,6.12,0,0,0,2.4-5.18A5.89,5.89,0,0,0,251.76,61.51Z"/><path d="M276.09,54.79q-4.89,0-7.25,2.06c-1.56,1.38-2.35,3.55-2.35,6.53V73.56h4.66v2.16H264V55.17h-4.32V53h6.81v4c0-.06.17-.28.41-.67A11.17,11.17,0,0,1,268,55a5.54,5.54,0,0,1,1.54-1.25,9.87,9.87,0,0,1,1.44-.62,11.47,11.47,0,0,1,1.7-.46c.59-.11,1.18-.2,1.78-.26a9.32,9.32,0,0,1,1.65,0l.91,0v2.4Z"/><path d="M291.55,75.72V72.5a14.48,14.48,0,0,1-4,2.59,11,11,0,0,1-4.18,1,6.79,6.79,0,0,1-5-2,6.5,6.5,0,0,1-2-4.75,6.28,6.28,0,0,1,2.31-5,9.2,9.2,0,0,1,6.19-2,14.62,14.62,0,0,1,6.77,1.88V58.82a3.92,3.92,0,0,0-1.63-3.55,7.91,7.91,0,0,0-4.42-1.11,7.6,7.6,0,0,0-1.61.2c-.59.12-1.14.26-1.65.4s-1.12.33-1.83.56l-.62-1.49c.73-.29,1.39-.53,2-.72a18.26,18.26,0,0,1,1.89-.51,9.83,9.83,0,0,1,2-.21A10.56,10.56,0,0,1,291.88,54,5.62,5.62,0,0,1,294,58.82V73.56h3.8v2.16Zm0-9.51a13.85,13.85,0,0,0-3-1.44,10.4,10.4,0,0,0-3.36-.57,6.73,6.73,0,0,0-4.7,1.53,5,5,0,0,0-1.68,3.79,4.42,4.42,0,0,0,1.34,3.22,5.06,5.06,0,0,0,3.75,1.39,9,9,0,0,0,4.08-1,12,12,0,0,0,3.55-2.69Z"/><path d="M317.56,75.72V58.63a4,4,0,0,0-1-2.93,3.84,3.84,0,0,0-2.88-1.06,9.66,9.66,0,0,0-4.32,1.16,17.15,17.15,0,0,0-4,2.78v15H309v2.16h-6.19V55.17H298.7V53h6.62v3.07a16.89,16.89,0,0,1,4.13-2.68,10.73,10.73,0,0,1,4.56-1A6.14,6.14,0,0,1,318.38,54a5.92,5.92,0,0,1,1.68,4.37V73.56h3.6v2.16Z"/><path d="M344.49,75.72V71.2a10.56,10.56,0,0,1-4,3.75,11,11,0,0,1-4.75,1.1,10.71,10.71,0,0,1-8-3.31,11.61,11.61,0,0,1-3.21-8.35,12.22,12.22,0,0,1,3.12-8.59,10.37,10.37,0,0,1,8-3.41,9.85,9.85,0,0,1,8.93,5.33V43.12H347V73.56h4.13v2.16ZM342,57.28a8.29,8.29,0,0,0-6.34-2.83,7.9,7.9,0,0,0-6.24,2.83,10.5,10.5,0,0,0-2.54,7.11,9.85,9.85,0,0,0,2.54,6.81A8.32,8.32,0,0,0,335.71,74,8.08,8.08,0,0,0,342,71.25a10.07,10.07,0,0,0,2.5-7A9.92,9.92,0,0,0,342,57.28Z"/><path d="M385.39,73.32q-3.08,2.4-8.4,2.4l-8.74,0V45.28h-4.17V43.12H377q4.65,0,7.2,2.16a7.61,7.61,0,0,1,2.59,6.2,6.88,6.88,0,0,1-1.34,4.41,7.6,7.6,0,0,1-3.6,2.55,9,9,0,0,1,4.84,2.88,7.71,7.71,0,0,1,1.73,5.08A8.25,8.25,0,0,1,385.39,73.32Zm-3.27-26.4a7.89,7.89,0,0,0-5.28-1.64h-5.9V57.62h5.47A8.68,8.68,0,0,0,382,55.94a6,6,0,0,0,.14-9Zm1.3,14.59a10.83,10.83,0,0,0-6.58-1.73h-5.9V73.56h5.81a10.73,10.73,0,0,0,6.57-1.78,6.12,6.12,0,0,0,2.4-5.18A5.87,5.87,0,0,0,383.42,61.51Z"/><path d="M411.69,72.93a10.78,10.78,0,0,1-8.11,3.46,10.56,10.56,0,0,1-8.07-3.46,12.08,12.08,0,0,1-3.26-8.54,12,12,0,0,1,3.22-8.55,11.2,11.2,0,0,1,16.17,0,12.87,12.87,0,0,1,.05,17.09Zm-1.78-15.5a8.58,8.58,0,0,0-12.62,0,10.13,10.13,0,0,0-2.5,7,10.08,10.08,0,0,0,2.45,7,8.17,8.17,0,0,0,6.34,2.78,8.08,8.08,0,0,0,6.29-2.73,10.14,10.14,0,0,0,2.49-7A10,10,0,0,0,409.91,57.43Z"/><path d="M438.19,72.93a10.8,10.8,0,0,1-8.12,3.46A10.52,10.52,0,0,1,422,72.93a12,12,0,0,1-3.26-8.54A12,12,0,0,1,422,55.84a11.21,11.21,0,0,1,16.18,0,12.9,12.9,0,0,1,.05,17.09Zm-1.78-15.5a8.58,8.58,0,0,0-12.62,0,10.09,10.09,0,0,0-2.5,7,10.08,10.08,0,0,0,2.45,7,8.6,8.6,0,0,0,12.62.05,10.1,10.1,0,0,0,2.5-7A10,10,0,0,0,436.41,57.43Z"/><path d="M461.75,75.72,448.31,64v9.56h4.18v2.16h-6.62V73.56h-.05V45.28h-4.18V43.12h6.67V63.19c1-.67,2.2-1.47,3.53-2.38l3.94-2.69c1.29-.88,2.52-1.72,3.67-2.52l2.69-1.87q1-.67,1.05-.72h3.08v2.16h-2.45l-12.43,8.5,11.8,9.89h3.46v2.16Z"/><path d="M81.12,589.05H74.7l-1.52,4.39H70.82L77,576.38h2l6,17.06H82.62Zm-5.75-1.93h5.1L78,579.79h-.07Z"/><path d="M95,593.44c-.07-.38-.13-.72-.18-1a6.52,6.52,0,0,1-.07-.88A5.32,5.32,0,0,1,93,593.08a4.28,4.28,0,0,1-2.23.61,4.19,4.19,0,0,1-3-1,3.74,3.74,0,0,1-1-2.8A3.27,3.27,0,0,1,88.21,587a6.89,6.89,0,0,1,4-1h2.51v-1.25A2.33,2.33,0,0,0,94,583a2.67,2.67,0,0,0-1.93-.65,2.74,2.74,0,0,0-1.81.56,1.68,1.68,0,0,0-.69,1.35l-2.19,0,0-.07a3,3,0,0,1,1.3-2.53,5.34,5.34,0,0,1,3.55-1.15,5.23,5.23,0,0,1,3.47,1.1A3.86,3.86,0,0,1,97,584.78v6.11a11.14,11.14,0,0,0,.07,1.31,6.49,6.49,0,0,0,.25,1.24Zm-3.83-1.68a4.09,4.09,0,0,0,2.26-.65,3.09,3.09,0,0,0,1.32-1.47v-2.07H92.12a3.38,3.38,0,0,0-2.24.71,2.12,2.12,0,0,0-.83,1.65,1.72,1.72,0,0,0,.52,1.33A2.21,2.21,0,0,0,91.13,591.76Z"/><path d="M106.65,593.44V576.38h5.56a6.75,6.75,0,0,1,4.19,1.16,4.07,4.07,0,0,1,1.51,3.46,3.14,3.14,0,0,1-.68,2,4.13,4.13,0,0,1-1.8,1.33,4,4,0,0,1,2.65,1.46,4.46,4.46,0,0,1,1,2.87,4.34,4.34,0,0,1-1.53,3.58,6.36,6.36,0,0,1-4.12,1.23Zm2.31-9.8h3.73a3.09,3.09,0,0,0,2.1-.71,2.86,2.86,0,0,0-.06-4,4,4,0,0,0-2.52-.68H109Zm0,1.8v6.2h4.45a3.55,3.55,0,0,0,2.45-.78,2.79,2.79,0,0,0,.88-2.21,3,3,0,0,0-.89-2.28,3.53,3.53,0,0,0-2.41-.93H109Z"/><path d="M132.42,587.58A7,7,0,0,1,131.1,592a4.36,4.36,0,0,1-3.63,1.68,4.67,4.67,0,0,1-2.2-.5,4.08,4.08,0,0,1-1.54-1.47l-.37,1.72h-1.77V575.16h2.31v7.1a4,4,0,0,1,1.48-1.28,4.51,4.51,0,0,1,2.07-.45,4.2,4.2,0,0,1,3.65,1.88,8.38,8.38,0,0,1,1.32,4.93Zm-2.31-.24a7.08,7.08,0,0,0-.8-3.56,2.64,2.64,0,0,0-2.45-1.37,3,3,0,0,0-1.8.52,3.66,3.66,0,0,0-1.16,1.4v5.49a3.68,3.68,0,0,0,1.16,1.47,3,3,0,0,0,1.83.53,2.75,2.75,0,0,0,2.42-1.16,5.37,5.37,0,0,0,.8-3.08Z"/><path d="M153.69,588l0,.07a5.1,5.1,0,0,1-1.69,4,6.42,6.42,0,0,1-4.58,1.62,6,6,0,0,1-4.72-2.05,7.56,7.56,0,0,1-1.82-5.2v-3a7.59,7.59,0,0,1,1.82-5.21,6,6,0,0,1,4.72-2.05,6.62,6.62,0,0,1,4.61,1.54,5.09,5.09,0,0,1,1.66,4.08l0,.07h-2.22a3.8,3.8,0,0,0-1.05-2.83,4.06,4.06,0,0,0-3-1,3.62,3.62,0,0,0-3.08,1.56,6.32,6.32,0,0,0-1.15,3.87v3.06a6.36,6.36,0,0,0,1.15,3.89,3.62,3.62,0,0,0,3.08,1.56,4.09,4.09,0,0,0,3-1,3.85,3.85,0,0,0,1.05-2.87Z"/><path d="M161.43,591.89a2.74,2.74,0,0,0,1.87-.71,2.26,2.26,0,0,0,.79-1.74h2.09l0,.07a3.61,3.61,0,0,1-1.4,2.91,5.37,5.37,0,0,1-7.5-.55,7,7,0,0,1-1.46-4.52v-.49a7,7,0,0,1,1.46-4.51,5,5,0,0,1,4.12-1.82,4.8,4.8,0,0,1,3.48,1.31,4.15,4.15,0,0,1,1.3,3.23l0,.07h-2.1a2.81,2.81,0,0,0-.75-2,2.51,2.51,0,0,0-1.91-.81,2.67,2.67,0,0,0-2.48,1.32,6.23,6.23,0,0,0-.77,3.19v.49a6.29,6.29,0,0,0,.76,3.22A2.66,2.66,0,0,0,161.43,591.89Z"/><path d="M175.24,593.44V576.38h5.36a7,7,0,0,1,7.41,7.37v2.33a7,7,0,0,1-7.41,7.36Zm2.31-15.24v13.44h3a4.72,4.72,0,0,0,3.74-1.56,5.84,5.84,0,0,0,1.36-4v-2.35a5.8,5.8,0,0,0-1.36-4,4.72,4.72,0,0,0-3.74-1.56Z"/><path d="M190.65,587.34a8.46,8.46,0,0,1,1.3-4.93,4.24,4.24,0,0,1,3.67-1.88,4.56,4.56,0,0,1,2,.41,3.87,3.87,0,0,1,1.47,1.2v-7h2.31v18.28H199.6l-.35-1.6a4.06,4.06,0,0,1-1.54,1.38,4.6,4.6,0,0,1-2.12.47A4.36,4.36,0,0,1,192,592a7,7,0,0,1-1.31-4.43Zm2.31.24a5.4,5.4,0,0,0,.78,3.08,2.76,2.76,0,0,0,2.44,1.16,3.06,3.06,0,0,0,1.73-.47,3.46,3.46,0,0,0,1.15-1.32v-5.91a3.47,3.47,0,0,0-1.15-1.25,3,3,0,0,0-1.71-.46,2.61,2.61,0,0,0-2.45,1.37,7,7,0,0,0-.79,3.56Z"/><path d="M220.41,585.53h-7v6.11h8.2v1.8H211.1V576.38h10.38v1.82h-8.07v5.52h7Z"/><path d="M229.05,593.69a5.35,5.35,0,0,1-4.26-1.75,6.7,6.7,0,0,1-1.53-4.59v-.52a6.56,6.56,0,0,1,1.58-4.51,4.94,4.94,0,0,1,3.85-1.79,4.61,4.61,0,0,1,3.81,1.58,6.52,6.52,0,0,1,1.27,4.21v1.22h-8.11l0,.06a5.28,5.28,0,0,0,.84,3.1,3,3,0,0,0,2.58,1.19,5.89,5.89,0,0,0,2.06-.34,4.5,4.5,0,0,0,1.51-.92l.91,1.5a5.52,5.52,0,0,1-1.8,1.11A7.12,7.12,0,0,1,229.05,593.69Zm-.36-11.34a2.51,2.51,0,0,0-2,.93,4.39,4.39,0,0,0-1,2.38l0,.06h5.71v-.19a3.63,3.63,0,0,0-.68-2.28A2.45,2.45,0,0,0,228.69,582.35Z"/><path d="M252.15,585.9H245v7.54h-2.31V576.38h10.7v1.82H245v5.88h7.2Z"/><path d="M256.53,593.44v-11h-2v-1.72h2v-1.6a4.36,4.36,0,0,1,1.06-3.14,3.93,3.93,0,0,1,3-1.1,5.39,5.39,0,0,1,.8.06q.4.06.9.18l-.28,1.76a4.6,4.6,0,0,0-.51-.08,6.26,6.26,0,0,0-.63,0,1.81,1.81,0,0,0-1.5.61,2.68,2.68,0,0,0-.49,1.75v1.6h2.3v1.72h-2.3v11Z"/><path d="M282,591.15a5.5,5.5,0,0,1-2.12,1.74,8.31,8.31,0,0,1-3.9.8,6.57,6.57,0,0,1-4.89-2,6.88,6.88,0,0,1-1.93-5.06v-3.51a7.06,7.06,0,0,1,1.86-5.07,7.14,7.14,0,0,1,9.3-.44,4.9,4.9,0,0,1,1.61,3.86l0,.07h-2.22a3.58,3.58,0,0,0-1-2.59,3.8,3.8,0,0,0-2.86-1,3.87,3.87,0,0,0-3.15,1.47,5.64,5.64,0,0,0-1.19,3.71v3.54a5.58,5.58,0,0,0,1.26,3.75,4.07,4.07,0,0,0,3.24,1.47,6,6,0,0,0,2.39-.4,3.44,3.44,0,0,0,1.32-.93v-3.84h-3.87v-1.81H282Z"/><path d="M285.28,587.34a8.46,8.46,0,0,1,1.3-4.93,4.2,4.2,0,0,1,3.65-1.88,4.34,4.34,0,0,1,2.12.49,4.2,4.2,0,0,1,1.54,1.4l.28-1.66H296v12.75a4.83,4.83,0,0,1-1.42,3.75,5.83,5.83,0,0,1-4.09,1.31,8.48,8.48,0,0,1-2-.26,7.34,7.34,0,0,1-1.87-.68l.35-1.8a6.31,6.31,0,0,0,1.61.57,8,8,0,0,0,1.86.22,3.4,3.4,0,0,0,2.46-.77,3.18,3.18,0,0,0,.76-2.34v-1.44a4,4,0,0,1-1.49,1.21,4.64,4.64,0,0,1-2,.41,4.34,4.34,0,0,1-3.63-1.68,7,7,0,0,1-1.3-4.43Zm2.31.24a5.45,5.45,0,0,0,.78,3.08,2.73,2.73,0,0,0,2.43,1.16,3,3,0,0,0,1.74-.48A3.56,3.56,0,0,0,293.7,590v-5.84a3.5,3.5,0,0,0-1.16-1.28,3,3,0,0,0-1.72-.47,2.61,2.61,0,0,0-2.44,1.37,7,7,0,0,0-.79,3.56Z"/><path d="M318.51,593.44H316.2v-7.53h-8.28v7.53h-2.31V576.38h2.31v7.71h8.28v-7.71h2.31Z"/><path d="M324.49,582.46A4.65,4.65,0,0,1,326.1,581a4.42,4.42,0,0,1,2.11-.51,4.09,4.09,0,0,1,3.16,1.22,5.32,5.32,0,0,1,1.13,3.75v7.94h-2.31v-8a3.38,3.38,0,0,0-.67-2.32,2.57,2.57,0,0,0-2-.75,3.75,3.75,0,0,0-1.79.4,3.26,3.26,0,0,0-1.23,1.13v9.5h-2.31V575.16h2.31Z"/><path d="M344.66,593.44h-2.32V576.38h2.32Z"/><path d="M351.07,577.52h-2.31v-2.36h2.31Zm0,15.92h-2.31V580.76h2.31Z"/><path d="M367.8,576.38h2.31V588.5a5,5,0,0,1-1.45,3.78,5.15,5.15,0,0,1-3.75,1.41,5.43,5.43,0,0,1-3.75-1.25,4.47,4.47,0,0,1-1.33-3.62l0-.07h2.22a3.3,3.3,0,0,0,.74,2.36,2.75,2.75,0,0,0,2.1.78A2.63,2.63,0,0,0,367,591a3.61,3.61,0,0,0,.81-2.46Z"/><path d="M376.4,580.76v13.73a4.15,4.15,0,0,1-1,3,3.66,3.66,0,0,1-2.8,1.07,3.37,3.37,0,0,1-.66-.06,4.6,4.6,0,0,1-.64-.16l.17-1.81a2.47,2.47,0,0,0,.47.1,3.41,3.41,0,0,0,.5,0,1.5,1.5,0,0,0,1.21-.52,2.51,2.51,0,0,0,.45-1.67V580.76Zm-.07-3.29H374v-2.31h2.31Z"/><path d="M390,585.73h-1.5v7.71h-2.31V576.38h2.31v7.55h1.27l6.33-7.55h2.6l0,.06-6.91,8.07,7.4,8.88,0,.05h-2.8Z"/><path d="M404.68,587.6H403.5v5.84h-2.31V575.16h2.31v10.6h1.16l3.8-5h2.77l-4.61,5.85,5,6.83H408.9Z"/><path d="M422.07,591.64h8.32v1.8H419.76V576.38h2.31Z"/><path d="M435.14,593.44h-2.31V575.16h2.31Z"/><path d="M453.43,590.25h.07L459,576.38h2.87v17.06h-2.31V580.66h-.07l-5.17,12.79h-1.6l-5.32-13.21h-.07v13.2H445V576.38h3Z"/><path d="M467.56,580.76l.17,1.67a4.3,4.3,0,0,1,1.57-1.4,4.78,4.78,0,0,1,2.22-.5,4,4,0,0,1,2.18.59,3.52,3.52,0,0,1,1.36,1.75,4.85,4.85,0,0,1,1.59-1.71,4.14,4.14,0,0,1,2.29-.63,3.79,3.79,0,0,1,3.06,1.33,6.08,6.08,0,0,1,1.12,4v7.58h-2.3v-7.6a4.23,4.23,0,0,0-.65-2.66,2.37,2.37,0,0,0-1.92-.77,2.45,2.45,0,0,0-1.92.82,3.61,3.61,0,0,0-.86,2.07v8.14h-2.32v-7.6a4.17,4.17,0,0,0-.66-2.61,2.3,2.3,0,0,0-1.9-.82,3.16,3.16,0,0,0-1.74.43,2.77,2.77,0,0,0-1,1.22v9.38H465.5V580.76Z"/><path d="M85.21,622.24h-2.3l-8.22-13-.07,0v13H72.31V605.18h2.31l8.22,13,.07,0v-13h2.3Z"/><path d="M91,609.56l.16,1.89a4.56,4.56,0,0,1,1.59-1.56,4.25,4.25,0,0,1,2.17-.56,4.15,4.15,0,0,1,3.18,1.2,5.28,5.28,0,0,1,1.12,3.71v8H96.87v-8a3.44,3.44,0,0,0-.66-2.38,2.64,2.64,0,0,0-2-.7,3.64,3.64,0,0,0-1.81.42,3.16,3.16,0,0,0-1.18,1.2v9.41H88.89V609.56Z"/><path d="M121.85,615.24a7.31,7.31,0,0,1-1.94,5.19,6.62,6.62,0,0,1-5,2.06,6.24,6.24,0,0,1-4.85-2.06,7.44,7.44,0,0,1-1.87-5.19v-3A7.44,7.44,0,0,1,110,607a6.22,6.22,0,0,1,4.85-2.07,6.59,6.59,0,0,1,5,2.06,7.33,7.33,0,0,1,1.94,5.2Zm-2.31-3.06a5.75,5.75,0,0,0-1.27-3.85,4.21,4.21,0,0,0-3.4-1.5,3.9,3.9,0,0,0-3.21,1.5,6,6,0,0,0-1.2,3.85v3.06a6,6,0,0,0,1.2,3.86,3.9,3.9,0,0,0,3.21,1.5,4.22,4.22,0,0,0,3.41-1.49,5.81,5.81,0,0,0,1.26-3.87Z"/><path d="M124.32,615.79a7,7,0,0,1,1.52-4.64,5.65,5.65,0,0,1,8.31,0,6.94,6.94,0,0,1,1.53,4.64V616a7,7,0,0,1-1.53,4.65,5.67,5.67,0,0,1-8.3,0,6.94,6.94,0,0,1-1.53-4.64Zm2.31.25a6,6,0,0,0,.85,3.33,3.06,3.06,0,0,0,5,0,6,6,0,0,0,.86-3.33v-.25a6,6,0,0,0-.86-3.32,2.84,2.84,0,0,0-2.53-1.32,2.78,2.78,0,0,0-2.5,1.32,6,6,0,0,0-.85,3.32Z"/><path d="M147.09,615.4v6.84h-2.31V605.18h6.53a6,6,0,0,1,4.25,1.41,5.31,5.31,0,0,1,0,7.42,6.06,6.06,0,0,1-4.25,1.39Zm0-1.8h4.22a3.39,3.39,0,0,0,2.58-5.65,3.27,3.27,0,0,0-2.58-1h-4.22Z"/><path d="M170.53,616.38a7,7,0,0,1-1.32,4.43,4.33,4.33,0,0,1-3.62,1.68,5,5,0,0,1-2.05-.39,3.94,3.94,0,0,1-1.51-1.18v6.2h-2.31V609.56h1.77l.36,1.65a4.23,4.23,0,0,1,1.55-1.4,4.65,4.65,0,0,1,2.16-.48,4.2,4.2,0,0,1,3.66,1.87,8.47,8.47,0,0,1,1.31,4.94Zm-2.31-.24a6.69,6.69,0,0,0-.85-3.55,2.76,2.76,0,0,0-2.5-1.38,3.08,3.08,0,0,0-1.7.45,3.38,3.38,0,0,0-1.14,1.23V619a3.38,3.38,0,0,0,1.14,1.23,3.21,3.21,0,0,0,1.72.44,2.82,2.82,0,0,0,2.48-1.21,5.21,5.21,0,0,0,.85-3.1Z"/><path d="M192.68,615.24a8.3,8.3,0,0,1-.4,2.55,7.1,7.1,0,0,1-1.12,2.15l2.55,2.47-1.59,1.51-2.6-2.5a6.23,6.23,0,0,1-1.78.8,7.5,7.5,0,0,1-2,.27,6.24,6.24,0,0,1-4.85-2.06,7.44,7.44,0,0,1-1.87-5.19v-3a7.44,7.44,0,0,1,1.87-5.19,6.22,6.22,0,0,1,4.85-2.07,6.59,6.59,0,0,1,5,2.06,7.33,7.33,0,0,1,1.94,5.2Zm-2.31-3.06a5.8,5.8,0,0,0-1.27-3.85,4.22,4.22,0,0,0-3.4-1.5,3.9,3.9,0,0,0-3.21,1.5,6,6,0,0,0-1.21,3.85v3.06a6,6,0,0,0,1.21,3.86,3.9,3.9,0,0,0,3.21,1.5,4.22,4.22,0,0,0,3.41-1.49,5.81,5.81,0,0,0,1.26-3.87Z"/><path d="M195.52,616.14a8.46,8.46,0,0,1,1.31-4.93,4.21,4.21,0,0,1,3.66-1.88,4.53,4.53,0,0,1,2,.44A4.32,4.32,0,0,1,204,611l.33-1.48h1.77v17.56h-2.31v-6.07a4.08,4.08,0,0,1-1.44,1.08,4.77,4.77,0,0,1-1.9.36,4.34,4.34,0,0,1-3.63-1.68,7,7,0,0,1-1.32-4.43Zm2.31.24a5.61,5.61,0,0,0,.79,3.12,2.73,2.73,0,0,0,2.43,1.19,3,3,0,0,0,1.63-.43,3.47,3.47,0,0,0,1.13-1.18v-6.4a3.55,3.55,0,0,0-1.13-1.12,3,3,0,0,0-1.6-.41,2.62,2.62,0,0,0-2.45,1.4,7.2,7.2,0,0,0-.8,3.59Z"/><path d="M218.28,614.85v7.39H216v-17h5.84a6.48,6.48,0,0,1,4.28,1.25,4.44,4.44,0,0,1,1.47,3.6,3.92,3.92,0,0,1-.68,2.29,4.75,4.75,0,0,1-2,1.55,3.48,3.48,0,0,1,2,1.48,4.85,4.85,0,0,1,.62,2.54v1.6a5.24,5.24,0,0,0,.17,1.43,2.14,2.14,0,0,0,.61,1v.28h-2.38a1.87,1.87,0,0,1-.58-1.17,9.14,9.14,0,0,1-.13-1.59v-1.56a3.1,3.1,0,0,0-.81-2.23,2.87,2.87,0,0,0-2.17-.84Zm0-1.82h3.29a4.25,4.25,0,0,0,2.82-.74,2.82,2.82,0,0,0,.86-2.27,3,3,0,0,0-.83-2.23,3.69,3.69,0,0,0-2.61-.79h-3.53Z"/><path d="M236.93,611.6l-1.19-.07a2.64,2.64,0,0,0-1.54.44,2.77,2.77,0,0,0-1,1.22v9h-2.3V609.56H233l.22,1.86a4.39,4.39,0,0,1,1.33-1.54,3.1,3.1,0,0,1,1.82-.55,2.56,2.56,0,0,1,.49,0l.39.09Z"/><path d="M254.7,617.94a2.54,2.54,0,0,0-.83-1.94,6.85,6.85,0,0,0-2.93-1.34,9.72,9.72,0,0,1-4.06-1.9,4,4,0,0,1-1.46-3.15,4.2,4.2,0,0,1,1.57-3.34,6.09,6.09,0,0,1,4.08-1.33,6,6,0,0,1,4.29,1.52,4.63,4.63,0,0,1,1.56,3.57l0,.07h-2.2a3.16,3.16,0,0,0-1-2.4,3.68,3.68,0,0,0-2.6-1,3.54,3.54,0,0,0-2.48.79,2.64,2.64,0,0,0-.86,2,2.25,2.25,0,0,0,.94,1.85,8.53,8.53,0,0,0,3.07,1.31,8.64,8.64,0,0,1,3.92,2,4.29,4.29,0,0,1,1.35,3.21,4,4,0,0,1-1.62,3.32,6.78,6.78,0,0,1-4.24,1.25,7.19,7.19,0,0,1-4.36-1.38A4.21,4.21,0,0,1,245,617.4l0-.07h2.2a2.88,2.88,0,0,0,1.22,2.48,4.62,4.62,0,0,0,2.75.88,4.16,4.16,0,0,0,2.6-.74A2.41,2.41,0,0,0,254.7,617.94Z"/><path d="M267.34,618.83a1.56,1.56,0,0,0-.58-1.24,5.6,5.6,0,0,0-2.2-.84,9.19,9.19,0,0,1-3.44-1.35,2.72,2.72,0,0,1-1.2-2.32,3.35,3.35,0,0,1,1.32-2.65,5.81,5.81,0,0,1,6.9.07,3.36,3.36,0,0,1,1.28,2.73l0,.07h-2.21a2,2,0,0,0-.72-1.49,2.58,2.58,0,0,0-1.82-.66,2.61,2.61,0,0,0-1.82.55,1.7,1.7,0,0,0-.6,1.31,1.38,1.38,0,0,0,.52,1.16,5.89,5.89,0,0,0,2.15.75,9.22,9.22,0,0,1,3.54,1.39,2.83,2.83,0,0,1,1.2,2.36,3.33,3.33,0,0,1-1.36,2.75,5.64,5.64,0,0,1-3.57,1.07,5.57,5.57,0,0,1-3.82-1.23,3.5,3.5,0,0,1-1.32-2.87l0-.07h2.2a2.15,2.15,0,0,0,.92,1.8,3.51,3.51,0,0,0,2,.57,3.16,3.16,0,0,0,1.93-.53A1.6,1.6,0,0,0,267.34,618.83Z"/><path d="M290.73,607H285.1v15.24h-2.31V607h-5.55v-1.82h13.49Z"/><path d="M296.05,606.51v3h2.4v1.72h-2.4V619a1.71,1.71,0,0,0,.37,1.26,1.32,1.32,0,0,0,1,.36,2.48,2.48,0,0,0,.45-.05c.16,0,.3-.07.41-.11l.32,1.58a2.13,2.13,0,0,1-.77.35,3.74,3.74,0,0,1-1,.13,3,3,0,0,1-2.24-.85,3.71,3.71,0,0,1-.83-2.67v-7.69h-2v-1.72h2v-3Z"/><path d="M319.79,605.18v11.33a5.51,5.51,0,0,1-1.83,4.4,7,7,0,0,1-4.71,1.58,6.56,6.56,0,0,1-4.55-1.59,5.6,5.6,0,0,1-1.77-4.39V605.18h2.31v11.33a4.11,4.11,0,0,0,1.12,3.07,3.94,3.94,0,0,0,2.89,1.11,4.26,4.26,0,0,0,3.05-1.11,4,4,0,0,0,1.18-3.07V605.18Z"/><path d="M331.18,620.37a4.3,4.3,0,0,1-1.54,1.57,4.59,4.59,0,0,1-5.4-.77,6.19,6.19,0,0,1-1.16-4.13v-7.48h2.31v7.5a4.68,4.68,0,0,0,.6,2.79,2.22,2.22,0,0,0,1.86.77,3.79,3.79,0,0,0,2-.5,3.17,3.17,0,0,0,1.22-1.41v-9.15h2.31v12.68h-2.08Z"/><path d="M348.23,617.77l.39,1.42h.07l.38-1.42,4.41-12.59H356l-6.34,17.06h-2l-6.34-17.06h2.5Z"/><path d="M362,618.51l.2.89h.07l.22-.89,2.92-9h2.36l-4.67,12.68h-1.74l-4.73-12.68H359Z"/><path d="M379.55,616.33l.3,2.23.07,0,.4-2.25,3-11.15h2.26l3,11.15.4,2.28h.07l.31-2.28,2.44-11.15h2.51l-4.13,17.06h-2.06l-3.41-11.83-.26-1.54h-.07l-.24,1.54-3.46,11.83h-2.06l-4.12-17.06h2.5Z"/><path d="M399.72,617.63l.3,1.63h.07l.3-1.63,2.53-8.07h1.85l2.55,8.07.32,1.81h.07l.38-1.81,1.87-8.07h2.42l-3.68,12.68h-1.86l-2.51-7.72-.48-2h-.07l-.45,2-2.46,7.72H399l-3.68-12.68h2.4Z"/><path d="M426.55,611.84l4-6.66h2.79l-5.41,8.46,5.53,8.6h-2.76l-4.09-6.77-4.1,6.77H419.7l5.53-8.6-5.41-8.46h2.77Z"/><path d="M440.08,614.24l2.7-4.68h2.69l-4.11,6.27,4.23,6.41h-2.65l-2.81-4.79-2.81,4.79h-2.68l4.23-6.41-4.11-6.27h2.66Z"/><path d="M459.7,613.85l4.45-8.67h2.64l-6,11.06v6h-2.3v-6.17l-5.89-10.89h2.64Z"/><path d="M472.64,617.54l.41,1.6h.07l3.11-9.58h2.57l-5.33,14.63a6.64,6.64,0,0,1-1.38,2.23,3.18,3.18,0,0,1-2.42,1,5.6,5.6,0,0,1-.71-.07,6.12,6.12,0,0,1-.67-.12l.23-1.82.42,0,.61,0a1.42,1.42,0,0,0,1.21-.66,6.72,6.72,0,0,0,.79-1.45l.55-1.32-4.71-12.43H470Z"/><path d="M488.85,620.44h9.54v1.8H486.25v-1.71L495.37,607h-9v-1.82H498v1.65Z"/><path d="M503.33,620.44h7.32v1.8H500.57v-1.61l6.86-9.24h-6.77v-1.83h9.59v1.57Z"/><path d="M88.91,534.38a3.87,3.87,0,0,0-1.25-2.92,10.45,10.45,0,0,0-4.4-2,14.52,14.52,0,0,1-6.09-2.85A6,6,0,0,1,75,521.88a6.29,6.29,0,0,1,2.36-5,9.1,9.1,0,0,1,6.12-2,8.94,8.94,0,0,1,6.44,2.3,6.92,6.92,0,0,1,2.33,5.35l0,.1H88.87a4.74,4.74,0,0,0-1.52-3.6,5.45,5.45,0,0,0-3.89-1.42,5.35,5.35,0,0,0-3.72,1.17,4,4,0,0,0-1.29,3.06,3.43,3.43,0,0,0,1.41,2.79,13.17,13.17,0,0,0,4.6,2,13.08,13.08,0,0,1,5.89,2.95,6.43,6.43,0,0,1,2,4.82,6,6,0,0,1-2.43,5,10.1,10.1,0,0,1-6.36,1.88A10.85,10.85,0,0,1,77,539.13a6.33,6.33,0,0,1-2.75-5.56l0-.1h3.3a4.32,4.32,0,0,0,1.83,3.72,7,7,0,0,0,4.13,1.31,6.18,6.18,0,0,0,3.89-1.11A3.59,3.59,0,0,0,88.91,534.38Z"/><path d="M108.88,538a6.46,6.46,0,0,1-2.31,2.36,6.28,6.28,0,0,1-3.25.82,6.12,6.12,0,0,1-4.85-2q-1.74-2-1.74-6.19V521.81h3.46v11.25c0,2,.3,3.43.9,4.19a3.34,3.34,0,0,0,2.79,1.14,5.67,5.67,0,0,0,3.05-.75,4.59,4.59,0,0,0,1.82-2.11V521.81h3.47v19H109.1Z"/><path d="M133.5,532a10.44,10.44,0,0,1-2,6.64,6.52,6.52,0,0,1-5.44,2.52,7,7,0,0,1-3.29-.74,6.18,6.18,0,0,1-2.31-2.21l-.57,2.58h-2.65V513.41h3.46v10.65a6.07,6.07,0,0,1,2.23-1.93,6.87,6.87,0,0,1,3.1-.67,6.31,6.31,0,0,1,5.48,2.82,12.58,12.58,0,0,1,2,7.4Zm-3.46-.36a10.56,10.56,0,0,0-1.2-5.34,4,4,0,0,0-3.67-2.06,4.53,4.53,0,0,0-2.7.78,5.58,5.58,0,0,0-1.75,2.1v8.24a5.72,5.72,0,0,0,1.75,2.2,4.49,4.49,0,0,0,2.74.79,4.1,4.1,0,0,0,3.63-1.74A8,8,0,0,0,130,532Z"/><path d="M166.5,540.83H163v-11.3H150.61v11.3h-3.47V515.24h3.47v11.57H163V515.24h3.47Z"/><path d="M179.87,541.2a8,8,0,0,1-6.39-2.62,10.06,10.06,0,0,1-2.29-6.89v-.77a9.91,9.91,0,0,1,2.36-6.78,7.46,7.46,0,0,1,5.78-2.68,6.88,6.88,0,0,1,5.72,2.38,9.77,9.77,0,0,1,1.91,6.31V532H174.79l0,.09a7.82,7.82,0,0,0,1.27,4.65,4.41,4.41,0,0,0,3.86,1.79A8.82,8.82,0,0,0,183,538a7.08,7.08,0,0,0,2.27-1.38l1.36,2.25a8.45,8.45,0,0,1-2.69,1.66A10.76,10.76,0,0,1,179.87,541.2Zm-.54-17a3.76,3.76,0,0,0-3,1.39,6.7,6.7,0,0,0-1.45,3.58l0,.09h8.57V529a5.6,5.6,0,0,0-1-3.43A3.69,3.69,0,0,0,179.33,524.19Z"/><path d="M202.53,540.83c-.12-.57-.21-1.08-.27-1.52a9.79,9.79,0,0,1-.11-1.32,8.11,8.11,0,0,1-2.53,2.29,6.38,6.38,0,0,1-3.35.92,6.16,6.16,0,0,1-4.52-1.52,5.57,5.57,0,0,1-1.56-4.19,4.9,4.9,0,0,1,2.21-4.26,10.25,10.25,0,0,1,6-1.54h3.77v-1.88a3.5,3.5,0,0,0-1-2.65,4,4,0,0,0-2.89-1,4.19,4.19,0,0,0-2.72.84,2.54,2.54,0,0,0-1,2l-3.29,0,0-.11a4.53,4.53,0,0,1,1.94-3.79,8.06,8.06,0,0,1,5.34-1.73,7.83,7.83,0,0,1,5.2,1.65,5.81,5.81,0,0,1,2,4.73V537a17.91,17.91,0,0,0,.1,2,9.93,9.93,0,0,0,.39,1.86Zm-5.75-2.53a6.21,6.21,0,0,0,3.4-1,4.71,4.71,0,0,0,2-2.22V532h-3.89a5.07,5.07,0,0,0-3.35,1.05,3.16,3.16,0,0,0-1.26,2.48,2.6,2.6,0,0,0,.8,2A3.24,3.24,0,0,0,196.78,538.3Z"/><path d="M209.84,531.68a12.73,12.73,0,0,1,2-7.4,6.32,6.32,0,0,1,5.5-2.82,6.81,6.81,0,0,1,3,.62,6.14,6.14,0,0,1,2.21,1.79V513.41h3.46v27.42h-2.66l-.52-2.4a6.17,6.17,0,0,1-2.31,2.07,6.84,6.84,0,0,1-3.18.7,6.54,6.54,0,0,1-5.45-2.52,10.49,10.49,0,0,1-2-6.64Zm3.47.36a8.13,8.13,0,0,0,1.17,4.62,4.14,4.14,0,0,0,3.66,1.73,4.57,4.57,0,0,0,2.6-.7,5.29,5.29,0,0,0,1.73-2v-8.88a5.4,5.4,0,0,0-1.74-1.87,4.59,4.59,0,0,0-2.55-.69,4,4,0,0,0-3.69,2.05,10.63,10.63,0,0,0-1.18,5.35Z"/><path d="M234.84,517h-3.46v-3.54h3.46Zm0,23.88h-3.46v-19h3.46Z"/><path d="M243.26,521.81l.25,2.83a6.83,6.83,0,0,1,2.38-2.34,6.31,6.31,0,0,1,3.26-.84,6.2,6.2,0,0,1,4.76,1.8c1.13,1.21,1.69,3.06,1.69,5.57v12h-3.46V528.9a5.1,5.1,0,0,0-1-3.57,4,4,0,0,0-3-1.05,5.33,5.33,0,0,0-2.71.64,4.57,4.57,0,0,0-1.77,1.8v14.11h-3.46v-19Z"/><path d="M260,531.68a12.73,12.73,0,0,1,2-7.4,6.3,6.3,0,0,1,5.48-2.82,6.75,6.75,0,0,1,3.18.73,6.49,6.49,0,0,1,2.3,2.1l.42-2.48h2.76v19.13a7.29,7.29,0,0,1-2.12,5.62,8.79,8.79,0,0,1-6.14,2,13,13,0,0,1-3-.38,11.65,11.65,0,0,1-2.8-1l.52-2.69a9.9,9.9,0,0,0,2.42.85,12.21,12.21,0,0,0,2.79.33,5.09,5.09,0,0,0,3.68-1.15,4.77,4.77,0,0,0,1.15-3.51v-2.16a6.16,6.16,0,0,1-2.23,1.81,7,7,0,0,1-3,.61,6.51,6.51,0,0,1-5.44-2.52,10.55,10.55,0,0,1-2-6.64Zm3.47.36a8.12,8.12,0,0,0,1.17,4.61,4.1,4.1,0,0,0,3.64,1.74,4.61,4.61,0,0,0,2.62-.71,5.55,5.55,0,0,0,1.74-2v-8.76a5.22,5.22,0,0,0-1.74-1.92,4.52,4.52,0,0,0-2.58-.71,3.94,3.94,0,0,0-3.67,2.05,10.63,10.63,0,0,0-1.18,5.35Z"/><path d="M291.88,531.38H281.51v-2.71h10.37Z"/><path d="M310.2,529.74v11.09h-3.47V515.26h8.76q4.2,0,6.41,1.86a6.68,6.68,0,0,1,2.22,5.42,5.74,5.74,0,0,1-1,3.42,6.81,6.81,0,0,1-3,2.32,5.27,5.27,0,0,1,3,2.23,7.3,7.3,0,0,1,.92,3.8v2.41a8.33,8.33,0,0,0,.26,2.15,3.21,3.21,0,0,0,.92,1.54v.42h-3.57a2.82,2.82,0,0,1-.88-1.75,14.46,14.46,0,0,1-.19-2.39v-2.34a4.61,4.61,0,0,0-1.22-3.34,4.27,4.27,0,0,0-3.25-1.27Zm0-2.72h4.94a6.38,6.38,0,0,0,4.22-1.12,4.23,4.23,0,0,0,1.3-3.4,4.38,4.38,0,0,0-1.26-3.35,5.54,5.54,0,0,0-3.91-1.19H310.2Z"/><path d="M328.36,531.15a10.48,10.48,0,0,1,2.28-6.95,7.64,7.64,0,0,1,6.21-2.74,7.74,7.74,0,0,1,6.25,2.73,10.46,10.46,0,0,1,2.29,7v.39a10.41,10.41,0,0,1-2.29,7,8.52,8.52,0,0,1-12.45,0,10.4,10.4,0,0,1-2.29-7Zm3.46.39a9,9,0,0,0,1.27,5,4.6,4.6,0,0,0,7.55,0,9,9,0,0,0,1.29-5v-.39a8.91,8.91,0,0,0-1.3-5,4.23,4.23,0,0,0-3.78-2,4.18,4.18,0,0,0-3.76,2,9.07,9.07,0,0,0-1.27,5Z"/><path d="M365.87,532a10.44,10.44,0,0,1-2,6.64,6.53,6.53,0,0,1-5.44,2.52,7,7,0,0,1-3.3-.74,6.18,6.18,0,0,1-2.31-2.21l-.56,2.58h-2.65V513.41h3.46v10.65a6.12,6.12,0,0,1,2.22-1.93,6.9,6.9,0,0,1,3.1-.67,6.32,6.32,0,0,1,5.49,2.82,12.65,12.65,0,0,1,2,7.4Zm-3.47-.36a10.56,10.56,0,0,0-1.2-5.34,3.94,3.94,0,0,0-3.66-2.06,4.53,4.53,0,0,0-2.7.78,5.4,5.4,0,0,0-1.75,2.1v8.24a5.63,5.63,0,0,0,1.75,2.2,4.48,4.48,0,0,0,2.73.79,4.12,4.12,0,0,0,3.64-1.74A8,8,0,0,0,362.4,532Z"/><path d="M369.28,531.15a10.48,10.48,0,0,1,2.28-6.95,7.65,7.65,0,0,1,6.21-2.74,7.74,7.74,0,0,1,6.25,2.73,10.41,10.41,0,0,1,2.29,7v.39a10.45,10.45,0,0,1-2.28,7,8.53,8.53,0,0,1-12.46,0,10.4,10.4,0,0,1-2.29-7Zm3.46.39a9,9,0,0,0,1.28,5,4.59,4.59,0,0,0,7.54,0,9,9,0,0,0,1.29-5v-.39a9,9,0,0,0-1.29-5,4.26,4.26,0,0,0-3.79-2,4.17,4.17,0,0,0-3.75,2,9.08,9.08,0,0,0-1.28,5Z"/><path d="M395.36,517.23v4.58H399v2.57h-3.61v11.55a2.57,2.57,0,0,0,.56,1.88,2,2,0,0,0,1.47.55,3.37,3.37,0,0,0,.66-.08c.25-.06.45-.11.62-.17l.47,2.37A3,3,0,0,1,398,541a5.51,5.51,0,0,1-1.49.2,4.48,4.48,0,0,1-3.36-1.27,5.54,5.54,0,0,1-1.25-4V524.38h-3v-2.57h3v-4.58Z"/><path d="M401.87,531.15a10.48,10.48,0,0,1,2.28-6.95,7.65,7.65,0,0,1,6.21-2.74,7.74,7.74,0,0,1,6.25,2.73,10.41,10.41,0,0,1,2.29,7v.39a10.45,10.45,0,0,1-2.28,7,8.53,8.53,0,0,1-12.46,0,10.4,10.4,0,0,1-2.29-7Zm3.46.39a9.12,9.12,0,0,0,1.27,5,4.6,4.6,0,0,0,7.55,0,9,9,0,0,0,1.29-5v-.39a9,9,0,0,0-1.29-5,4.26,4.26,0,0,0-3.79-2,4.19,4.19,0,0,0-3.76,2,9.16,9.16,0,0,0-1.27,5Z"/><rect class="cls-4" x="632.23" y="390.03" width="192.98" height="175.75"/><path d="M226.69,755.15q-6.08,5.57-16.16,5.56h-16v28.82h-15V784.9h9.27V724.27h-9.27v-4.64h30q10.91,0,17.09,5.36t6.17,15.23Q232.76,749.6,226.69,755.15Zm-4.12-27q-4.53-3.91-14.1-3.91h-13.9v31.81h13.9q9,0,13.69-3.81T227,740.84Q227,732,222.57,728.18Z"/><path d="M275,783.56a23.2,23.2,0,0,1-17.4,7.42,22.63,22.63,0,0,1-17.29-7.42,25.87,25.87,0,0,1-7-18.32q0-11,6.89-18.32a24,24,0,0,1,34.7,0,27.62,27.62,0,0,1,.1,36.64Zm-3.81-33.25a17.46,17.46,0,0,0-13.59-6,17.27,17.27,0,0,0-13.48,5.87q-5.35,6-5.36,15T244,780.17a18.44,18.44,0,0,0,27.08.1q5.34-6,5.35-15T271.16,750.31Z"/><path d="M291.34,789.53V724.27h-8.86v-4.64h14.21V784.9h8.75v4.63Z"/><path d="M314,789.53V784.9h-.1V745.47h-8.54v-4.63h13.89V784.9h8.34v4.63Zm4-63.92a4.12,4.12,0,0,1-7-2.89,4.07,4.07,0,0,1,1.23-3,4,4,0,0,1,5.77,0,3.94,3.94,0,0,1,1.23,2.88A4.09,4.09,0,0,1,318,725.61Z"/><path d="M372.35,771.08a23.68,23.68,0,0,1-16,5.56,24.87,24.87,0,0,1-11.12-2.58,20.45,20.45,0,0,1-4.79-3.29,23.18,23.18,0,0,1-3.76-4.53v9.37H332v-24h4.73v2.47q0,6.9,5.77,12.15a19.81,19.81,0,0,0,14,5.35,17.35,17.35,0,0,0,11.84-4.22,13.52,13.52,0,0,0,4.73-10.7,11,11,0,0,0-4.42-9.27q-4.53-3.49-15.44-6.07t-16-7.21q-5-4.43-5.05-12.46a15.29,15.29,0,0,1,5.87-12.14,22,22,0,0,1,14.52-4.94,45.42,45.42,0,0,1,5.25.3,18,18,0,0,1,4.94,1.34c1.58.76,3,1.48,4.22,2.16a15.08,15.08,0,0,1,3.71,3.09,17.85,17.85,0,0,1,3.19,4.63,12,12,0,0,1,1,3.5c.2,1.38.34,2.51.41,3.4s.1,1.41.1,1.55H370v-1.34a14.32,14.32,0,0,0-.2-2.16,15,15,0,0,0-.77-2.84,18.47,18.47,0,0,0-1.44-2.93,9.18,9.18,0,0,0-2.22-2.47,13.27,13.27,0,0,0-6-2.62,41.69,41.69,0,0,0-7.1-.57,15.65,15.65,0,0,0-10.5,3.5,11.08,11.08,0,0,0-4.22,8.75,10.27,10.27,0,0,0,4.53,9.06,38.61,38.61,0,0,0,12.35,4.94q14.1,3.39,19.25,8.24t5.15,13.17A17.45,17.45,0,0,1,372.35,771.08Z"/><path d="M392.73,752.44a21.63,21.63,0,0,0,5.87,14.21,19.55,19.55,0,0,0,14.83,6.07,15.87,15.87,0,0,0,3.65-.51q2.12-.51,4-1.08t4.53-1.6l1.24,3.91q-3,1.14-5.15,1.81c-1.44.44-3,.85-4.63,1.23a19.92,19.92,0,0,1-4.43.57q-10.91,0-18-7.31t-7.11-18.43q0-11.12,7-18.43t17.81-7.3q10.5,0,17.2,7.1t7.2,19.76ZM425,735.05a18.11,18.11,0,0,0-13.08-4.94,17.71,17.71,0,0,0-13.79,6.07,21.39,21.39,0,0,0-5.15,11.63H431A21.51,21.51,0,0,0,425,735.05Z"/><path d="M449.56,752.44a21.58,21.58,0,0,0,5.87,14.21,19.51,19.51,0,0,0,14.82,6.07,15.8,15.8,0,0,0,3.65-.51c1.41-.34,2.73-.7,4-1.08s2.74-.91,4.53-1.6l1.23,3.91q-3,1.14-5.14,1.81c-1.45.44-3,.85-4.64,1.23a19.84,19.84,0,0,1-4.42.57q-10.92,0-18-7.31t-7.1-18.43q0-11.12,7-18.43t17.81-7.3q10.5,0,17.19,7.1t7.21,19.76Zm32.22-17.39a18.08,18.08,0,0,0-13.07-4.94,17.75,17.75,0,0,0-13.8,6.07q-4,4.32-5.15,11.63h38.09A21.46,21.46,0,0,0,481.78,735.05Z"/><line class="cls-5" x1="327.42" y1="787.18" x2="495.83" y2="787.18"/><path class="cls-6" d="M90.82,726.12a6.64,6.64,0,0,1,13.28,0"/><path class="cls-6" d="M128.41,726.12a6.64,6.64,0,0,1,13.28,0"/><path class="cls-6" d="M78.06,768.3l8.81-39.68s9.5-7,21.22,0l1.7,45.88"/><circle class="cls-6" cx="93.32" cy="774.5" r="16.47"/><path class="cls-6" d="M154.36,768.37l-8.72-39.77s-9.5-6.92-21.22,0l-1.73,43.79"/><circle class="cls-6" cx="139.02" cy="774.5" r="16.47"/><path class="cls-6" d="M123.26,758a12,12,0,0,0-14,0L108.91,748s7.78-5,14.69,0Z"/><circle class="cls-2" cx="139.19" cy="774.5" r="12.72"/><path class="cls-7" d="M142.12,764.86a7.24,7.24,0,0,1,5.89,5"/><circle class="cls-1" cx="93.32" cy="774.5" r="12.72"/><path class="cls-7" d="M91.63,784.56a7.22,7.22,0,0,1-6.58-4"/><circle class="cls-8" cx="93.32" cy="774.5" r="12.72"/><circle class="cls-8" cx="139.19" cy="774.5" r="12.72"/><rect class="cls-4" x="584.52" y="667.92" width="457.85" height="162.08"/><path class="cls-9" d="M746.63,747.22q-6.07,5.56-16.17,5.56h-16v28.83h-15V777h9.26V716.34h-9.26v-4.63h30q10.9,0,17.08,5.35t6.18,15.24Q752.7,741.66,746.63,747.22Zm-4.12-27q-4.53-3.9-14.1-3.91h-13.9v31.81h13.9q9,0,13.69-3.81t4.84-11.42Q746.94,724.06,742.51,720.25Z"/><path class="cls-9" d="M794.91,775.64a23.19,23.19,0,0,1-17.4,7.41,22.65,22.65,0,0,1-17.3-7.41,25.93,25.93,0,0,1-7-18.33q0-11,6.9-18.32a24,24,0,0,1,34.69,0,25.88,25.88,0,0,1,7,18.32A26.15,26.15,0,0,1,794.91,775.64Zm-3.81-33.25a18.46,18.46,0,0,0-27.08-.11q-5.35,6-5.35,15t5.25,14.93a18.44,18.44,0,0,0,27.08.1q5.34-6,5.35-15T791.1,742.39Z"/><path class="cls-9" d="M811.28,781.61V716.34h-8.86v-4.63h14.21V777h8.75v4.63Z"/><path class="cls-9" d="M833.92,781.61V777h-.1V737.55h-8.54v-4.63h13.89V777h8.34v4.63Zm4-63.93a4,4,0,0,1-5.77,0,3.94,3.94,0,0,1-1.23-2.88,4.09,4.09,0,0,1,1.23-3,4.12,4.12,0,0,1,7,2.88A4.08,4.08,0,0,1,837.94,717.68Z"/><path class="cls-9" d="M892.29,763.15a23.64,23.64,0,0,1-16,5.56,25,25,0,0,1-11.11-2.57,20,20,0,0,1-4.79-3.3,22.89,22.89,0,0,1-3.76-4.53v9.37h-4.73v-24h4.73v2.48q0,6.89,5.77,12.14a19.82,19.82,0,0,0,14,5.36,17.42,17.42,0,0,0,11.84-4.22A13.55,13.55,0,0,0,893,748.74a11,11,0,0,0-4.43-9.27q-4.53-3.5-15.44-6.07t-15.95-7.21q-5.06-4.43-5.05-12.45A15.29,15.29,0,0,1,858,701.59a22,22,0,0,1,14.52-4.94,43.29,43.29,0,0,1,5.25.31,17.32,17.32,0,0,1,4.94,1.34q2.35,1.13,4.22,2.16a14.66,14.66,0,0,1,3.7,3.09,20.46,20.46,0,0,1,1.81,2.21,21.66,21.66,0,0,1,1.38,2.42,11.57,11.57,0,0,1,1,3.5c.21,1.37.35,2.51.42,3.4s.1,1.4.1,1.54h-5.46v-1.34a15.77,15.77,0,0,0-.2-2.16,14.86,14.86,0,0,0-.77-2.83,17.33,17.33,0,0,0-1.45-2.93,9,9,0,0,0-2.21-2.48,13.43,13.43,0,0,0-6-2.62,41.77,41.77,0,0,0-7.1-.57,15.65,15.65,0,0,0-10.5,3.5,11.1,11.1,0,0,0-4.22,8.75A10.25,10.25,0,0,0,862,723a38.29,38.29,0,0,0,12.35,4.94q14.1,3.4,19.25,8.24t5.15,13.18A17.45,17.45,0,0,1,892.29,763.15Z"/><path class="cls-9" d="M912.67,744.52a21.6,21.6,0,0,0,5.87,14.2,19.52,19.52,0,0,0,14.82,6.08,15.48,15.48,0,0,0,3.66-.52c1.4-.34,2.73-.7,4-1.08s2.75-.91,4.53-1.59l1.24,3.91c-2,.75-3.71,1.36-5.15,1.8s-3,.86-4.63,1.24a20.54,20.54,0,0,1-4.43.56q-10.9,0-18-7.31t-7.11-18.42q0-11.13,7-18.43a23.62,23.62,0,0,1,17.81-7.31q10.5,0,17.19,7.1t7.21,19.77Zm32.22-17.4a18.12,18.12,0,0,0-13.07-4.94A17.71,17.71,0,0,0,918,728.25a21.42,21.42,0,0,0-5.15,11.64H951A21.49,21.49,0,0,0,944.89,727.12Z"/><path class="cls-9" d="M969.5,744.52a21.54,21.54,0,0,0,5.86,14.2,19.55,19.55,0,0,0,14.83,6.08,15.34,15.34,0,0,0,3.65-.52c1.41-.34,2.73-.7,4-1.08s2.74-.91,4.53-1.59l1.23,3.91c-2,.75-3.7,1.36-5.15,1.8s-3,.86-4.63,1.24a20.45,20.45,0,0,1-4.42.56q-10.92,0-18-7.31t-7.1-18.42q0-11.13,7-18.43t17.81-7.31q10.5,0,17.19,7.1t7.2,19.77Zm32.22-17.4a18.13,18.13,0,0,0-13.08-4.94,17.73,17.73,0,0,0-13.79,6.07c-2.68,2.89-4.39,6.76-5.15,11.64h38.09A21.54,21.54,0,0,0,1001.72,727.12Z"/><line class="cls-10" x1="847.36" y1="779.25" x2="1015.77" y2="779.25"/><path class="cls-6" d="M615.7,719.85a6.64,6.64,0,0,1,13.28,0"/><path class="cls-6" d="M653.3,719.85a6.64,6.64,0,1,1,13.28,0"/><path class="cls-6" d="M603,762l8.81-39.69s9.49-7,21.21,0l1.71,45.89"/><circle class="cls-6" cx="618.21" cy="768.23" r="16.47"/><path class="cls-6" d="M679.25,762.1l-8.73-39.77s-9.49-6.92-21.21,0l-1.74,43.78"/><circle class="cls-6" cx="663.91" cy="768.23" r="16.47"/><path class="cls-6" d="M648.15,751.76a12,12,0,0,0-14,0l-.33-10.07s7.78-5,14.68,0Z"/><circle class="cls-2" cx="664.07" cy="768.23" r="12.72"/><path class="cls-7" d="M667,758.58a7.22,7.22,0,0,1,5.88,5"/><circle class="cls-1" cx="618.21" cy="768.23" r="12.72"/><path class="cls-7" d="M616.52,778.29a7.26,7.26,0,0,1-6.59-4"/><circle class="cls-8" cx="618.21" cy="768.23" r="12.72"/><circle class="cls-8" cx="664.07" cy="768.23" r="12.72"/><path class="cls-11" d="M687.66,425.68a10.79,10.79,0,1,1,21.58,0"/><path class="cls-11" d="M748.76,425.68a10.79,10.79,0,0,1,21.58,0"/><path class="cls-11" d="M666.93,494.22l14.32-64.49s15.43-11.3,34.48,0l2.77,74.57"/><circle class="cls-11" cx="691.73" cy="504.3" r="26.77"/><path class="cls-11" d="M790.93,494.33l-14.18-64.62s-15.43-11.25-34.48,0l-2.82,71.15"/><circle class="cls-11" cx="766" cy="504.3" r="26.77"/><path class="cls-11" d="M740.39,477.54c-12-8.44-22.78,0-22.78,0l-.54-16.37s12.64-8.18,23.86,0Z"/><circle class="cls-2" cx="766.27" cy="504.3" r="20.68"/><path class="cls-12" d="M771,488.62s6.78.48,9.57,8.09"/><circle class="cls-1" cx="691.73" cy="504.3" r="20.68"/><path class="cls-12" d="M689,520.64s-6.77.58-10.7-6.51"/><circle class="cls-13" cx="691.73" cy="504.3" r="20.68"/><circle class="cls-13" cx="766.27" cy="504.3" r="20.68"/><path class="cls-14" d="M913.93,429.37a11.07,11.07,0,0,1,22.14,0"/><path class="cls-14" d="M976.61,429.37a11.07,11.07,0,0,1,22.14,0"/><path class="cls-14" d="M892.66,499.69l14.69-66.16s15.83-11.6,35.37,0L945.57,510"/><circle class="cls-14" cx="918.1" cy="510.04" r="27.46"/><path class="cls-14" d="M1019.88,499.81l-14.55-66.31S989.5,422,970,433.5l-2.89,73"/><circle class="cls-14" cx="994.3" cy="510.04" r="27.46"/><path class="cls-14" d="M968,482.58c-12.32-8.66-23.38,0-23.38,0l-.55-16.79s13-8.4,24.48,0Z"/><circle class="cls-2" cx="994.58" cy="510.04" r="21.22"/><path class="cls-15" d="M999.47,494s6.95.49,9.81,8.3"/><circle class="cls-1" cx="918.1" cy="510.04" r="21.22"/><path class="cls-15" d="M915.28,526.81s-6.95.59-11-6.69"/><circle class="cls-16" cx="918.1" cy="510.04" r="21.22"/><circle class="cls-16" cx="994.58" cy="510.04" r="21.22"/><rect class="cls-17" y="1.04" width="39.5" height="1078.96"/><path d="M158.89,955.19q-6.07,5.56-16.16,5.56h-16v28.83h-15v-4.64H121V924.31h-9.26v-4.63H141.7q10.92,0,17.09,5.35T165,940.27Q165,949.63,158.89,955.19Zm-4.11-27c-3-2.6-7.72-3.91-14.11-3.91h-13.9v31.81h13.9q9,0,13.69-3.81c3.23-2.61,4.84-6.41,4.84-11.43Q159.2,932,154.78,928.22Z"/><path d="M207.17,983.61A23.15,23.15,0,0,1,189.78,991a22.64,22.64,0,0,1-17.3-7.41,25.89,25.89,0,0,1-7-18.33q0-11,6.9-18.32a24,24,0,0,1,34.69,0,27.63,27.63,0,0,1,.1,36.65Zm-3.81-33.25a18.42,18.42,0,0,0-27.07-.11q-5.35,6-5.35,15t5.25,14.93a18.43,18.43,0,0,0,27.07.1q5.36-6,5.36-15T203.36,950.36Z"/><path d="M223.54,989.58V924.31h-8.85v-4.63H228.9v65.26h8.75v4.64Z"/><path d="M246.19,989.58v-4.64h-.1V945.52h-8.55v-4.64h13.9v44.06h8.34v4.64Zm4-63.93a4.12,4.12,0,0,1-7-2.88,4.08,4.08,0,0,1,1.24-3,4.12,4.12,0,0,1,7,2.88A4,4,0,0,1,250.2,925.65Z"/><path d="M304.56,971.12a23.68,23.68,0,0,1-16,5.56,25,25,0,0,1-11.12-2.57,20.43,20.43,0,0,1-4.78-3.3,22.89,22.89,0,0,1-3.76-4.53v9.37H264.2v-24h4.74v2.47q0,6.9,5.76,12.15a19.83,19.83,0,0,0,14,5.35,17.34,17.34,0,0,0,11.84-4.22,13.5,13.5,0,0,0,4.74-10.7,11.07,11.07,0,0,0-4.43-9.27q-4.53-3.5-15.44-6.07t-16-7.21q-5-4.42-5-12.45a15.29,15.29,0,0,1,5.87-12.15,22,22,0,0,1,14.51-4.94,43,43,0,0,1,5.25.31,17.55,17.55,0,0,1,4.94,1.33q2.37,1.14,4.22,2.17a14.31,14.31,0,0,1,3.71,3.09,17.41,17.41,0,0,1,3.19,4.63,11.57,11.57,0,0,1,1,3.5c.21,1.37.34,2.5.41,3.39s.11,1.41.11,1.55h-5.46v-1.34a14.55,14.55,0,0,0-.21-2.16,13.36,13.36,0,0,0-.77-2.83,18.56,18.56,0,0,0-1.44-2.94,9,9,0,0,0-2.21-2.47,13.48,13.48,0,0,0-6-2.62,41.81,41.81,0,0,0-7.11-.57,15.68,15.68,0,0,0-10.5,3.5,11.13,11.13,0,0,0-4.22,8.75,10.27,10.27,0,0,0,4.53,9.06,38.45,38.45,0,0,0,12.36,4.94q14.1,3.4,19.25,8.24T311,957.33A17.45,17.45,0,0,1,304.56,971.12Z"/><path d="M324.94,952.49a21.55,21.55,0,0,0,5.87,14.2,19.52,19.52,0,0,0,14.82,6.08,15.48,15.48,0,0,0,3.66-.52q2.1-.51,4-1.08t4.53-1.59l1.23,3.91q-3,1.13-5.14,1.8c-1.44.44-3,.86-4.64,1.23a19.84,19.84,0,0,1-4.42.57q-10.92,0-18-7.31t-7.1-18.43q0-11.11,7-18.42a23.6,23.6,0,0,1,17.81-7.31q10.5,0,17.19,7.1t7.21,19.77Zm32.22-17.4a18.08,18.08,0,0,0-13.07-4.94,17.75,17.75,0,0,0-13.8,6.07,21.45,21.45,0,0,0-5.14,11.63h38.08A21.48,21.48,0,0,0,357.16,935.09Z"/><path d="M381.76,952.49a21.6,21.6,0,0,0,5.87,14.2,19.54,19.54,0,0,0,14.83,6.08,15.48,15.48,0,0,0,3.65-.52q2.11-.51,4-1.08t4.53-1.59l1.24,3.91q-3,1.13-5.15,1.8c-1.44.44-3,.86-4.63,1.23a20,20,0,0,1-4.43.57q-10.9,0-18-7.31t-7.11-18.43q0-11.11,7-18.42a23.62,23.62,0,0,1,17.81-7.31q10.5,0,17.19,7.1t7.21,19.77ZM414,935.09a18.08,18.08,0,0,0-13.07-4.94,17.71,17.71,0,0,0-13.79,6.07A21.39,21.39,0,0,0,382,947.85h38.09A21.49,21.49,0,0,0,414,935.09Z"/><line class="cls-5" x1="259.62" y1="987.22" x2="428.04" y2="987.22"/><rect class="cls-4" x="620.41" y="874.31" width="386.07" height="162.08"/><path class="cls-9" d="M710.74,953.62q-6.07,5.55-16.16,5.56h-16V988h-15v-4.63h9.27V922.73h-9.27V918.1h30q10.91,0,17.09,5.36t6.17,15.23Q716.81,948.07,710.74,953.62Zm-4.12-27q-4.53-3.92-14.1-3.92h-13.9v31.81h13.9q9,0,13.69-3.8t4.84-11.43Q711.05,930.46,706.62,926.65Z"/><path class="cls-9" d="M759,982a23.16,23.16,0,0,1-17.4,7.41A22.63,22.63,0,0,1,724.33,982a25.88,25.88,0,0,1-7-18.32q0-11,6.9-18.33a24,24,0,0,1,34.69,0A27.63,27.63,0,0,1,759,982Zm-3.81-33.25a17.46,17.46,0,0,0-13.59-6,17.24,17.24,0,0,0-13.48,5.87q-5.35,6-5.35,15T728,978.63a18.44,18.44,0,0,0,27.07.11q5.35-6,5.35-15T755.21,948.78Z"/><path class="cls-9" d="M775.39,988V922.73h-8.85V918.1h14.2v65.27h8.75V988Z"/><path class="cls-9" d="M798,988v-4.63h-.11V943.94h-8.54v-4.63h13.9v44.06h8.33V988Zm4-63.93a4.12,4.12,0,0,1-7-2.88,4,4,0,0,1,1.24-3,4.12,4.12,0,0,1,7,2.88A4,4,0,0,1,802.05,924.07Z"/><path class="cls-9" d="M856.41,969.54a23.68,23.68,0,0,1-16,5.56,25,25,0,0,1-11.12-2.57,20.45,20.45,0,0,1-4.79-3.29,23.43,23.43,0,0,1-3.75-4.53v9.36h-4.74v-24h4.74v2.47q0,6.9,5.76,12.15a19.86,19.86,0,0,0,14,5.35,17.4,17.4,0,0,0,11.84-4.22,13.53,13.53,0,0,0,4.74-10.71,11,11,0,0,0-4.43-9.26q-4.53-3.51-15.44-6.08t-16-7.2q-5-4.43-5-12.46A15.31,15.31,0,0,1,822.12,908,22,22,0,0,1,836.64,903a43.29,43.29,0,0,1,5.25.31,17.65,17.65,0,0,1,4.94,1.34q2.37,1.14,4.22,2.16a14.9,14.9,0,0,1,3.71,3.09,21.49,21.49,0,0,1,1.8,2.21,22.52,22.52,0,0,1,1.39,2.42,11.86,11.86,0,0,1,1,3.5c.2,1.38.34,2.51.41,3.4s.1,1.41.1,1.54H854v-1.34a14.79,14.79,0,0,0-.21-2.16,14.16,14.16,0,0,0-.77-2.83,18.47,18.47,0,0,0-1.44-2.93,8.88,8.88,0,0,0-2.22-2.47,13.39,13.39,0,0,0-6-2.63,42.68,42.68,0,0,0-7.1-.56,15.61,15.61,0,0,0-10.5,3.5,11.12,11.12,0,0,0-4.22,8.75,10.27,10.27,0,0,0,4.53,9.06,38.94,38.94,0,0,0,12.35,4.94q14.1,3.39,19.25,8.23t5.15,13.18A17.44,17.44,0,0,1,856.41,969.54Z"/><path class="cls-9" d="M876.79,950.91a21.58,21.58,0,0,0,5.87,14.21,19.51,19.51,0,0,0,14.82,6.07,15.8,15.8,0,0,0,3.65-.51c1.41-.35,2.73-.71,4-1.09s2.74-.9,4.53-1.59l1.23,3.91c-2,.76-3.7,1.36-5.15,1.8s-3,.86-4.63,1.24a20.45,20.45,0,0,1-4.42.56q-10.92,0-18-7.3t-7.1-18.43q0-11.12,7-18.43T896.35,924q10.5,0,17.19,7.11t7.2,19.76ZM909,933.51a18.13,18.13,0,0,0-13.08-4.94,17.75,17.75,0,0,0-13.79,6.08q-4,4.32-5.15,11.63h38.09A21.51,21.51,0,0,0,909,933.51Z"/><path class="cls-9" d="M933.61,950.91a21.58,21.58,0,0,0,5.87,14.21,19.51,19.51,0,0,0,14.82,6.07,16,16,0,0,0,3.66-.51c1.4-.35,2.73-.71,4-1.09s2.75-.9,4.53-1.59l1.24,3.91c-2,.76-3.71,1.36-5.15,1.8s-3,.86-4.63,1.24a20.54,20.54,0,0,1-4.43.56q-10.92,0-18-7.3t-7.1-18.43q0-11.12,7-18.43A23.6,23.6,0,0,1,953.17,924q10.5,0,17.19,7.11t7.21,19.76Zm32.22-17.4a18.12,18.12,0,0,0-13.07-4.94,17.76,17.76,0,0,0-13.8,6.08,21.45,21.45,0,0,0-5.14,11.63h38.09A21.58,21.58,0,0,0,965.83,933.51Z"/><line class="cls-10" x1="811.47" y1="985.64" x2="979.89" y2="985.64"/></svg>