<svg id="Layer_1" data-name="Layer 1" xmlns="http://www.w3.org/2000/svg" viewBox="0 0 1080 1080"><defs><style>.cls-1{fill:#3689d1;}.cls-2{fill:#3691d1;}.cls-3{fill:#fff;}.cls-4,.cls-5{fill:none;stroke:#fff;stroke-miterlimit:10;}.cls-4{stroke-width:4.26px;}.cls-5{stroke-width:3.41px;}.cls-6{fill:#ee8b8b;}.cls-7{fill:#ff9799;}.cls-8{fill:#666;}.cls-9{fill:gray;}.cls-10{fill:#111;}.cls-11{fill:#1a1a1a;}</style></defs><circle class="cls-1" cx="120.36" cy="130.78" r="87.16"/><path class="cls-2" d="M59.08,192.77a87.16,87.16,0,0,1,122.55-124"/><path class="cls-3" d="M110.9,104,92.65,153.75H89L70.13,104H63.29v-3.49h10.1L74.56,104l16.61,43.49,16-43.49h-6.44v-3.49h17V104Z"/><path class="cls-3" d="M156.79,153.21l-11.88-26.33H133.26v26.41h-4.34V104h-7.77v-3.49h25.94a14.9,14.9,0,0,1,10.25,3.57,11.6,11.6,0,0,1,4,9.09,13.12,13.12,0,0,1-2.88,8.62q-2.87,3.42-9.24,4.73l10.56,23.22h6.76v3.5Zm-2.71-46.6Q151.2,104,146.16,104h-12.9v19.42h11.5q5.82,0,9-2.49a8.82,8.82,0,0,0,3.26-7.37A8.73,8.73,0,0,0,154.08,106.61Z"/><circle class="cls-1" cx="328.07" cy="130.78" r="87.16"/><path class="cls-2" d="M266.79,192.77a87.16,87.16,0,0,1,122.55-124"/><path class="cls-3" d="M315.1,153.21v-3.5h6.6l-5.82-16.54H294.6l-5.67,16.54H289v3.5H278v-3.5h6.68L300.5,104l1.17-3.49h14.91V104H310l16.08,45.74h6.52v3.5Zm-9.79-51.1-9.47,27.57h18.87Z"/><path class="cls-3" d="M366.59,153.21l-11.88-26.33H343.06v26.41h-4.35V104h-7.77v-3.49h25.94a14.9,14.9,0,0,1,10.25,3.57,11.6,11.6,0,0,1,4,9.09,13.17,13.17,0,0,1-2.87,8.62q-2.88,3.42-9.25,4.73l10.57,23.22h6.75v3.5Zm-2.72-46.6Q361,104,356,104H343.06v19.42h11.49q5.82,0,9-2.49a8.82,8.82,0,0,0,3.26-7.37A8.7,8.7,0,0,0,363.87,106.61Z"/><circle class="cls-1" cx="535.78" cy="130.78" r="87.16"/><path class="cls-2" d="M474.5,192.77a87.16,87.16,0,0,1,122.55-124"/><path class="cls-3" d="M521,149.64a17.32,17.32,0,0,1-12,4.27,17,17,0,0,1-11.89-4.58l2.8-2.41a12.24,12.24,0,0,0,9.24,3.73,12.8,12.8,0,0,0,9.09-3.42,11.38,11.38,0,0,0,3.57-8.7,10.43,10.43,0,0,0-3.42-8.23,13,13,0,0,0-9.16-3.11l-3.42.08v-3l1.4-.15a30.65,30.65,0,0,0,4.54-.9,9.12,9.12,0,0,0,3.69-2,11.31,11.31,0,0,0,.54-15.3,9.57,9.57,0,0,0-7.3-3,9.36,9.36,0,0,0-7.14,2.79c-1.81,1.87-2.74,4.58-2.8,8.16H495q.23-6.77,4-10.49a14.77,14.77,0,0,1,19.8.16,13.26,13.26,0,0,1,3.88,9.78,11.87,11.87,0,0,1-2.09,7.15,13.41,13.41,0,0,1-6.53,4.81,14,14,0,0,1,8.47,4.27,12.82,12.82,0,0,1,3.18,9.09A14.28,14.28,0,0,1,521,149.64Z"/><path class="cls-3" d="M571.19,145.29q-6.29,7.92-22,7.92H534V104h-7.3v-3.49h22.6q14.37,0,21.2,7.3t6.91,19.1A29.19,29.19,0,0,1,571.19,145.29ZM567,110q-6.22-6-17.32-6H538.34v45.74h11.49q11.34,0,17.32-5.74t5.9-17.09Q573.05,115.93,567,110Z"/><circle class="cls-1" cx="743.49" cy="130.78" r="87.16"/><path class="cls-2" d="M682.21,192.77a87.16,87.16,0,0,1,122.55-124"/><path class="cls-3" d="M732,153.21H701l-.07-1.09a15.34,15.34,0,0,1,.85-5.71,41.39,41.39,0,0,1,3-6.64q3.88-7.29,13.67-13.28a30.75,30.75,0,0,0,7-5.66,11.39,11.39,0,0,0,2.41-7.54,10.4,10.4,0,0,0-2.88-7.45,10.23,10.23,0,0,0-7.3-3q-6,0-8.85,3.72l-2.41-2.4c2.75-3.06,6.47-4.59,11.19-4.59q6.44,0,10.33,3.73a13.49,13.49,0,0,1,3.88,9.94,14.92,14.92,0,0,1-2.25,8.39,25.61,25.61,0,0,1-7.85,6.83q-8.53,5.3-12.19,10.41a23,23,0,0,0-4.5,10.79h23.68l.39-9h3.42Z"/><path class="cls-3" d="M779.59,145.29q-6.29,7.92-22,7.92H742.4V104h-7.3v-3.49h22.59q14.37,0,21.21,7.3t6.91,19.1A29.14,29.14,0,0,1,779.59,145.29ZM775.4,110q-6.21-6-17.32-6H746.75v45.74h11.49q11.34,0,17.32-5.74t5.9-17.09Q781.46,115.93,775.4,110Z"/><circle class="cls-1" cx="951.2" cy="130.78" r="87.16"/><path class="cls-2" d="M889.92,192.77a87.16,87.16,0,1,1,122.55-124"/><circle class="cls-4" cx="935.64" cy="115.21" r="27.22"/><rect class="cls-5" x="970.77" y="127.42" width="6.97" height="52.88" rx="3.48" transform="translate(176.56 733.97) rotate(-45)"/><circle class="cls-6" cx="120.36" cy="387.51" r="87.16"/><path class="cls-7" d="M59.08,449.5a87.16,87.16,0,0,1,122.55-124"/><path class="cls-3" d="M110.9,360.7,92.65,410.48H89L70.13,360.7H63.29v-3.49h10.1l1.17,3.49,16.61,43.49,16-43.49h-6.44v-3.49h17v3.49Z"/><path class="cls-3" d="M156.79,409.94l-11.88-26.33H133.26V410h-4.34V360.7h-7.77v-3.49h25.94a14.9,14.9,0,0,1,10.25,3.57,11.6,11.6,0,0,1,4,9.09,13.12,13.12,0,0,1-2.88,8.62q-2.87,3.42-9.24,4.73l10.56,23.22h6.76v3.5Zm-2.71-46.6q-2.88-2.64-7.92-2.64h-12.9v19.42h11.5q5.82,0,9-2.49a8.82,8.82,0,0,0,3.26-7.37A8.73,8.73,0,0,0,154.08,363.34Z"/><circle class="cls-6" cx="328.07" cy="387.51" r="87.16"/><path class="cls-7" d="M266.79,449.5a87.16,87.16,0,0,1,122.55-124"/><path class="cls-3" d="M315.1,409.94v-3.5h6.6l-5.82-16.54H294.6l-5.67,16.54H289v3.5H278v-3.5h6.68L300.5,360.7l1.17-3.49h14.91v3.49H310l16.08,45.74h6.52v3.5Zm-9.79-51.1-9.47,27.57h18.87Z"/><path class="cls-3" d="M366.59,409.94l-11.88-26.33H343.06V410h-4.35V360.7h-7.77v-3.49h25.94a14.9,14.9,0,0,1,10.25,3.57,11.6,11.6,0,0,1,4,9.09,13.17,13.17,0,0,1-2.87,8.62q-2.88,3.42-9.25,4.73l10.57,23.22h6.75v3.5Zm-2.72-46.6Q361,360.7,356,360.7H343.06v19.42h11.49q5.82,0,9-2.49a8.82,8.82,0,0,0,3.26-7.37A8.7,8.7,0,0,0,363.87,363.34Z"/><circle class="cls-6" cx="535.78" cy="387.51" r="87.16"/><path class="cls-7" d="M474.5,449.5a87.16,87.16,0,1,1,122.55-124"/><path class="cls-3" d="M521,406.37a17.32,17.32,0,0,1-12,4.27,17,17,0,0,1-11.89-4.58l2.8-2.41a12.24,12.24,0,0,0,9.24,3.73,12.8,12.8,0,0,0,9.09-3.42,11.38,11.38,0,0,0,3.57-8.7,10.43,10.43,0,0,0-3.42-8.23,13,13,0,0,0-9.16-3.11l-3.42.08v-3l1.4-.15a30.65,30.65,0,0,0,4.54-.9,9.12,9.12,0,0,0,3.69-2.05,11.31,11.31,0,0,0,.54-15.3,9.57,9.57,0,0,0-7.3-2.95,9.36,9.36,0,0,0-7.14,2.79c-1.81,1.87-2.74,4.58-2.8,8.16H495q.23-6.76,4-10.49a14.77,14.77,0,0,1,19.8.16,13.26,13.26,0,0,1,3.88,9.78,11.87,11.87,0,0,1-2.09,7.15A13.41,13.41,0,0,1,514,382a14,14,0,0,1,8.47,4.27,12.82,12.82,0,0,1,3.18,9.09A14.28,14.28,0,0,1,521,406.37Z"/><path class="cls-3" d="M571.19,402q-6.29,7.92-22,7.92H534V360.7h-7.3v-3.49h22.6q14.37,0,21.2,7.3t6.91,19.1A29.19,29.19,0,0,1,571.19,402ZM567,366.68q-6.22-6-17.32-6H538.34v45.74h11.49q11.34,0,17.32-5.74t5.9-17.09Q573.05,372.66,567,366.68Z"/><circle class="cls-6" cx="743.49" cy="387.51" r="87.16"/><path class="cls-7" d="M682.21,449.5a87.16,87.16,0,1,1,122.55-124"/><path class="cls-3" d="M732,409.94H701l-.07-1.09a15.34,15.34,0,0,1,.85-5.71,41.39,41.39,0,0,1,3-6.64q3.88-7.29,13.67-13.28a30.75,30.75,0,0,0,7-5.66A11.39,11.39,0,0,0,727.8,370a10.4,10.4,0,0,0-2.88-7.45,10.23,10.23,0,0,0-7.3-2.95q-6,0-8.85,3.72l-2.41-2.4c2.75-3.06,6.47-4.59,11.19-4.59q6.44,0,10.33,3.73a13.49,13.49,0,0,1,3.88,9.94,14.92,14.92,0,0,1-2.25,8.39,25.61,25.61,0,0,1-7.85,6.83q-8.53,5.28-12.19,10.41a23,23,0,0,0-4.5,10.79h23.68l.39-9h3.42Z"/><path class="cls-3" d="M779.59,402q-6.29,7.92-22,7.92H742.4V360.7h-7.3v-3.49h22.59q14.37,0,21.21,7.3t6.91,19.1A29.14,29.14,0,0,1,779.59,402Zm-4.19-35.34q-6.21-6-17.32-6H746.75v45.74h11.49q11.34,0,17.32-5.74t5.9-17.09Q781.46,372.66,775.4,366.68Z"/><circle class="cls-6" cx="951.2" cy="387.51" r="87.16"/><path class="cls-7" d="M889.92,449.5a87.16,87.16,0,0,1,122.55-124"/><circle class="cls-4" cx="935.64" cy="371.94" r="27.22"/><rect class="cls-5" x="970.77" y="384.15" width="6.97" height="52.88" rx="3.48" transform="translate(-4.98 809.16) rotate(-45)"/><circle class="cls-8" cx="120.36" cy="644.24" r="87.16"/><path class="cls-9" d="M59.08,706.23a87.16,87.16,0,0,1,122.55-124"/><path class="cls-3" d="M110.9,617.43,92.65,667.21H89L70.13,617.43H63.29v-3.49h10.1l1.17,3.49,16.61,43.49,16-43.49h-6.44v-3.49h17v3.49Z"/><path class="cls-3" d="M156.79,666.67l-11.88-26.33H133.26v26.41h-4.34V617.43h-7.77v-3.49h25.94a14.9,14.9,0,0,1,10.25,3.57,11.6,11.6,0,0,1,4,9.09,13.12,13.12,0,0,1-2.88,8.62q-2.87,3.42-9.24,4.73l10.56,23.22h6.76v3.5Zm-2.71-46.6q-2.88-2.64-7.92-2.64h-12.9v19.42h11.5q5.82,0,9-2.49A8.82,8.82,0,0,0,157,627,8.73,8.73,0,0,0,154.08,620.07Z"/><circle class="cls-8" cx="328.07" cy="644.24" r="87.16"/><path class="cls-9" d="M266.79,706.23a87.16,87.16,0,0,1,122.55-124"/><path class="cls-3" d="M315.1,666.67v-3.5h6.6l-5.82-16.54H294.6l-5.67,16.54H289v3.5H278v-3.5h6.68l15.84-45.74,1.17-3.49h14.91v3.49H310l16.08,45.74h6.52v3.5Zm-9.79-51.1-9.47,27.57h18.87Z"/><path class="cls-3" d="M366.59,666.67l-11.88-26.33H343.06v26.41h-4.35V617.43h-7.77v-3.49h25.94a14.9,14.9,0,0,1,10.25,3.57,11.6,11.6,0,0,1,4,9.09,13.17,13.17,0,0,1-2.87,8.62q-2.88,3.42-9.25,4.73l10.57,23.22h6.75v3.5Zm-2.72-46.6q-2.88-2.64-7.92-2.64H343.06v19.42h11.49q5.82,0,9-2.49a8.82,8.82,0,0,0,3.26-7.37A8.7,8.7,0,0,0,363.87,620.07Z"/><circle class="cls-8" cx="535.78" cy="644.24" r="87.16"/><path class="cls-9" d="M474.5,706.23a87.16,87.16,0,1,1,122.55-124"/><path class="cls-3" d="M521,663.1a17.32,17.32,0,0,1-12,4.27,17,17,0,0,1-11.89-4.58l2.8-2.41a12.24,12.24,0,0,0,9.24,3.73,12.8,12.8,0,0,0,9.09-3.42,11.38,11.38,0,0,0,3.57-8.7,10.43,10.43,0,0,0-3.42-8.23,13,13,0,0,0-9.16-3.11l-3.42.08v-3l1.4-.15a30.65,30.65,0,0,0,4.54-.9,9.12,9.12,0,0,0,3.69-2,11.31,11.31,0,0,0,.54-15.3,9.57,9.57,0,0,0-7.3-2.95,9.36,9.36,0,0,0-7.14,2.79q-2.71,2.79-2.8,8.16H495q.23-6.76,4-10.49a14.77,14.77,0,0,1,19.8.16,13.26,13.26,0,0,1,3.88,9.78,11.87,11.87,0,0,1-2.09,7.15,13.41,13.41,0,0,1-6.53,4.81A14,14,0,0,1,522.5,643a12.82,12.82,0,0,1,3.18,9.09A14.28,14.28,0,0,1,521,663.1Z"/><path class="cls-3" d="M571.19,658.75q-6.29,7.92-22,7.92H534V617.43h-7.3v-3.49h22.6q14.37,0,21.2,7.3t6.91,19.1A29.19,29.19,0,0,1,571.19,658.75ZM567,623.41q-6.22-6-17.32-6H538.34v45.74h11.49q11.34,0,17.32-5.74t5.9-17.09Q573.05,629.39,567,623.41Z"/><circle class="cls-8" cx="743.49" cy="644.24" r="87.16"/><path class="cls-9" d="M682.21,706.23a87.16,87.16,0,1,1,122.55-124"/><path class="cls-3" d="M732,666.67H701l-.07-1.09a15.34,15.34,0,0,1,.85-5.71,41.39,41.39,0,0,1,3-6.64q3.88-7.29,13.67-13.28a30.75,30.75,0,0,0,7-5.66,11.39,11.39,0,0,0,2.41-7.54,10.4,10.4,0,0,0-2.88-7.45,10.23,10.23,0,0,0-7.3-2.95q-6,0-8.85,3.72l-2.41-2.4c2.75-3.06,6.47-4.59,11.19-4.59q6.44,0,10.33,3.73a13.49,13.49,0,0,1,3.88,9.94,14.92,14.92,0,0,1-2.25,8.39,25.61,25.61,0,0,1-7.85,6.83q-8.53,5.28-12.19,10.41a23,23,0,0,0-4.5,10.79h23.68l.39-9h3.42Z"/><path class="cls-3" d="M779.59,658.75q-6.29,7.92-22,7.92H742.4V617.43h-7.3v-3.49h22.59q14.37,0,21.21,7.3t6.91,19.1A29.14,29.14,0,0,1,779.59,658.75Zm-4.19-35.34q-6.21-6-17.32-6H746.75v45.74h11.49q11.34,0,17.32-5.74t5.9-17.09Q781.46,629.39,775.4,623.41Z"/><circle class="cls-8" cx="951.2" cy="644.24" r="87.16"/><path class="cls-9" d="M889.92,706.23a87.16,87.16,0,0,1,122.55-124"/><circle class="cls-4" cx="935.64" cy="628.67" r="27.22"/><rect class="cls-5" x="970.77" y="640.88" width="6.97" height="52.88" rx="3.48" transform="translate(-186.51 884.36) rotate(-45)"/><circle class="cls-10" cx="120.36" cy="900.97" r="87.16"/><path class="cls-11" d="M59.08,963A87.16,87.16,0,0,1,181.63,839"/><path class="cls-3" d="M110.9,874.16,92.65,923.94H89L70.13,874.16H63.29v-3.49h10.1l1.17,3.49,16.61,43.49,16-43.49h-6.44v-3.49h17v3.49Z"/><path class="cls-3" d="M156.79,923.4l-11.88-26.33H133.26v26.41h-4.34V874.16h-7.77v-3.49h25.94a14.9,14.9,0,0,1,10.25,3.57,11.6,11.6,0,0,1,4,9.09A13.12,13.12,0,0,1,158.5,892q-2.87,3.42-9.24,4.73l10.56,23.22h6.76v3.5Zm-2.71-46.6q-2.88-2.64-7.92-2.64h-12.9v19.42h11.5q5.82,0,9-2.49a8.84,8.84,0,0,0,3.26-7.38A8.72,8.72,0,0,0,154.08,876.8Z"/><circle class="cls-10" cx="328.07" cy="900.97" r="87.16"/><path class="cls-11" d="M266.79,963A87.16,87.16,0,0,1,389.34,839"/><path class="cls-3" d="M315.1,923.4v-3.5h6.6l-5.82-16.54H294.6l-5.67,16.54H289v3.5H278v-3.5h6.68l15.84-45.74,1.17-3.49h14.91v3.49H310l16.08,45.74h6.52v3.5Zm-9.79-51.1-9.47,27.57h18.87Z"/><path class="cls-3" d="M366.59,923.4l-11.88-26.33H343.06v26.41h-4.35V874.16h-7.77v-3.49h25.94a14.9,14.9,0,0,1,10.25,3.57,11.6,11.6,0,0,1,4,9.09A13.17,13.17,0,0,1,368.3,892q-2.88,3.42-9.25,4.73l10.57,23.22h6.75v3.5Zm-2.72-46.6q-2.88-2.64-7.92-2.64H343.06v19.42h11.49q5.82,0,9-2.49a8.84,8.84,0,0,0,3.26-7.38A8.69,8.69,0,0,0,363.87,876.8Z"/><circle class="cls-10" cx="535.78" cy="900.97" r="87.16"/><path class="cls-11" d="M474.5,963A87.16,87.16,0,1,1,597.05,839"/><path class="cls-3" d="M521,919.83a17.32,17.32,0,0,1-12,4.27,17,17,0,0,1-11.89-4.58l2.8-2.41a12.24,12.24,0,0,0,9.24,3.73,12.8,12.8,0,0,0,9.09-3.42,11.38,11.38,0,0,0,3.57-8.7,10.43,10.43,0,0,0-3.42-8.23,13,13,0,0,0-9.16-3.11l-3.42.08v-3l1.4-.15a30.65,30.65,0,0,0,4.54-.9,9.12,9.12,0,0,0,3.69-2A11.31,11.31,0,0,0,516,876a9.57,9.57,0,0,0-7.3-2.95,9.36,9.36,0,0,0-7.14,2.79q-2.71,2.79-2.8,8.16H495q.23-6.76,4-10.49a14.77,14.77,0,0,1,19.8.16,13.26,13.26,0,0,1,3.88,9.78,11.87,11.87,0,0,1-2.09,7.15,13.41,13.41,0,0,1-6.53,4.81,14,14,0,0,1,8.47,4.27,12.82,12.82,0,0,1,3.18,9.09A14.28,14.28,0,0,1,521,919.83Z"/><path class="cls-3" d="M571.19,915.48q-6.29,7.92-22,7.92H534V874.16h-7.3v-3.49h22.6q14.37,0,21.2,7.3t6.91,19.1A29.19,29.19,0,0,1,571.19,915.48ZM567,880.14q-6.22-6-17.32-6H538.34V919.9h11.49q11.34,0,17.32-5.74t5.9-17.09Q573.05,886.12,567,880.14Z"/><circle class="cls-10" cx="743.49" cy="900.97" r="87.16"/><path class="cls-11" d="M682.21,963A87.16,87.16,0,1,1,804.76,839"/><path class="cls-3" d="M732,923.4H701l-.07-1.09a15.34,15.34,0,0,1,.85-5.71,41,41,0,0,1,3-6.64q3.88-7.29,13.67-13.28a30.49,30.49,0,0,0,7-5.67,11.34,11.34,0,0,0,2.41-7.53,10.4,10.4,0,0,0-2.88-7.45,10.23,10.23,0,0,0-7.3-2.95q-6,0-8.85,3.72l-2.41-2.4c2.75-3.06,6.47-4.59,11.19-4.59q6.44,0,10.33,3.73a13.49,13.49,0,0,1,3.88,9.94,14.92,14.92,0,0,1-2.25,8.39,25.61,25.61,0,0,1-7.85,6.83q-8.53,5.28-12.19,10.41A23,23,0,0,0,705,919.9h23.68l.39-9h3.42Z"/><path class="cls-3" d="M779.59,915.48q-6.29,7.92-22,7.92H742.4V874.16h-7.3v-3.49h22.59q14.37,0,21.21,7.3t6.91,19.1A29.14,29.14,0,0,1,779.59,915.48Zm-4.19-35.34q-6.21-6-17.32-6H746.75V919.9h11.49q11.34,0,17.32-5.74t5.9-17.09Q781.46,886.12,775.4,880.14Z"/><circle class="cls-10" cx="951.2" cy="900.97" r="87.16"/><path class="cls-11" d="M889.92,963a87.16,87.16,0,0,1,122.55-124"/><circle class="cls-4" cx="935.64" cy="885.4" r="27.22"/><rect class="cls-5" x="970.77" y="897.61" width="6.97" height="52.88" rx="3.48" transform="translate(-368.05 959.55) rotate(-45)"/></svg>