<svg id="Layer_1" data-name="Layer 1" xmlns="http://www.w3.org/2000/svg" viewBox="0 0 1080 1080"><defs><style>.cls-1,.cls-4,.cls-6{fill:none;}.cls-1,.cls-2,.cls-6{stroke:#000;}.cls-1,.cls-2,.cls-4,.cls-6{stroke-miterlimit:10;}.cls-1{stroke-width:9.74px;}.cls-2{fill:#fff;stroke-width:3.63px;}.cls-2,.cls-4,.cls-6{stroke-linecap:round;}.cls-3{fill:#ee8b8b;}.cls-4{stroke:#f2f2f2;stroke-width:3.45px;}.cls-5{fill:#3689d1;}.cls-6{stroke-width:2.44px;}</style></defs><path d="M425.81,385.83q-12.58,11.52-33.47,11.52h-33V457H328.17v-9.59h19.19V321.87H328.17v-9.59h62q22.59,0,35.39,11.09,12.79,11.29,12.79,31.55Q438.39,374.33,425.81,385.83ZM417.29,330q-9.39-8.1-29.21-8.11H359.29v65.88h28.79q18.54,0,28.35-7.89,10-8.1,10-23.66Q426.45,337.87,417.29,330Z"/><path d="M525.8,444.68a48,48,0,0,1-36,15.35q-21.54,0-35.82-15.35-14.49-15.57-14.49-37.95,0-22.82,14.28-38,14.28-15.36,36-15.35,21.32,0,35.82,15.35,14.49,15.57,14.5,38T525.8,444.68Zm-7.89-68.87q-11.08-12.36-28.14-12.36T461.84,375.6Q450.76,388,450.76,406.73t10.87,30.91Q472.72,450,489.77,450t27.93-12.16q11.09-12.36,11.09-31.12T517.91,375.81Z"/><path d="M559.7,457V321.87H541.37v-9.59h29.42V447.45h18.12V457Z"/><path d="M606.6,457v-9.59h-.21V365.79H588.7V356.2h28.78v91.25h17.27V457Zm8.32-132.39a8.53,8.53,0,0,1-14.5-6,8.43,8.43,0,0,1,2.56-6.19,8.53,8.53,0,0,1,14.5,6A8.46,8.46,0,0,1,614.92,324.65Z"/><path d="M727.48,418.82q-13.43,11.51-33,11.51a51.71,51.71,0,0,1-23-5.33,42.44,42.44,0,0,1-9.91-6.82,47.65,47.65,0,0,1-7.78-9.38v19.4h-9.81V378.52h9.81v5.12q0,14.28,11.94,25.16,11.94,11.08,29,11.08,14.51,0,24.52-8.74Q729,402.62,729,389q0-12.15-9.17-19.19-9.39-7.25-32-12.58t-33.05-14.92q-10.44-9.16-10.44-25.8,0-14.91,12.15-25.16,12.36-10.23,30.06-10.23a90.29,90.29,0,0,1,10.87.64,36.65,36.65,0,0,1,10.24,2.77q4.89,2.36,8.74,4.48a30.36,30.36,0,0,1,7.67,6.4A40.84,40.84,0,0,1,727.8,300a41.51,41.51,0,0,1,2.88,5,24.25,24.25,0,0,1,2.13,7.25c.43,2.84.71,5.19.86,7s.21,2.92.21,3.2h-11.3v-2.77a30.16,30.16,0,0,0-.43-4.48,29.62,29.62,0,0,0-1.59-5.86,38,38,0,0,0-3-6.08,18.78,18.78,0,0,0-4.58-5.11,27.74,27.74,0,0,0-12.37-5.44,87.11,87.11,0,0,0-14.71-1.17q-13.21,0-21.74,7.25-8.76,7.45-8.75,18.12,0,12.36,9.38,18.76,9.6,6.39,25.59,10.23,29.21,7,39.87,17.06t10.66,27.29Q740.92,407.31,727.48,418.82Z"/><path d="M769.7,380.23q1.06,17.91,12.15,29.42,11.94,12.59,30.7,12.58a32.22,32.22,0,0,0,7.57-1.07c2.91-.71,5.65-1.45,8.21-2.24s5.68-1.88,9.38-3.3l2.55,8.1q-6.18,2.36-10.66,3.73T820,430a41.61,41.61,0,0,1-9.17,1.17q-22.59,0-37.31-15.13-14.7-14.93-14.71-38.17,0-23,14.5-38.16t36.88-15.14q21.75,0,35.61,14.71,13.63,14.5,14.92,40.94Zm66.73-36Q825.77,334,809.35,334q-17.26,0-28.57,12.58-8.31,9-10.66,24.09H849Q846.87,354.64,836.43,344.2Z"/><path d="M887.38,380.23q1.07,17.91,12.15,29.42,11.94,12.59,30.7,12.58a32.22,32.22,0,0,0,7.57-1.07c2.91-.71,5.65-1.45,8.21-2.24s5.68-1.88,9.38-3.3l2.56,8.1q-6.19,2.36-10.66,3.73t-9.6,2.56a41.6,41.6,0,0,1-9.16,1.17q-22.6,0-37.31-15.13-14.72-14.93-14.71-38.17,0-23,14.49-38.16t36.89-15.14q21.74,0,35.6,14.71,13.63,14.5,14.92,40.94Zm66.73-36Q943.45,334,927,334q-17.26,0-28.57,12.58-8.31,9-10.66,24.09h78.89Q964.56,354.64,954.11,344.2Z"/><line class="cls-1" x1="634.42" y1="452.16" x2="983.22" y2="452.16"/><path d="M425.81,768q-12.58,11.5-33.47,11.51h-33v59.7H328.17v-9.6h19.19V704H328.17v-9.59h62q22.59,0,35.39,11.08,12.79,11.31,12.79,31.56Q438.39,756.47,425.81,768Zm-8.52-55.86q-9.39-8.1-29.21-8.1H359.29v65.88h28.79q18.54,0,28.35-7.89,10-8.1,10-23.67Q426.45,720,417.29,712.13Z"/><path d="M523.8,826.83a48,48,0,0,1-36,15.35q-21.54,0-35.82-15.35-14.49-15.55-14.5-38,0-22.82,14.29-38,14.28-15.34,36-15.35,21.32,0,35.82,15.35,14.49,15.57,14.5,38T523.8,826.83ZM515.91,758q-11.08-12.36-28.14-12.37t-27.93,12.15q-11.08,12.38-11.09,31.13t10.88,30.92q11.08,12.36,28.14,12.36T515.7,820q11.09-12.36,11.08-31.13T515.91,758Z"/><path d="M556.7,839.2V704H538.36v-9.59h29.42V829.6h18.13v9.6Z"/><path d="M608.61,839.2v-9.6h-.22V748H590.7v-9.6h28.78V829.6h17.27v9.6Zm8.31-132.4a8.53,8.53,0,0,1-14.5-6,8.44,8.44,0,0,1,2.56-6.18,8.53,8.53,0,0,1,14.5,6A8.4,8.4,0,0,1,616.92,706.8Z"/><path d="M737.49,829.82q-13.43,11.5-33,11.51a51.71,51.71,0,0,1-23-5.33,42.23,42.23,0,0,1-9.91-6.82,47.65,47.65,0,0,1-7.78-9.38v19.4h-9.81V789.52h9.81v5.12q0,14.28,11.94,25.16,11.93,11.09,29,11.08,14.49,0,24.52-8.74Q739,813.62,739,800q0-12.15-9.17-19.19-9.39-7.24-32-12.58t-33.05-14.92q-10.44-9.16-10.44-25.8,0-14.93,12.15-25.16,12.36-10.23,30.06-10.23a90.42,90.42,0,0,1,10.87.64,36.75,36.75,0,0,1,10.24,2.77q4.89,2.36,8.74,4.48a30.51,30.51,0,0,1,7.67,6.39,43,43,0,0,1,3.73,4.59,41.51,41.51,0,0,1,2.88,5,24.25,24.25,0,0,1,2.13,7.25c.43,2.84.71,5.19.86,7s.21,2.92.21,3.2h-11.3v-2.77a30.16,30.16,0,0,0-.43-4.48,29,29,0,0,0-1.6-5.86,36.73,36.73,0,0,0-3-6.08,18.63,18.63,0,0,0-4.58-5.11,27.63,27.63,0,0,0-12.37-5.44,87.11,87.11,0,0,0-14.71-1.17q-13.21,0-21.75,7.25-8.74,7.46-8.74,18.12,0,12.36,9.38,18.76,9.6,6.39,25.59,10.23,29.21,7,39.86,17.06t10.66,27.29Q750.92,818.31,737.49,829.82Z"/><path d="M775.7,791.23q1.06,17.91,12.15,29.42,11.94,12.58,30.7,12.58a32.61,32.61,0,0,0,7.57-1.07c2.91-.71,5.65-1.45,8.21-2.24s5.68-1.88,9.38-3.3l2.56,8.1q-6.18,2.35-10.66,3.73T826,841a41.61,41.61,0,0,1-9.17,1.17q-22.61,0-37.31-15.14-14.71-14.91-14.71-38.16,0-23,14.5-38.16t36.88-15.14q21.75,0,35.6,14.71,13.65,14.51,14.93,40.94Zm66.73-36Q831.77,745,815.36,745q-17.28,0-28.57,12.58-8.32,9-10.66,24.09H855Q852.88,765.64,842.43,755.2Z"/><path d="M888.38,791.23q1.07,17.91,12.15,29.42,11.94,12.58,30.7,12.58a32.68,32.68,0,0,0,7.57-1.07c2.91-.71,5.65-1.45,8.21-2.24s5.68-1.88,9.38-3.3l2.56,8.1q-6.19,2.35-10.66,3.73c-3,.92-6.18,1.78-9.6,2.56a41.52,41.52,0,0,1-9.16,1.17q-22.6,0-37.31-15.14-14.72-14.91-14.71-38.16,0-23,14.49-38.16t36.89-15.14q21.75,0,35.6,14.71,13.65,14.51,14.93,40.94Zm66.73-36Q944.45,745,928,745q-17.26,0-28.56,12.58-8.33,9-10.66,24.09h78.88Q965.56,765.64,955.11,755.2Z"/><path class="cls-2" d="M127.71,316.41a14.71,14.71,0,0,1,29.41,0"/><path class="cls-2" d="M211,316.41a14.71,14.71,0,0,1,29.41,0"/><path class="cls-2" d="M99.46,409.81,119,321.93s21-15.4,47,0l3.77,101.62"/><circle class="cls-2" cx="133.26" cy="423.55" r="36.47"/><path class="cls-2" d="M268.44,410,249.11,321.9s-21-15.33-47,0l-3.84,97"/><circle class="cls-2" cx="234.46" cy="423.55" r="36.47"/><path class="cls-2" d="M199.56,387.08c-16.35-11.49-31,0-31,0l-.74-22.3s17.23-11.15,32.52,0Z"/><circle class="cls-3" cx="234.83" cy="423.55" r="28.18"/><path class="cls-4" d="M241.33,402.18s9.23.65,13,11"/><circle class="cls-5" cx="133.26" cy="423.55" r="28.18"/><path class="cls-4" d="M129.51,445.82s-9.23.79-14.58-8.88"/><circle class="cls-6" cx="133.26" cy="423.55" r="28.18"/><circle class="cls-6" cx="234.83" cy="423.55" r="28.18"/><path class="cls-2" d="M128.08,698.84a14.71,14.71,0,0,1,29.41,0"/><path class="cls-2" d="M211.34,698.84a14.71,14.71,0,0,1,29.41,0"/><path class="cls-2" d="M99.83,792.24l19.51-87.88s21-15.4,47,0L170.1,806"/><circle class="cls-2" cx="133.63" cy="805.98" r="36.47"/><path class="cls-2" d="M268.81,792.4l-19.33-88.07s-21-15.33-47,0l-3.84,97"/><circle class="cls-2" cx="234.83" cy="805.98" r="36.47"/><path class="cls-2" d="M199.93,769.51c-16.36-11.49-31,0-31,0l-.74-22.3s17.23-11.15,32.52,0Z"/><circle class="cls-3" cx="235.2" cy="805.98" r="28.18"/><path class="cls-4" d="M241.69,784.62s9.24.64,13,11"/><circle class="cls-5" cx="133.63" cy="805.98" r="28.18"/><path class="cls-4" d="M129.88,828.26s-9.23.79-14.58-8.89"/><circle class="cls-6" cx="133.63" cy="805.98" r="28.18"/><circle class="cls-6" cx="235.2" cy="805.98" r="28.18"/></svg>